G04 #@! TF.GenerationSoftware,KiCad,Pcbnew,(5.1.12)-1*
G04 #@! TF.CreationDate,2023-02-16T22:18:36+00:00*
G04 #@! TF.ProjectId,battery,62617474-6572-4792-9e6b-696361645f70,v01*
G04 #@! TF.SameCoordinates,Original*
G04 #@! TF.FileFunction,Legend,Top*
G04 #@! TF.FilePolarity,Positive*
%FSLAX46Y46*%
G04 Gerber Fmt 4.6, Leading zero omitted, Abs format (unit mm)*
G04 Created by KiCad (PCBNEW (5.1.12)-1) date 2023-02-16 22:18:36*
%MOMM*%
%LPD*%
G01*
G04 APERTURE LIST*
%ADD10C,0.150000*%
%ADD11C,0.125000*%
%ADD12C,0.120000*%
%ADD13C,0.127000*%
%ADD14C,0.200000*%
%ADD15C,0.100000*%
%ADD16O,1.800000X1.800000*%
G04 APERTURE END LIST*
D10*
X132892857Y-133050000D02*
X132835714Y-133021428D01*
X132750000Y-133021428D01*
X132664285Y-133050000D01*
X132607142Y-133107142D01*
X132578571Y-133164285D01*
X132550000Y-133278571D01*
X132550000Y-133364285D01*
X132578571Y-133478571D01*
X132607142Y-133535714D01*
X132664285Y-133592857D01*
X132750000Y-133621428D01*
X132807142Y-133621428D01*
X132892857Y-133592857D01*
X132921428Y-133564285D01*
X132921428Y-133364285D01*
X132807142Y-133364285D01*
X133178571Y-133621428D02*
X133178571Y-133021428D01*
X133521428Y-133621428D01*
X133521428Y-133021428D01*
X133807142Y-133621428D02*
X133807142Y-133021428D01*
X133950000Y-133021428D01*
X134035714Y-133050000D01*
X134092857Y-133107142D01*
X134121428Y-133164285D01*
X134150000Y-133278571D01*
X134150000Y-133364285D01*
X134121428Y-133478571D01*
X134092857Y-133535714D01*
X134035714Y-133592857D01*
X133950000Y-133621428D01*
X133807142Y-133621428D01*
X132464285Y-131024285D02*
X132435714Y-131052857D01*
X132350000Y-131081428D01*
X132292857Y-131081428D01*
X132207142Y-131052857D01*
X132150000Y-130995714D01*
X132121428Y-130938571D01*
X132092857Y-130824285D01*
X132092857Y-130738571D01*
X132121428Y-130624285D01*
X132150000Y-130567142D01*
X132207142Y-130510000D01*
X132292857Y-130481428D01*
X132350000Y-130481428D01*
X132435714Y-130510000D01*
X132464285Y-130538571D01*
X132807142Y-131081428D02*
X132750000Y-131052857D01*
X132721428Y-131024285D01*
X132692857Y-130967142D01*
X132692857Y-130795714D01*
X132721428Y-130738571D01*
X132750000Y-130710000D01*
X132807142Y-130681428D01*
X132892857Y-130681428D01*
X132950000Y-130710000D01*
X132978571Y-130738571D01*
X133007142Y-130795714D01*
X133007142Y-130967142D01*
X132978571Y-131024285D01*
X132950000Y-131052857D01*
X132892857Y-131081428D01*
X132807142Y-131081428D01*
X133264285Y-131081428D02*
X133264285Y-130681428D01*
X133264285Y-130738571D02*
X133292857Y-130710000D01*
X133350000Y-130681428D01*
X133435714Y-130681428D01*
X133492857Y-130710000D01*
X133521428Y-130767142D01*
X133521428Y-131081428D01*
X133521428Y-130767142D02*
X133550000Y-130710000D01*
X133607142Y-130681428D01*
X133692857Y-130681428D01*
X133750000Y-130710000D01*
X133778571Y-130767142D01*
X133778571Y-131081428D01*
X134064285Y-131081428D02*
X134064285Y-130681428D01*
X134064285Y-130738571D02*
X134092857Y-130710000D01*
X134150000Y-130681428D01*
X134235714Y-130681428D01*
X134292857Y-130710000D01*
X134321428Y-130767142D01*
X134321428Y-131081428D01*
X134321428Y-130767142D02*
X134350000Y-130710000D01*
X134407142Y-130681428D01*
X134492857Y-130681428D01*
X134550000Y-130710000D01*
X134578571Y-130767142D01*
X134578571Y-131081428D01*
X132650000Y-128227142D02*
X132450000Y-128227142D01*
X132450000Y-128541428D02*
X132450000Y-127941428D01*
X132735714Y-127941428D01*
X133192857Y-128512857D02*
X133135714Y-128541428D01*
X133021428Y-128541428D01*
X132964285Y-128512857D01*
X132935714Y-128455714D01*
X132935714Y-128227142D01*
X132964285Y-128170000D01*
X133021428Y-128141428D01*
X133135714Y-128141428D01*
X133192857Y-128170000D01*
X133221428Y-128227142D01*
X133221428Y-128284285D01*
X132935714Y-128341428D01*
X133707142Y-128512857D02*
X133650000Y-128541428D01*
X133535714Y-128541428D01*
X133478571Y-128512857D01*
X133450000Y-128455714D01*
X133450000Y-128227142D01*
X133478571Y-128170000D01*
X133535714Y-128141428D01*
X133650000Y-128141428D01*
X133707142Y-128170000D01*
X133735714Y-128227142D01*
X133735714Y-128284285D01*
X133450000Y-128341428D01*
X134250000Y-128541428D02*
X134250000Y-127941428D01*
X134250000Y-128512857D02*
X134192857Y-128541428D01*
X134078571Y-128541428D01*
X134021428Y-128512857D01*
X133992857Y-128484285D01*
X133964285Y-128427142D01*
X133964285Y-128255714D01*
X133992857Y-128198571D01*
X134021428Y-128170000D01*
X134078571Y-128141428D01*
X134192857Y-128141428D01*
X134250000Y-128170000D01*
X132464285Y-125401428D02*
X132835714Y-125401428D01*
X132635714Y-125630000D01*
X132721428Y-125630000D01*
X132778571Y-125658571D01*
X132807142Y-125687142D01*
X132835714Y-125744285D01*
X132835714Y-125887142D01*
X132807142Y-125944285D01*
X132778571Y-125972857D01*
X132721428Y-126001428D01*
X132550000Y-126001428D01*
X132492857Y-125972857D01*
X132464285Y-125944285D01*
X133092857Y-125944285D02*
X133121428Y-125972857D01*
X133092857Y-126001428D01*
X133064285Y-125972857D01*
X133092857Y-125944285D01*
X133092857Y-126001428D01*
X133321428Y-125401428D02*
X133692857Y-125401428D01*
X133492857Y-125630000D01*
X133578571Y-125630000D01*
X133635714Y-125658571D01*
X133664285Y-125687142D01*
X133692857Y-125744285D01*
X133692857Y-125887142D01*
X133664285Y-125944285D01*
X133635714Y-125972857D01*
X133578571Y-126001428D01*
X133407142Y-126001428D01*
X133350000Y-125972857D01*
X133321428Y-125944285D01*
X133864285Y-125401428D02*
X134064285Y-126001428D01*
X134264285Y-125401428D01*
X105580000Y-133021428D02*
X105780000Y-133621428D01*
X105980000Y-133021428D01*
X106180000Y-133621428D02*
X106180000Y-133021428D01*
X106322857Y-133021428D01*
X106408571Y-133050000D01*
X106465714Y-133107142D01*
X106494285Y-133164285D01*
X106522857Y-133278571D01*
X106522857Y-133364285D01*
X106494285Y-133478571D01*
X106465714Y-133535714D01*
X106408571Y-133592857D01*
X106322857Y-133621428D01*
X106180000Y-133621428D01*
X106780000Y-133621428D02*
X106780000Y-133021428D01*
X106922857Y-133021428D01*
X107008571Y-133050000D01*
X107065714Y-133107142D01*
X107094285Y-133164285D01*
X107122857Y-133278571D01*
X107122857Y-133364285D01*
X107094285Y-133478571D01*
X107065714Y-133535714D01*
X107008571Y-133592857D01*
X106922857Y-133621428D01*
X106780000Y-133621428D01*
X107580000Y-133307142D02*
X107665714Y-133335714D01*
X107694285Y-133364285D01*
X107722857Y-133421428D01*
X107722857Y-133507142D01*
X107694285Y-133564285D01*
X107665714Y-133592857D01*
X107608571Y-133621428D01*
X107380000Y-133621428D01*
X107380000Y-133021428D01*
X107580000Y-133021428D01*
X107637142Y-133050000D01*
X107665714Y-133078571D01*
X107694285Y-133135714D01*
X107694285Y-133192857D01*
X107665714Y-133250000D01*
X107637142Y-133278571D01*
X107580000Y-133307142D01*
X107380000Y-133307142D01*
X106222857Y-130510000D02*
X106165714Y-130481428D01*
X106080000Y-130481428D01*
X105994285Y-130510000D01*
X105937142Y-130567142D01*
X105908571Y-130624285D01*
X105880000Y-130738571D01*
X105880000Y-130824285D01*
X105908571Y-130938571D01*
X105937142Y-130995714D01*
X105994285Y-131052857D01*
X106080000Y-131081428D01*
X106137142Y-131081428D01*
X106222857Y-131052857D01*
X106251428Y-131024285D01*
X106251428Y-130824285D01*
X106137142Y-130824285D01*
X106508571Y-131081428D02*
X106508571Y-130481428D01*
X106851428Y-131081428D01*
X106851428Y-130481428D01*
X107137142Y-131081428D02*
X107137142Y-130481428D01*
X107280000Y-130481428D01*
X107365714Y-130510000D01*
X107422857Y-130567142D01*
X107451428Y-130624285D01*
X107480000Y-130738571D01*
X107480000Y-130824285D01*
X107451428Y-130938571D01*
X107422857Y-130995714D01*
X107365714Y-131052857D01*
X107280000Y-131081428D01*
X107137142Y-131081428D01*
X106222857Y-127970000D02*
X106165714Y-127941428D01*
X106080000Y-127941428D01*
X105994285Y-127970000D01*
X105937142Y-128027142D01*
X105908571Y-128084285D01*
X105880000Y-128198571D01*
X105880000Y-128284285D01*
X105908571Y-128398571D01*
X105937142Y-128455714D01*
X105994285Y-128512857D01*
X106080000Y-128541428D01*
X106137142Y-128541428D01*
X106222857Y-128512857D01*
X106251428Y-128484285D01*
X106251428Y-128284285D01*
X106137142Y-128284285D01*
X106508571Y-128541428D02*
X106508571Y-127941428D01*
X106851428Y-128541428D01*
X106851428Y-127941428D01*
X107137142Y-128541428D02*
X107137142Y-127941428D01*
X107280000Y-127941428D01*
X107365714Y-127970000D01*
X107422857Y-128027142D01*
X107451428Y-128084285D01*
X107480000Y-128198571D01*
X107480000Y-128284285D01*
X107451428Y-128398571D01*
X107422857Y-128455714D01*
X107365714Y-128512857D01*
X107280000Y-128541428D01*
X107137142Y-128541428D01*
X105622857Y-125401428D02*
X105822857Y-126001428D01*
X106022857Y-125401428D01*
X106222857Y-126001428D02*
X106222857Y-125401428D01*
X106365714Y-125401428D01*
X106451428Y-125430000D01*
X106508571Y-125487142D01*
X106537142Y-125544285D01*
X106565714Y-125658571D01*
X106565714Y-125744285D01*
X106537142Y-125858571D01*
X106508571Y-125915714D01*
X106451428Y-125972857D01*
X106365714Y-126001428D01*
X106222857Y-126001428D01*
X106822857Y-126001428D02*
X106822857Y-125401428D01*
X106965714Y-125401428D01*
X107051428Y-125430000D01*
X107108571Y-125487142D01*
X107137142Y-125544285D01*
X107165714Y-125658571D01*
X107165714Y-125744285D01*
X107137142Y-125858571D01*
X107108571Y-125915714D01*
X107051428Y-125972857D01*
X106965714Y-126001428D01*
X106822857Y-126001428D01*
X107394285Y-125830000D02*
X107680000Y-125830000D01*
X107337142Y-126001428D02*
X107537142Y-125401428D01*
X107737142Y-126001428D01*
D11*
X115522857Y-137124285D02*
X115594285Y-137148095D01*
X115618095Y-137171904D01*
X115641904Y-137219523D01*
X115641904Y-137290952D01*
X115618095Y-137338571D01*
X115594285Y-137362380D01*
X115546666Y-137386190D01*
X115356190Y-137386190D01*
X115356190Y-136886190D01*
X115522857Y-136886190D01*
X115570476Y-136910000D01*
X115594285Y-136933809D01*
X115618095Y-136981428D01*
X115618095Y-137029047D01*
X115594285Y-137076666D01*
X115570476Y-137100476D01*
X115522857Y-137124285D01*
X115356190Y-137124285D01*
X116070476Y-137386190D02*
X116070476Y-137124285D01*
X116046666Y-137076666D01*
X115999047Y-137052857D01*
X115903809Y-137052857D01*
X115856190Y-137076666D01*
X116070476Y-137362380D02*
X116022857Y-137386190D01*
X115903809Y-137386190D01*
X115856190Y-137362380D01*
X115832380Y-137314761D01*
X115832380Y-137267142D01*
X115856190Y-137219523D01*
X115903809Y-137195714D01*
X116022857Y-137195714D01*
X116070476Y-137171904D01*
X116237142Y-137052857D02*
X116427619Y-137052857D01*
X116308571Y-136886190D02*
X116308571Y-137314761D01*
X116332380Y-137362380D01*
X116380000Y-137386190D01*
X116427619Y-137386190D01*
X116522857Y-137052857D02*
X116713333Y-137052857D01*
X116594285Y-136886190D02*
X116594285Y-137314761D01*
X116618095Y-137362380D01*
X116665714Y-137386190D01*
X116713333Y-137386190D01*
X117070476Y-137362380D02*
X117022857Y-137386190D01*
X116927619Y-137386190D01*
X116880000Y-137362380D01*
X116856190Y-137314761D01*
X116856190Y-137124285D01*
X116880000Y-137076666D01*
X116927619Y-137052857D01*
X117022857Y-137052857D01*
X117070476Y-137076666D01*
X117094285Y-137124285D01*
X117094285Y-137171904D01*
X116856190Y-137219523D01*
X117308571Y-137386190D02*
X117308571Y-137052857D01*
X117308571Y-137148095D02*
X117332380Y-137100476D01*
X117356190Y-137076666D01*
X117403809Y-137052857D01*
X117451428Y-137052857D01*
X117570476Y-137052857D02*
X117689523Y-137386190D01*
X117808571Y-137052857D02*
X117689523Y-137386190D01*
X117641904Y-137505238D01*
X117618095Y-137529047D01*
X117570476Y-137552857D01*
X118546666Y-137124285D02*
X118618095Y-137148095D01*
X118641904Y-137171904D01*
X118665714Y-137219523D01*
X118665714Y-137290952D01*
X118641904Y-137338571D01*
X118618095Y-137362380D01*
X118570476Y-137386190D01*
X118380000Y-137386190D01*
X118380000Y-136886190D01*
X118546666Y-136886190D01*
X118594285Y-136910000D01*
X118618095Y-136933809D01*
X118641904Y-136981428D01*
X118641904Y-137029047D01*
X118618095Y-137076666D01*
X118594285Y-137100476D01*
X118546666Y-137124285D01*
X118380000Y-137124285D01*
X119094285Y-137386190D02*
X119094285Y-137124285D01*
X119070476Y-137076666D01*
X119022857Y-137052857D01*
X118927619Y-137052857D01*
X118880000Y-137076666D01*
X119094285Y-137362380D02*
X119046666Y-137386190D01*
X118927619Y-137386190D01*
X118880000Y-137362380D01*
X118856190Y-137314761D01*
X118856190Y-137267142D01*
X118880000Y-137219523D01*
X118927619Y-137195714D01*
X119046666Y-137195714D01*
X119094285Y-137171904D01*
X119546666Y-137362380D02*
X119499047Y-137386190D01*
X119403809Y-137386190D01*
X119356190Y-137362380D01*
X119332380Y-137338571D01*
X119308571Y-137290952D01*
X119308571Y-137148095D01*
X119332380Y-137100476D01*
X119356190Y-137076666D01*
X119403809Y-137052857D01*
X119499047Y-137052857D01*
X119546666Y-137076666D01*
X119760952Y-137386190D02*
X119760952Y-136886190D01*
X119808571Y-137195714D02*
X119951428Y-137386190D01*
X119951428Y-137052857D02*
X119760952Y-137243333D01*
X120165714Y-137195714D02*
X120546666Y-137195714D01*
X120784761Y-136886190D02*
X120784761Y-137290952D01*
X120808571Y-137338571D01*
X120832380Y-137362380D01*
X120880000Y-137386190D01*
X120975238Y-137386190D01*
X121022857Y-137362380D01*
X121046666Y-137338571D01*
X121070476Y-137290952D01*
X121070476Y-136886190D01*
X121308571Y-137052857D02*
X121308571Y-137552857D01*
X121308571Y-137076666D02*
X121356190Y-137052857D01*
X121451428Y-137052857D01*
X121499047Y-137076666D01*
X121522857Y-137100476D01*
X121546666Y-137148095D01*
X121546666Y-137290952D01*
X121522857Y-137338571D01*
X121499047Y-137362380D01*
X121451428Y-137386190D01*
X121356190Y-137386190D01*
X121308571Y-137362380D01*
X122141904Y-137386190D02*
X122141904Y-136886190D01*
X122332380Y-136886190D01*
X122380000Y-136910000D01*
X122403809Y-136933809D01*
X122427619Y-136981428D01*
X122427619Y-137052857D01*
X122403809Y-137100476D01*
X122380000Y-137124285D01*
X122332380Y-137148095D01*
X122141904Y-137148095D01*
X122927619Y-137338571D02*
X122903809Y-137362380D01*
X122832380Y-137386190D01*
X122784761Y-137386190D01*
X122713333Y-137362380D01*
X122665714Y-137314761D01*
X122641904Y-137267142D01*
X122618095Y-137171904D01*
X122618095Y-137100476D01*
X122641904Y-137005238D01*
X122665714Y-136957619D01*
X122713333Y-136910000D01*
X122784761Y-136886190D01*
X122832380Y-136886190D01*
X122903809Y-136910000D01*
X122927619Y-136933809D01*
X123308571Y-137124285D02*
X123380000Y-137148095D01*
X123403809Y-137171904D01*
X123427619Y-137219523D01*
X123427619Y-137290952D01*
X123403809Y-137338571D01*
X123380000Y-137362380D01*
X123332380Y-137386190D01*
X123141904Y-137386190D01*
X123141904Y-136886190D01*
X123308571Y-136886190D01*
X123356190Y-136910000D01*
X123380000Y-136933809D01*
X123403809Y-136981428D01*
X123403809Y-137029047D01*
X123380000Y-137076666D01*
X123356190Y-137100476D01*
X123308571Y-137124285D01*
X123141904Y-137124285D01*
D12*
X105410000Y-134620000D02*
X104140000Y-134620000D01*
X105410000Y-133350000D02*
X105410000Y-134620000D01*
X103097071Y-125350000D02*
X102700000Y-125350000D01*
X103097071Y-126110000D02*
X102700000Y-126110000D01*
X94040000Y-125350000D02*
X100040000Y-125350000D01*
X94040000Y-126110000D02*
X94040000Y-125350000D01*
X100040000Y-126110000D02*
X94040000Y-126110000D01*
X102700000Y-127000000D02*
X100040000Y-127000000D01*
X103097071Y-127890000D02*
X102700000Y-127890000D01*
X103097071Y-128650000D02*
X102700000Y-128650000D01*
X94040000Y-127890000D02*
X100040000Y-127890000D01*
X94040000Y-128650000D02*
X94040000Y-127890000D01*
X100040000Y-128650000D02*
X94040000Y-128650000D01*
X102700000Y-129540000D02*
X100040000Y-129540000D01*
X103097071Y-130430000D02*
X102700000Y-130430000D01*
X103097071Y-131190000D02*
X102700000Y-131190000D01*
X94040000Y-130430000D02*
X100040000Y-130430000D01*
X94040000Y-131190000D02*
X94040000Y-130430000D01*
X100040000Y-131190000D02*
X94040000Y-131190000D01*
X102700000Y-132080000D02*
X100040000Y-132080000D01*
X103030000Y-132970000D02*
X102700000Y-132970000D01*
X103030000Y-133730000D02*
X102700000Y-133730000D01*
X100040000Y-133070000D02*
X94040000Y-133070000D01*
X100040000Y-133190000D02*
X94040000Y-133190000D01*
X100040000Y-133310000D02*
X94040000Y-133310000D01*
X100040000Y-133430000D02*
X94040000Y-133430000D01*
X100040000Y-133550000D02*
X94040000Y-133550000D01*
X100040000Y-133670000D02*
X94040000Y-133670000D01*
X94040000Y-132970000D02*
X100040000Y-132970000D01*
X94040000Y-133730000D02*
X94040000Y-132970000D01*
X100040000Y-133730000D02*
X94040000Y-133730000D01*
X100040000Y-134680000D02*
X102700000Y-134680000D01*
X100040000Y-124400000D02*
X100040000Y-134680000D01*
X102700000Y-124400000D02*
X100040000Y-124400000D01*
X102700000Y-134680000D02*
X102700000Y-124400000D01*
D13*
X123090000Y-132725000D02*
X123090000Y-133975000D01*
X120750000Y-133975000D02*
X120750000Y-132725000D01*
D14*
X122670000Y-131250000D02*
G75*
G03*
X122670000Y-131250000I-100000J0D01*
G01*
D12*
X112270000Y-125420000D02*
X112270000Y-126350000D01*
X112270000Y-128580000D02*
X112270000Y-127650000D01*
X112270000Y-128580000D02*
X114430000Y-128580000D01*
X112270000Y-125420000D02*
X113730000Y-125420000D01*
X119610000Y-126580000D02*
X117060000Y-126580000D01*
X119610000Y-124880000D02*
X117060000Y-124880000D01*
X119610000Y-126580000D02*
X119610000Y-124880000D01*
X112270000Y-131770000D02*
X113730000Y-131770000D01*
X112270000Y-134930000D02*
X114430000Y-134930000D01*
X112270000Y-134930000D02*
X112270000Y-134000000D01*
X112270000Y-131770000D02*
X112270000Y-132700000D01*
D13*
X119761000Y-127762000D02*
X119761000Y-128778000D01*
D12*
X137330000Y-124400000D02*
X137330000Y-134680000D01*
X137330000Y-134680000D02*
X139990000Y-134680000D01*
X139990000Y-134680000D02*
X139990000Y-124400000D01*
X139990000Y-124400000D02*
X137330000Y-124400000D01*
X139990000Y-125350000D02*
X145990000Y-125350000D01*
X145990000Y-125350000D02*
X145990000Y-126110000D01*
X145990000Y-126110000D02*
X139990000Y-126110000D01*
X139990000Y-125410000D02*
X145990000Y-125410000D01*
X139990000Y-125530000D02*
X145990000Y-125530000D01*
X139990000Y-125650000D02*
X145990000Y-125650000D01*
X139990000Y-125770000D02*
X145990000Y-125770000D01*
X139990000Y-125890000D02*
X145990000Y-125890000D01*
X139990000Y-126010000D02*
X145990000Y-126010000D01*
X137000000Y-125350000D02*
X137330000Y-125350000D01*
X137000000Y-126110000D02*
X137330000Y-126110000D01*
X137330000Y-127000000D02*
X139990000Y-127000000D01*
X139990000Y-127890000D02*
X145990000Y-127890000D01*
X145990000Y-127890000D02*
X145990000Y-128650000D01*
X145990000Y-128650000D02*
X139990000Y-128650000D01*
X136932929Y-127890000D02*
X137330000Y-127890000D01*
X136932929Y-128650000D02*
X137330000Y-128650000D01*
X137330000Y-129540000D02*
X139990000Y-129540000D01*
X139990000Y-130430000D02*
X145990000Y-130430000D01*
X145990000Y-130430000D02*
X145990000Y-131190000D01*
X145990000Y-131190000D02*
X139990000Y-131190000D01*
X136932929Y-130430000D02*
X137330000Y-130430000D01*
X136932929Y-131190000D02*
X137330000Y-131190000D01*
X137330000Y-132080000D02*
X139990000Y-132080000D01*
X139990000Y-132970000D02*
X145990000Y-132970000D01*
X145990000Y-132970000D02*
X145990000Y-133730000D01*
X145990000Y-133730000D02*
X139990000Y-133730000D01*
X136932929Y-132970000D02*
X137330000Y-132970000D01*
X136932929Y-133730000D02*
X137330000Y-133730000D01*
X134620000Y-125730000D02*
X134620000Y-124460000D01*
X134620000Y-124460000D02*
X135890000Y-124460000D01*
X122655000Y-127227064D02*
X122655000Y-126772936D01*
X121185000Y-127227064D02*
X121185000Y-126772936D01*
X109955000Y-126772936D02*
X109955000Y-127227064D01*
X108485000Y-126772936D02*
X108485000Y-127227064D01*
X109955000Y-133307064D02*
X109955000Y-132852936D01*
X108485000Y-133307064D02*
X108485000Y-132852936D01*
X118845000Y-133122936D02*
X118845000Y-133577064D01*
X117375000Y-133122936D02*
X117375000Y-133577064D01*
X128227064Y-135355000D02*
X127772936Y-135355000D01*
X128227064Y-133885000D02*
X127772936Y-133885000D01*
D14*
X126070000Y-133230000D02*
G75*
G03*
X126070000Y-133230000I-100000J0D01*
G01*
D13*
X125020000Y-126880000D02*
X126260000Y-126880000D01*
X125020000Y-130380000D02*
X125020000Y-126880000D01*
X131520000Y-126880000D02*
X130280000Y-126880000D01*
X131520000Y-130380000D02*
X131520000Y-126880000D01*
D15*
X102048571Y-136116190D02*
X102048571Y-135616190D01*
X102286666Y-135782857D02*
X102286666Y-136116190D01*
X102286666Y-135830476D02*
X102310476Y-135806666D01*
X102358095Y-135782857D01*
X102429523Y-135782857D01*
X102477142Y-135806666D01*
X102500952Y-135854285D01*
X102500952Y-136116190D01*
X102739047Y-135782857D02*
X102739047Y-136282857D01*
X102739047Y-135806666D02*
X102786666Y-135782857D01*
X102881904Y-135782857D01*
X102929523Y-135806666D01*
X102953333Y-135830476D01*
X102977142Y-135878095D01*
X102977142Y-136020952D01*
X102953333Y-136068571D01*
X102929523Y-136092380D01*
X102881904Y-136116190D01*
X102786666Y-136116190D01*
X102739047Y-136092380D01*
X103405714Y-135782857D02*
X103405714Y-136116190D01*
X103191428Y-135782857D02*
X103191428Y-136044761D01*
X103215238Y-136092380D01*
X103262857Y-136116190D01*
X103334285Y-136116190D01*
X103381904Y-136092380D01*
X103405714Y-136068571D01*
X103572380Y-135782857D02*
X103762857Y-135782857D01*
X103643809Y-135616190D02*
X103643809Y-136044761D01*
X103667619Y-136092380D01*
X103715238Y-136116190D01*
X103762857Y-136116190D01*
D10*
X121386666Y-135506666D02*
X121386666Y-136073333D01*
X121420000Y-136140000D01*
X121453333Y-136173333D01*
X121520000Y-136206666D01*
X121653333Y-136206666D01*
X121720000Y-136173333D01*
X121753333Y-136140000D01*
X121786666Y-136073333D01*
X121786666Y-135506666D01*
X122486666Y-136206666D02*
X122086666Y-136206666D01*
X122286666Y-136206666D02*
X122286666Y-135506666D01*
X122220000Y-135606666D01*
X122153333Y-135673333D01*
X122086666Y-135706666D01*
X112963333Y-129883333D02*
X112896666Y-129850000D01*
X112830000Y-129783333D01*
X112730000Y-129683333D01*
X112663333Y-129650000D01*
X112596666Y-129650000D01*
X112630000Y-129816666D02*
X112563333Y-129783333D01*
X112496666Y-129716666D01*
X112463333Y-129583333D01*
X112463333Y-129350000D01*
X112496666Y-129216666D01*
X112563333Y-129150000D01*
X112630000Y-129116666D01*
X112763333Y-129116666D01*
X112830000Y-129150000D01*
X112896666Y-129216666D01*
X112930000Y-129350000D01*
X112930000Y-129583333D01*
X112896666Y-129716666D01*
X112830000Y-129783333D01*
X112763333Y-129816666D01*
X112630000Y-129816666D01*
X113596666Y-129816666D02*
X113196666Y-129816666D01*
X113396666Y-129816666D02*
X113396666Y-129116666D01*
X113330000Y-129216666D01*
X113263333Y-129283333D01*
X113196666Y-129316666D01*
X115053333Y-126046666D02*
X115053333Y-125346666D01*
X115220000Y-125346666D01*
X115320000Y-125380000D01*
X115386666Y-125446666D01*
X115420000Y-125513333D01*
X115453333Y-125646666D01*
X115453333Y-125746666D01*
X115420000Y-125880000D01*
X115386666Y-125946666D01*
X115320000Y-126013333D01*
X115220000Y-126046666D01*
X115053333Y-126046666D01*
X116120000Y-126046666D02*
X115720000Y-126046666D01*
X115920000Y-126046666D02*
X115920000Y-125346666D01*
X115853333Y-125446666D01*
X115786666Y-125513333D01*
X115720000Y-125546666D01*
X112963333Y-136233333D02*
X112896666Y-136200000D01*
X112830000Y-136133333D01*
X112730000Y-136033333D01*
X112663333Y-136000000D01*
X112596666Y-136000000D01*
X112630000Y-136166666D02*
X112563333Y-136133333D01*
X112496666Y-136066666D01*
X112463333Y-135933333D01*
X112463333Y-135700000D01*
X112496666Y-135566666D01*
X112563333Y-135500000D01*
X112630000Y-135466666D01*
X112763333Y-135466666D01*
X112830000Y-135500000D01*
X112896666Y-135566666D01*
X112930000Y-135700000D01*
X112930000Y-135933333D01*
X112896666Y-136066666D01*
X112830000Y-136133333D01*
X112763333Y-136166666D01*
X112630000Y-136166666D01*
X113196666Y-135533333D02*
X113230000Y-135500000D01*
X113296666Y-135466666D01*
X113463333Y-135466666D01*
X113530000Y-135500000D01*
X113563333Y-135533333D01*
X113596666Y-135600000D01*
X113596666Y-135666666D01*
X113563333Y-135766666D01*
X113163333Y-136166666D01*
X113596666Y-136166666D01*
X115053333Y-128586666D02*
X115053333Y-127886666D01*
X115220000Y-127886666D01*
X115320000Y-127920000D01*
X115386666Y-127986666D01*
X115420000Y-128053333D01*
X115453333Y-128186666D01*
X115453333Y-128286666D01*
X115420000Y-128420000D01*
X115386666Y-128486666D01*
X115320000Y-128553333D01*
X115220000Y-128586666D01*
X115053333Y-128586666D01*
X115720000Y-127953333D02*
X115753333Y-127920000D01*
X115820000Y-127886666D01*
X115986666Y-127886666D01*
X116053333Y-127920000D01*
X116086666Y-127953333D01*
X116120000Y-128020000D01*
X116120000Y-128086666D01*
X116086666Y-128186666D01*
X115686666Y-128586666D01*
X116120000Y-128586666D01*
D15*
X134878095Y-135616190D02*
X134973333Y-135616190D01*
X135020952Y-135640000D01*
X135068571Y-135687619D01*
X135092380Y-135782857D01*
X135092380Y-135949523D01*
X135068571Y-136044761D01*
X135020952Y-136092380D01*
X134973333Y-136116190D01*
X134878095Y-136116190D01*
X134830476Y-136092380D01*
X134782857Y-136044761D01*
X134759047Y-135949523D01*
X134759047Y-135782857D01*
X134782857Y-135687619D01*
X134830476Y-135640000D01*
X134878095Y-135616190D01*
X135520952Y-135782857D02*
X135520952Y-136116190D01*
X135306666Y-135782857D02*
X135306666Y-136044761D01*
X135330476Y-136092380D01*
X135378095Y-136116190D01*
X135449523Y-136116190D01*
X135497142Y-136092380D01*
X135520952Y-136068571D01*
X135687619Y-135782857D02*
X135878095Y-135782857D01*
X135759047Y-135616190D02*
X135759047Y-136044761D01*
X135782857Y-136092380D01*
X135830476Y-136116190D01*
X135878095Y-136116190D01*
X136044761Y-135782857D02*
X136044761Y-136282857D01*
X136044761Y-135806666D02*
X136092380Y-135782857D01*
X136187619Y-135782857D01*
X136235238Y-135806666D01*
X136259047Y-135830476D01*
X136282857Y-135878095D01*
X136282857Y-136020952D01*
X136259047Y-136068571D01*
X136235238Y-136092380D01*
X136187619Y-136116190D01*
X136092380Y-136116190D01*
X136044761Y-136092380D01*
X136711428Y-135782857D02*
X136711428Y-136116190D01*
X136497142Y-135782857D02*
X136497142Y-136044761D01*
X136520952Y-136092380D01*
X136568571Y-136116190D01*
X136640000Y-136116190D01*
X136687619Y-136092380D01*
X136711428Y-136068571D01*
X136878095Y-135782857D02*
X137068571Y-135782857D01*
X136949523Y-135616190D02*
X136949523Y-136044761D01*
X136973333Y-136092380D01*
X137020952Y-136116190D01*
X137068571Y-136116190D01*
D10*
X121803333Y-129856666D02*
X121570000Y-129523333D01*
X121403333Y-129856666D02*
X121403333Y-129156666D01*
X121670000Y-129156666D01*
X121736666Y-129190000D01*
X121770000Y-129223333D01*
X121803333Y-129290000D01*
X121803333Y-129390000D01*
X121770000Y-129456666D01*
X121736666Y-129490000D01*
X121670000Y-129523333D01*
X121403333Y-129523333D01*
X122470000Y-129856666D02*
X122070000Y-129856666D01*
X122270000Y-129856666D02*
X122270000Y-129156666D01*
X122203333Y-129256666D01*
X122136666Y-129323333D01*
X122070000Y-129356666D01*
X109103333Y-129856666D02*
X108870000Y-129523333D01*
X108703333Y-129856666D02*
X108703333Y-129156666D01*
X108970000Y-129156666D01*
X109036666Y-129190000D01*
X109070000Y-129223333D01*
X109103333Y-129290000D01*
X109103333Y-129390000D01*
X109070000Y-129456666D01*
X109036666Y-129490000D01*
X108970000Y-129523333D01*
X108703333Y-129523333D01*
X109370000Y-129223333D02*
X109403333Y-129190000D01*
X109470000Y-129156666D01*
X109636666Y-129156666D01*
X109703333Y-129190000D01*
X109736666Y-129223333D01*
X109770000Y-129290000D01*
X109770000Y-129356666D01*
X109736666Y-129456666D01*
X109336666Y-129856666D01*
X109770000Y-129856666D01*
X109103333Y-136206666D02*
X108870000Y-135873333D01*
X108703333Y-136206666D02*
X108703333Y-135506666D01*
X108970000Y-135506666D01*
X109036666Y-135540000D01*
X109070000Y-135573333D01*
X109103333Y-135640000D01*
X109103333Y-135740000D01*
X109070000Y-135806666D01*
X109036666Y-135840000D01*
X108970000Y-135873333D01*
X108703333Y-135873333D01*
X109336666Y-135506666D02*
X109770000Y-135506666D01*
X109536666Y-135773333D01*
X109636666Y-135773333D01*
X109703333Y-135806666D01*
X109736666Y-135840000D01*
X109770000Y-135906666D01*
X109770000Y-136073333D01*
X109736666Y-136140000D01*
X109703333Y-136173333D01*
X109636666Y-136206666D01*
X109436666Y-136206666D01*
X109370000Y-136173333D01*
X109336666Y-136140000D01*
X117993333Y-136206666D02*
X117760000Y-135873333D01*
X117593333Y-136206666D02*
X117593333Y-135506666D01*
X117860000Y-135506666D01*
X117926666Y-135540000D01*
X117960000Y-135573333D01*
X117993333Y-135640000D01*
X117993333Y-135740000D01*
X117960000Y-135806666D01*
X117926666Y-135840000D01*
X117860000Y-135873333D01*
X117593333Y-135873333D01*
X118593333Y-135740000D02*
X118593333Y-136206666D01*
X118426666Y-135473333D02*
X118260000Y-135973333D01*
X118693333Y-135973333D01*
X127883333Y-136586666D02*
X127650000Y-136253333D01*
X127483333Y-136586666D02*
X127483333Y-135886666D01*
X127750000Y-135886666D01*
X127816666Y-135920000D01*
X127850000Y-135953333D01*
X127883333Y-136020000D01*
X127883333Y-136120000D01*
X127850000Y-136186666D01*
X127816666Y-136220000D01*
X127750000Y-136253333D01*
X127483333Y-136253333D01*
X128516666Y-135886666D02*
X128183333Y-135886666D01*
X128150000Y-136220000D01*
X128183333Y-136186666D01*
X128250000Y-136153333D01*
X128416666Y-136153333D01*
X128483333Y-136186666D01*
X128516666Y-136220000D01*
X128550000Y-136286666D01*
X128550000Y-136453333D01*
X128516666Y-136520000D01*
X128483333Y-136553333D01*
X128416666Y-136586666D01*
X128250000Y-136586666D01*
X128183333Y-136553333D01*
X128150000Y-136520000D01*
X125196666Y-125346666D02*
X125196666Y-125913333D01*
X125230000Y-125980000D01*
X125263333Y-126013333D01*
X125330000Y-126046666D01*
X125463333Y-126046666D01*
X125530000Y-126013333D01*
X125563333Y-125980000D01*
X125596666Y-125913333D01*
X125596666Y-125346666D01*
X125896666Y-125413333D02*
X125930000Y-125380000D01*
X125996666Y-125346666D01*
X126163333Y-125346666D01*
X126230000Y-125380000D01*
X126263333Y-125413333D01*
X126296666Y-125480000D01*
X126296666Y-125546666D01*
X126263333Y-125646666D01*
X125863333Y-126046666D01*
X126296666Y-126046666D01*
%LPC*%
G36*
G01*
X105040000Y-124880000D02*
X105040000Y-126580000D01*
G75*
G02*
X104990000Y-126630000I-50000J0D01*
G01*
X103290000Y-126630000D01*
G75*
G02*
X103240000Y-126580000I0J50000D01*
G01*
X103240000Y-124880000D01*
G75*
G02*
X103290000Y-124830000I50000J0D01*
G01*
X104990000Y-124830000D01*
G75*
G02*
X105040000Y-124880000I0J-50000D01*
G01*
G37*
D16*
X104140000Y-128270000D03*
X104140000Y-130810000D03*
G36*
G01*
X105040000Y-132500000D02*
X105040000Y-134200000D01*
G75*
G02*
X104990000Y-134250000I-50000J0D01*
G01*
X103290000Y-134250000D01*
G75*
G02*
X103240000Y-134200000I0J50000D01*
G01*
X103240000Y-132500000D01*
G75*
G02*
X103290000Y-132450000I50000J0D01*
G01*
X104990000Y-132450000D01*
G75*
G02*
X105040000Y-132500000I0J-50000D01*
G01*
G37*
G36*
G01*
X122345000Y-131745000D02*
X122795000Y-131745000D01*
G75*
G02*
X122820000Y-131770000I0J-25000D01*
G01*
X122820000Y-133010000D01*
G75*
G02*
X122795000Y-133035000I-25000J0D01*
G01*
X122345000Y-133035000D01*
G75*
G02*
X122320000Y-133010000I0J25000D01*
G01*
X122320000Y-131770000D01*
G75*
G02*
X122345000Y-131745000I25000J0D01*
G01*
G37*
G36*
G01*
X121695000Y-131745000D02*
X122145000Y-131745000D01*
G75*
G02*
X122170000Y-131770000I0J-25000D01*
G01*
X122170000Y-133010000D01*
G75*
G02*
X122145000Y-133035000I-25000J0D01*
G01*
X121695000Y-133035000D01*
G75*
G02*
X121670000Y-133010000I0J25000D01*
G01*
X121670000Y-131770000D01*
G75*
G02*
X121695000Y-131745000I25000J0D01*
G01*
G37*
G36*
G01*
X121045000Y-131745000D02*
X121495000Y-131745000D01*
G75*
G02*
X121520000Y-131770000I0J-25000D01*
G01*
X121520000Y-133010000D01*
G75*
G02*
X121495000Y-133035000I-25000J0D01*
G01*
X121045000Y-133035000D01*
G75*
G02*
X121020000Y-133010000I0J25000D01*
G01*
X121020000Y-131770000D01*
G75*
G02*
X121045000Y-131745000I25000J0D01*
G01*
G37*
G36*
G01*
X121045000Y-133665000D02*
X121495000Y-133665000D01*
G75*
G02*
X121520000Y-133690000I0J-25000D01*
G01*
X121520000Y-134930000D01*
G75*
G02*
X121495000Y-134955000I-25000J0D01*
G01*
X121045000Y-134955000D01*
G75*
G02*
X121020000Y-134930000I0J25000D01*
G01*
X121020000Y-133690000D01*
G75*
G02*
X121045000Y-133665000I25000J0D01*
G01*
G37*
G36*
G01*
X122345000Y-133665000D02*
X122795000Y-133665000D01*
G75*
G02*
X122820000Y-133690000I0J-25000D01*
G01*
X122820000Y-134930000D01*
G75*
G02*
X122795000Y-134955000I-25000J0D01*
G01*
X122345000Y-134955000D01*
G75*
G02*
X122320000Y-134930000I0J25000D01*
G01*
X122320000Y-133690000D01*
G75*
G02*
X122345000Y-133665000I25000J0D01*
G01*
G37*
G36*
G01*
X112530000Y-126600000D02*
X112530000Y-127400000D01*
G75*
G02*
X112480000Y-127450000I-50000J0D01*
G01*
X111580000Y-127450000D01*
G75*
G02*
X111530000Y-127400000I0J50000D01*
G01*
X111530000Y-126600000D01*
G75*
G02*
X111580000Y-126550000I50000J0D01*
G01*
X112480000Y-126550000D01*
G75*
G02*
X112530000Y-126600000I0J-50000D01*
G01*
G37*
G36*
G01*
X114530000Y-125650000D02*
X114530000Y-126450000D01*
G75*
G02*
X114480000Y-126500000I-50000J0D01*
G01*
X113580000Y-126500000D01*
G75*
G02*
X113530000Y-126450000I0J50000D01*
G01*
X113530000Y-125650000D01*
G75*
G02*
X113580000Y-125600000I50000J0D01*
G01*
X114480000Y-125600000D01*
G75*
G02*
X114530000Y-125650000I0J-50000D01*
G01*
G37*
G36*
G01*
X114530000Y-127550000D02*
X114530000Y-128350000D01*
G75*
G02*
X114480000Y-128400000I-50000J0D01*
G01*
X113580000Y-128400000D01*
G75*
G02*
X113530000Y-128350000I0J50000D01*
G01*
X113530000Y-127550000D01*
G75*
G02*
X113580000Y-127500000I50000J0D01*
G01*
X114480000Y-127500000D01*
G75*
G02*
X114530000Y-127550000I0J-50000D01*
G01*
G37*
G36*
G01*
X119510000Y-125505000D02*
X119510000Y-125955000D01*
G75*
G02*
X119460000Y-126005000I-50000J0D01*
G01*
X118860000Y-126005000D01*
G75*
G02*
X118810000Y-125955000I0J50000D01*
G01*
X118810000Y-125505000D01*
G75*
G02*
X118860000Y-125455000I50000J0D01*
G01*
X119460000Y-125455000D01*
G75*
G02*
X119510000Y-125505000I0J-50000D01*
G01*
G37*
G36*
G01*
X117410000Y-125505000D02*
X117410000Y-125955000D01*
G75*
G02*
X117360000Y-126005000I-50000J0D01*
G01*
X116760000Y-126005000D01*
G75*
G02*
X116710000Y-125955000I0J50000D01*
G01*
X116710000Y-125505000D01*
G75*
G02*
X116760000Y-125455000I50000J0D01*
G01*
X117360000Y-125455000D01*
G75*
G02*
X117410000Y-125505000I0J-50000D01*
G01*
G37*
G36*
G01*
X114530000Y-133900000D02*
X114530000Y-134700000D01*
G75*
G02*
X114480000Y-134750000I-50000J0D01*
G01*
X113580000Y-134750000D01*
G75*
G02*
X113530000Y-134700000I0J50000D01*
G01*
X113530000Y-133900000D01*
G75*
G02*
X113580000Y-133850000I50000J0D01*
G01*
X114480000Y-133850000D01*
G75*
G02*
X114530000Y-133900000I0J-50000D01*
G01*
G37*
G36*
G01*
X114530000Y-132000000D02*
X114530000Y-132800000D01*
G75*
G02*
X114480000Y-132850000I-50000J0D01*
G01*
X113580000Y-132850000D01*
G75*
G02*
X113530000Y-132800000I0J50000D01*
G01*
X113530000Y-132000000D01*
G75*
G02*
X113580000Y-131950000I50000J0D01*
G01*
X114480000Y-131950000D01*
G75*
G02*
X114530000Y-132000000I0J-50000D01*
G01*
G37*
G36*
G01*
X112530000Y-132950000D02*
X112530000Y-133750000D01*
G75*
G02*
X112480000Y-133800000I-50000J0D01*
G01*
X111580000Y-133800000D01*
G75*
G02*
X111530000Y-133750000I0J50000D01*
G01*
X111530000Y-132950000D01*
G75*
G02*
X111580000Y-132900000I50000J0D01*
G01*
X112480000Y-132900000D01*
G75*
G02*
X112530000Y-132950000I0J-50000D01*
G01*
G37*
G36*
G01*
X116660000Y-128770000D02*
X116660000Y-127770000D01*
G75*
G02*
X116710000Y-127720000I50000J0D01*
G01*
X117810000Y-127720000D01*
G75*
G02*
X117860000Y-127770000I0J-50000D01*
G01*
X117860000Y-128770000D01*
G75*
G02*
X117810000Y-128820000I-50000J0D01*
G01*
X116710000Y-128820000D01*
G75*
G02*
X116660000Y-128770000I0J50000D01*
G01*
G37*
G36*
G01*
X118360000Y-128770000D02*
X118360000Y-127770000D01*
G75*
G02*
X118410000Y-127720000I50000J0D01*
G01*
X119510000Y-127720000D01*
G75*
G02*
X119560000Y-127770000I0J-50000D01*
G01*
X119560000Y-128770000D01*
G75*
G02*
X119510000Y-128820000I-50000J0D01*
G01*
X118410000Y-128820000D01*
G75*
G02*
X118360000Y-128770000I0J50000D01*
G01*
G37*
G36*
G01*
X134990000Y-126580000D02*
X134990000Y-124880000D01*
G75*
G02*
X135040000Y-124830000I50000J0D01*
G01*
X136740000Y-124830000D01*
G75*
G02*
X136790000Y-124880000I0J-50000D01*
G01*
X136790000Y-126580000D01*
G75*
G02*
X136740000Y-126630000I-50000J0D01*
G01*
X135040000Y-126630000D01*
G75*
G02*
X134990000Y-126580000I0J50000D01*
G01*
G37*
X135890000Y-128270000D03*
X135890000Y-130810000D03*
X135890000Y-133350000D03*
G36*
G01*
X122399168Y-126650000D02*
X121440832Y-126650000D01*
G75*
G02*
X121170000Y-126379168I0J270832D01*
G01*
X121170000Y-125620832D01*
G75*
G02*
X121440832Y-125350000I270832J0D01*
G01*
X122399168Y-125350000D01*
G75*
G02*
X122670000Y-125620832I0J-270832D01*
G01*
X122670000Y-126379168D01*
G75*
G02*
X122399168Y-126650000I-270832J0D01*
G01*
G37*
G36*
G01*
X122399168Y-128650000D02*
X121440832Y-128650000D01*
G75*
G02*
X121170000Y-128379168I0J270832D01*
G01*
X121170000Y-127620832D01*
G75*
G02*
X121440832Y-127350000I270832J0D01*
G01*
X122399168Y-127350000D01*
G75*
G02*
X122670000Y-127620832I0J-270832D01*
G01*
X122670000Y-128379168D01*
G75*
G02*
X122399168Y-128650000I-270832J0D01*
G01*
G37*
G36*
G01*
X108740832Y-125350000D02*
X109699168Y-125350000D01*
G75*
G02*
X109970000Y-125620832I0J-270832D01*
G01*
X109970000Y-126379168D01*
G75*
G02*
X109699168Y-126650000I-270832J0D01*
G01*
X108740832Y-126650000D01*
G75*
G02*
X108470000Y-126379168I0J270832D01*
G01*
X108470000Y-125620832D01*
G75*
G02*
X108740832Y-125350000I270832J0D01*
G01*
G37*
G36*
G01*
X108740832Y-127350000D02*
X109699168Y-127350000D01*
G75*
G02*
X109970000Y-127620832I0J-270832D01*
G01*
X109970000Y-128379168D01*
G75*
G02*
X109699168Y-128650000I-270832J0D01*
G01*
X108740832Y-128650000D01*
G75*
G02*
X108470000Y-128379168I0J270832D01*
G01*
X108470000Y-127620832D01*
G75*
G02*
X108740832Y-127350000I270832J0D01*
G01*
G37*
G36*
G01*
X109699168Y-132730000D02*
X108740832Y-132730000D01*
G75*
G02*
X108470000Y-132459168I0J270832D01*
G01*
X108470000Y-131700832D01*
G75*
G02*
X108740832Y-131430000I270832J0D01*
G01*
X109699168Y-131430000D01*
G75*
G02*
X109970000Y-131700832I0J-270832D01*
G01*
X109970000Y-132459168D01*
G75*
G02*
X109699168Y-132730000I-270832J0D01*
G01*
G37*
G36*
G01*
X109699168Y-134730000D02*
X108740832Y-134730000D01*
G75*
G02*
X108470000Y-134459168I0J270832D01*
G01*
X108470000Y-133700832D01*
G75*
G02*
X108740832Y-133430000I270832J0D01*
G01*
X109699168Y-133430000D01*
G75*
G02*
X109970000Y-133700832I0J-270832D01*
G01*
X109970000Y-134459168D01*
G75*
G02*
X109699168Y-134730000I-270832J0D01*
G01*
G37*
G36*
G01*
X117630832Y-131700000D02*
X118589168Y-131700000D01*
G75*
G02*
X118860000Y-131970832I0J-270832D01*
G01*
X118860000Y-132729168D01*
G75*
G02*
X118589168Y-133000000I-270832J0D01*
G01*
X117630832Y-133000000D01*
G75*
G02*
X117360000Y-132729168I0J270832D01*
G01*
X117360000Y-131970832D01*
G75*
G02*
X117630832Y-131700000I270832J0D01*
G01*
G37*
G36*
G01*
X117630832Y-133700000D02*
X118589168Y-133700000D01*
G75*
G02*
X118860000Y-133970832I0J-270832D01*
G01*
X118860000Y-134729168D01*
G75*
G02*
X118589168Y-135000000I-270832J0D01*
G01*
X117630832Y-135000000D01*
G75*
G02*
X117360000Y-134729168I0J270832D01*
G01*
X117360000Y-133970832D01*
G75*
G02*
X117630832Y-133700000I270832J0D01*
G01*
G37*
G36*
G01*
X129650000Y-134140832D02*
X129650000Y-135099168D01*
G75*
G02*
X129379168Y-135370000I-270832J0D01*
G01*
X128620832Y-135370000D01*
G75*
G02*
X128350000Y-135099168I0J270832D01*
G01*
X128350000Y-134140832D01*
G75*
G02*
X128620832Y-133870000I270832J0D01*
G01*
X129379168Y-133870000D01*
G75*
G02*
X129650000Y-134140832I0J-270832D01*
G01*
G37*
G36*
G01*
X127650000Y-134140832D02*
X127650000Y-135099168D01*
G75*
G02*
X127379168Y-135370000I-270832J0D01*
G01*
X126620832Y-135370000D01*
G75*
G02*
X126350000Y-135099168I0J270832D01*
G01*
X126350000Y-134140832D01*
G75*
G02*
X126620832Y-133870000I270832J0D01*
G01*
X127379168Y-133870000D01*
G75*
G02*
X127650000Y-134140832I0J-270832D01*
G01*
G37*
G36*
G01*
X125445000Y-132605000D02*
X125445000Y-130455000D01*
G75*
G02*
X125495000Y-130405000I50000J0D01*
G01*
X126445000Y-130405000D01*
G75*
G02*
X126495000Y-130455000I0J-50000D01*
G01*
X126495000Y-132605000D01*
G75*
G02*
X126445000Y-132655000I-50000J0D01*
G01*
X125495000Y-132655000D01*
G75*
G02*
X125445000Y-132605000I0J50000D01*
G01*
G37*
G36*
G01*
X127745000Y-132605000D02*
X127745000Y-130455000D01*
G75*
G02*
X127795000Y-130405000I50000J0D01*
G01*
X128745000Y-130405000D01*
G75*
G02*
X128795000Y-130455000I0J-50000D01*
G01*
X128795000Y-132605000D01*
G75*
G02*
X128745000Y-132655000I-50000J0D01*
G01*
X127795000Y-132655000D01*
G75*
G02*
X127745000Y-132605000I0J50000D01*
G01*
G37*
G36*
G01*
X130045000Y-132605000D02*
X130045000Y-130455000D01*
G75*
G02*
X130095000Y-130405000I50000J0D01*
G01*
X131045000Y-130405000D01*
G75*
G02*
X131095000Y-130455000I0J-50000D01*
G01*
X131095000Y-132605000D01*
G75*
G02*
X131045000Y-132655000I-50000J0D01*
G01*
X130095000Y-132655000D01*
G75*
G02*
X130045000Y-132605000I0J50000D01*
G01*
G37*
G36*
G01*
X126595000Y-126805000D02*
X126595000Y-124655000D01*
G75*
G02*
X126645000Y-124605000I50000J0D01*
G01*
X129895000Y-124605000D01*
G75*
G02*
X129945000Y-124655000I0J-50000D01*
G01*
X129945000Y-126805000D01*
G75*
G02*
X129895000Y-126855000I-50000J0D01*
G01*
X126645000Y-126855000D01*
G75*
G02*
X126595000Y-126805000I0J50000D01*
G01*
G37*
M02*
