%FSLAX45Y45*%
G04 Gerber Fmt 4.5, Leading zero omitted, Abs format (unit mm)*
G04 Created by KiCad (PCBNEW (5.1.12)-1) date 2023-02-16 22:19:36*
%MOMM*%
%LPD*%
G01*
G04 APERTURE LIST*
%TA.AperFunction,Profile*%
%ADD10C,0.050000*%
%TD*%
%ADD11C,0.200000*%
%ADD12C,0.300000*%
G04 APERTURE END LIST*
D10*
X9970000Y-12319000D02*
X9970000Y-13819000D01*
X9970000Y-13819000D02*
X13970000Y-13819000D01*
X13970000Y-12319000D02*
X9970000Y-12319000D01*
X13970000Y-13819000D02*
X13970000Y-12319000D01*
D11*
X10364000Y-12523000D02*
X10464000Y-12623000D01*
X10464000Y-12523000D02*
X10364000Y-12623000D01*
X10364000Y-12777000D02*
X10464000Y-12877000D01*
X10464000Y-12777000D02*
X10364000Y-12877000D01*
X10364000Y-13031000D02*
X10464000Y-13131000D01*
X10464000Y-13031000D02*
X10364000Y-13131000D01*
X10364000Y-13285000D02*
X10464000Y-13385000D01*
X10464000Y-13285000D02*
X10364000Y-13385000D01*
X13539000Y-12523000D02*
X13639000Y-12623000D01*
X13639000Y-12523000D02*
X13539000Y-12623000D01*
X13539000Y-12777000D02*
X13639000Y-12877000D01*
X13639000Y-12777000D02*
X13539000Y-12877000D01*
X13539000Y-13031000D02*
X13639000Y-13131000D01*
X13639000Y-13031000D02*
X13539000Y-13131000D01*
X13539000Y-13285000D02*
X13639000Y-13385000D01*
X13639000Y-13285000D02*
X13539000Y-13385000D01*
D12*
X10253928Y-14287214D02*
X10253928Y-13987214D01*
X10325357Y-13987214D01*
X10368214Y-14001500D01*
X10396786Y-14030071D01*
X10411071Y-14058643D01*
X10425357Y-14115786D01*
X10425357Y-14158643D01*
X10411071Y-14215786D01*
X10396786Y-14244357D01*
X10368214Y-14272929D01*
X10325357Y-14287214D01*
X10253928Y-14287214D01*
X10553928Y-14287214D02*
X10553928Y-14087214D01*
X10553928Y-14144357D02*
X10568214Y-14115786D01*
X10582500Y-14101500D01*
X10611071Y-14087214D01*
X10639643Y-14087214D01*
X10739643Y-14287214D02*
X10739643Y-14087214D01*
X10739643Y-13987214D02*
X10725357Y-14001500D01*
X10739643Y-14015786D01*
X10753928Y-14001500D01*
X10739643Y-13987214D01*
X10739643Y-14015786D01*
X10925357Y-14287214D02*
X10896786Y-14272929D01*
X10882500Y-14244357D01*
X10882500Y-13987214D01*
X11082500Y-14287214D02*
X11053928Y-14272929D01*
X11039643Y-14244357D01*
X11039643Y-13987214D01*
X11425357Y-14287214D02*
X11425357Y-13987214D01*
X11525357Y-14201500D01*
X11625357Y-13987214D01*
X11625357Y-14287214D01*
X11896786Y-14287214D02*
X11896786Y-14130071D01*
X11882500Y-14101500D01*
X11853928Y-14087214D01*
X11796786Y-14087214D01*
X11768214Y-14101500D01*
X11896786Y-14272929D02*
X11868214Y-14287214D01*
X11796786Y-14287214D01*
X11768214Y-14272929D01*
X11753928Y-14244357D01*
X11753928Y-14215786D01*
X11768214Y-14187214D01*
X11796786Y-14172929D01*
X11868214Y-14172929D01*
X11896786Y-14158643D01*
X12039643Y-14087214D02*
X12039643Y-14387214D01*
X12039643Y-14101500D02*
X12068214Y-14087214D01*
X12125357Y-14087214D01*
X12153928Y-14101500D01*
X12168214Y-14115786D01*
X12182500Y-14144357D01*
X12182500Y-14230071D01*
X12168214Y-14258643D01*
X12153928Y-14272929D01*
X12125357Y-14287214D01*
X12068214Y-14287214D01*
X12039643Y-14272929D01*
X12311071Y-14258643D02*
X12325357Y-14272929D01*
X12311071Y-14287214D01*
X12296786Y-14272929D01*
X12311071Y-14258643D01*
X12311071Y-14287214D01*
X12311071Y-14101500D02*
X12325357Y-14115786D01*
X12311071Y-14130071D01*
X12296786Y-14115786D01*
X12311071Y-14101500D01*
X12311071Y-14130071D01*
X9867500Y-14731500D02*
X9967500Y-14831500D01*
X9967500Y-14731500D02*
X9867500Y-14831500D01*
X10411071Y-14917214D02*
X10239643Y-14917214D01*
X10325357Y-14917214D02*
X10325357Y-14617214D01*
X10296786Y-14660071D01*
X10268214Y-14688643D01*
X10239643Y-14702929D01*
X10539643Y-14888643D02*
X10553928Y-14902929D01*
X10539643Y-14917214D01*
X10525357Y-14902929D01*
X10539643Y-14888643D01*
X10539643Y-14917214D01*
X10739643Y-14617214D02*
X10768214Y-14617214D01*
X10796786Y-14631500D01*
X10811071Y-14645786D01*
X10825357Y-14674357D01*
X10839643Y-14731500D01*
X10839643Y-14802929D01*
X10825357Y-14860071D01*
X10811071Y-14888643D01*
X10796786Y-14902929D01*
X10768214Y-14917214D01*
X10739643Y-14917214D01*
X10711071Y-14902929D01*
X10696786Y-14888643D01*
X10682500Y-14860071D01*
X10668214Y-14802929D01*
X10668214Y-14731500D01*
X10682500Y-14674357D01*
X10696786Y-14645786D01*
X10711071Y-14631500D01*
X10739643Y-14617214D01*
X11025357Y-14617214D02*
X11053928Y-14617214D01*
X11082500Y-14631500D01*
X11096786Y-14645786D01*
X11111071Y-14674357D01*
X11125357Y-14731500D01*
X11125357Y-14802929D01*
X11111071Y-14860071D01*
X11096786Y-14888643D01*
X11082500Y-14902929D01*
X11053928Y-14917214D01*
X11025357Y-14917214D01*
X10996786Y-14902929D01*
X10982500Y-14888643D01*
X10968214Y-14860071D01*
X10953928Y-14802929D01*
X10953928Y-14731500D01*
X10968214Y-14674357D01*
X10982500Y-14645786D01*
X10996786Y-14631500D01*
X11025357Y-14617214D01*
X11311071Y-14617214D02*
X11339643Y-14617214D01*
X11368214Y-14631500D01*
X11382500Y-14645786D01*
X11396786Y-14674357D01*
X11411071Y-14731500D01*
X11411071Y-14802929D01*
X11396786Y-14860071D01*
X11382500Y-14888643D01*
X11368214Y-14902929D01*
X11339643Y-14917214D01*
X11311071Y-14917214D01*
X11282500Y-14902929D01*
X11268214Y-14888643D01*
X11253928Y-14860071D01*
X11239643Y-14802929D01*
X11239643Y-14731500D01*
X11253928Y-14674357D01*
X11268214Y-14645786D01*
X11282500Y-14631500D01*
X11311071Y-14617214D01*
X11539643Y-14917214D02*
X11539643Y-14717214D01*
X11539643Y-14745786D02*
X11553928Y-14731500D01*
X11582500Y-14717214D01*
X11625357Y-14717214D01*
X11653928Y-14731500D01*
X11668214Y-14760071D01*
X11668214Y-14917214D01*
X11668214Y-14760071D02*
X11682500Y-14731500D01*
X11711071Y-14717214D01*
X11753928Y-14717214D01*
X11782500Y-14731500D01*
X11796786Y-14760071D01*
X11796786Y-14917214D01*
X11939643Y-14917214D02*
X11939643Y-14717214D01*
X11939643Y-14745786D02*
X11953928Y-14731500D01*
X11982500Y-14717214D01*
X12025357Y-14717214D01*
X12053928Y-14731500D01*
X12068214Y-14760071D01*
X12068214Y-14917214D01*
X12068214Y-14760071D02*
X12082500Y-14731500D01*
X12111071Y-14717214D01*
X12153928Y-14717214D01*
X12182500Y-14731500D01*
X12196786Y-14760071D01*
X12196786Y-14917214D01*
X12782500Y-14602929D02*
X12525357Y-14988643D01*
X13168214Y-14617214D02*
X13196786Y-14617214D01*
X13225357Y-14631500D01*
X13239643Y-14645786D01*
X13253928Y-14674357D01*
X13268214Y-14731500D01*
X13268214Y-14802929D01*
X13253928Y-14860071D01*
X13239643Y-14888643D01*
X13225357Y-14902929D01*
X13196786Y-14917214D01*
X13168214Y-14917214D01*
X13139643Y-14902929D01*
X13125357Y-14888643D01*
X13111071Y-14860071D01*
X13096786Y-14802929D01*
X13096786Y-14731500D01*
X13111071Y-14674357D01*
X13125357Y-14645786D01*
X13139643Y-14631500D01*
X13168214Y-14617214D01*
X13396786Y-14888643D02*
X13411071Y-14902929D01*
X13396786Y-14917214D01*
X13382500Y-14902929D01*
X13396786Y-14888643D01*
X13396786Y-14917214D01*
X13596786Y-14617214D02*
X13625357Y-14617214D01*
X13653928Y-14631500D01*
X13668214Y-14645786D01*
X13682500Y-14674357D01*
X13696786Y-14731500D01*
X13696786Y-14802929D01*
X13682500Y-14860071D01*
X13668214Y-14888643D01*
X13653928Y-14902929D01*
X13625357Y-14917214D01*
X13596786Y-14917214D01*
X13568214Y-14902929D01*
X13553928Y-14888643D01*
X13539643Y-14860071D01*
X13525357Y-14802929D01*
X13525357Y-14731500D01*
X13539643Y-14674357D01*
X13553928Y-14645786D01*
X13568214Y-14631500D01*
X13596786Y-14617214D01*
X13796786Y-14617214D02*
X13982500Y-14617214D01*
X13882500Y-14731500D01*
X13925357Y-14731500D01*
X13953928Y-14745786D01*
X13968214Y-14760071D01*
X13982500Y-14788643D01*
X13982500Y-14860071D01*
X13968214Y-14888643D01*
X13953928Y-14902929D01*
X13925357Y-14917214D01*
X13839643Y-14917214D01*
X13811071Y-14902929D01*
X13796786Y-14888643D01*
X14125357Y-14917214D02*
X14182500Y-14917214D01*
X14211071Y-14902929D01*
X14225357Y-14888643D01*
X14253928Y-14845786D01*
X14268214Y-14788643D01*
X14268214Y-14674357D01*
X14253928Y-14645786D01*
X14239643Y-14631500D01*
X14211071Y-14617214D01*
X14153928Y-14617214D01*
X14125357Y-14631500D01*
X14111071Y-14645786D01*
X14096786Y-14674357D01*
X14096786Y-14745786D01*
X14111071Y-14774357D01*
X14125357Y-14788643D01*
X14153928Y-14802929D01*
X14211071Y-14802929D01*
X14239643Y-14788643D01*
X14253928Y-14774357D01*
X14268214Y-14745786D01*
X14525357Y-14717214D02*
X14525357Y-14917214D01*
X14453928Y-14602929D02*
X14382500Y-14817214D01*
X14568214Y-14817214D01*
X14668214Y-14617214D02*
X14668214Y-14674357D01*
X14782500Y-14617214D02*
X14782500Y-14674357D01*
X15225357Y-15031500D02*
X15211071Y-15017214D01*
X15182500Y-14974357D01*
X15168214Y-14945786D01*
X15153928Y-14902929D01*
X15139643Y-14831500D01*
X15139643Y-14774357D01*
X15153928Y-14702929D01*
X15168214Y-14660071D01*
X15182500Y-14631500D01*
X15211071Y-14588643D01*
X15225357Y-14574357D01*
X15382500Y-14745786D02*
X15353928Y-14731500D01*
X15339643Y-14717214D01*
X15325357Y-14688643D01*
X15325357Y-14674357D01*
X15339643Y-14645786D01*
X15353928Y-14631500D01*
X15382500Y-14617214D01*
X15439643Y-14617214D01*
X15468214Y-14631500D01*
X15482500Y-14645786D01*
X15496786Y-14674357D01*
X15496786Y-14688643D01*
X15482500Y-14717214D01*
X15468214Y-14731500D01*
X15439643Y-14745786D01*
X15382500Y-14745786D01*
X15353928Y-14760071D01*
X15339643Y-14774357D01*
X15325357Y-14802929D01*
X15325357Y-14860071D01*
X15339643Y-14888643D01*
X15353928Y-14902929D01*
X15382500Y-14917214D01*
X15439643Y-14917214D01*
X15468214Y-14902929D01*
X15482500Y-14888643D01*
X15496786Y-14860071D01*
X15496786Y-14802929D01*
X15482500Y-14774357D01*
X15468214Y-14760071D01*
X15439643Y-14745786D01*
X15853928Y-14917214D02*
X15853928Y-14617214D01*
X15982500Y-14917214D02*
X15982500Y-14760071D01*
X15968214Y-14731500D01*
X15939643Y-14717214D01*
X15896786Y-14717214D01*
X15868214Y-14731500D01*
X15853928Y-14745786D01*
X16168214Y-14917214D02*
X16139643Y-14902929D01*
X16125357Y-14888643D01*
X16111071Y-14860071D01*
X16111071Y-14774357D01*
X16125357Y-14745786D01*
X16139643Y-14731500D01*
X16168214Y-14717214D01*
X16211071Y-14717214D01*
X16239643Y-14731500D01*
X16253928Y-14745786D01*
X16268214Y-14774357D01*
X16268214Y-14860071D01*
X16253928Y-14888643D01*
X16239643Y-14902929D01*
X16211071Y-14917214D01*
X16168214Y-14917214D01*
X16439643Y-14917214D02*
X16411071Y-14902929D01*
X16396786Y-14874357D01*
X16396786Y-14617214D01*
X16668214Y-14902929D02*
X16639643Y-14917214D01*
X16582500Y-14917214D01*
X16553928Y-14902929D01*
X16539643Y-14874357D01*
X16539643Y-14760071D01*
X16553928Y-14731500D01*
X16582500Y-14717214D01*
X16639643Y-14717214D01*
X16668214Y-14731500D01*
X16682500Y-14760071D01*
X16682500Y-14788643D01*
X16539643Y-14817214D01*
X16796786Y-14902929D02*
X16825357Y-14917214D01*
X16882500Y-14917214D01*
X16911071Y-14902929D01*
X16925357Y-14874357D01*
X16925357Y-14860071D01*
X16911071Y-14831500D01*
X16882500Y-14817214D01*
X16839643Y-14817214D01*
X16811071Y-14802929D01*
X16796786Y-14774357D01*
X16796786Y-14760071D01*
X16811071Y-14731500D01*
X16839643Y-14717214D01*
X16882500Y-14717214D01*
X16911071Y-14731500D01*
X17025357Y-15031500D02*
X17039643Y-15017214D01*
X17068214Y-14974357D01*
X17082500Y-14945786D01*
X17096786Y-14902929D01*
X17111071Y-14831500D01*
X17111071Y-14774357D01*
X17096786Y-14702929D01*
X17082500Y-14660071D01*
X17068214Y-14631500D01*
X17039643Y-14588643D01*
X17025357Y-14574357D01*
M02*
