%FSLAX45Y45*%
G04 Gerber Fmt 4.5, Leading zero omitted, Abs format (unit mm)*
G04 Created by KiCad (PCBNEW (5.1.12)-1) date 2023-02-16 22:19:36*
%MOMM*%
%LPD*%
G01*
G04 APERTURE LIST*
%TA.AperFunction,Profile*%
%ADD10C,0.050000*%
%TD*%
%ADD11C,0.200000*%
%ADD12C,0.300000*%
G04 APERTURE END LIST*
D10*
X9970000Y-12319000D02*
X9970000Y-13819000D01*
X9970000Y-13819000D02*
X13970000Y-13819000D01*
X13970000Y-12319000D02*
X9970000Y-12319000D01*
X13970000Y-13819000D02*
X13970000Y-12319000D01*
D11*
D12*
X10253928Y-14287214D02*
X10253928Y-13987214D01*
X10325357Y-13987214D01*
X10368214Y-14001500D01*
X10396786Y-14030071D01*
X10411071Y-14058643D01*
X10425357Y-14115786D01*
X10425357Y-14158643D01*
X10411071Y-14215786D01*
X10396786Y-14244357D01*
X10368214Y-14272929D01*
X10325357Y-14287214D01*
X10253928Y-14287214D01*
X10553928Y-14287214D02*
X10553928Y-14087214D01*
X10553928Y-14144357D02*
X10568214Y-14115786D01*
X10582500Y-14101500D01*
X10611071Y-14087214D01*
X10639643Y-14087214D01*
X10739643Y-14287214D02*
X10739643Y-14087214D01*
X10739643Y-13987214D02*
X10725357Y-14001500D01*
X10739643Y-14015786D01*
X10753928Y-14001500D01*
X10739643Y-13987214D01*
X10739643Y-14015786D01*
X10925357Y-14287214D02*
X10896786Y-14272929D01*
X10882500Y-14244357D01*
X10882500Y-13987214D01*
X11082500Y-14287214D02*
X11053928Y-14272929D01*
X11039643Y-14244357D01*
X11039643Y-13987214D01*
X11425357Y-14287214D02*
X11425357Y-13987214D01*
X11525357Y-14201500D01*
X11625357Y-13987214D01*
X11625357Y-14287214D01*
X11896786Y-14287214D02*
X11896786Y-14130071D01*
X11882500Y-14101500D01*
X11853928Y-14087214D01*
X11796786Y-14087214D01*
X11768214Y-14101500D01*
X11896786Y-14272929D02*
X11868214Y-14287214D01*
X11796786Y-14287214D01*
X11768214Y-14272929D01*
X11753928Y-14244357D01*
X11753928Y-14215786D01*
X11768214Y-14187214D01*
X11796786Y-14172929D01*
X11868214Y-14172929D01*
X11896786Y-14158643D01*
X12039643Y-14087214D02*
X12039643Y-14387214D01*
X12039643Y-14101500D02*
X12068214Y-14087214D01*
X12125357Y-14087214D01*
X12153928Y-14101500D01*
X12168214Y-14115786D01*
X12182500Y-14144357D01*
X12182500Y-14230071D01*
X12168214Y-14258643D01*
X12153928Y-14272929D01*
X12125357Y-14287214D01*
X12068214Y-14287214D01*
X12039643Y-14272929D01*
X12311071Y-14258643D02*
X12325357Y-14272929D01*
X12311071Y-14287214D01*
X12296786Y-14272929D01*
X12311071Y-14258643D01*
X12311071Y-14287214D01*
X12311071Y-14101500D02*
X12325357Y-14115786D01*
X12311071Y-14130071D01*
X12296786Y-14115786D01*
X12311071Y-14101500D01*
X12311071Y-14130071D01*
M02*
