G04 #@! TF.GenerationSoftware,KiCad,Pcbnew,(5.1.12)-1*
G04 #@! TF.CreationDate,2023-02-16T22:18:36+00:00*
G04 #@! TF.ProjectId,battery,62617474-6572-4792-9e6b-696361645f70,v01*
G04 #@! TF.SameCoordinates,Original*
G04 #@! TF.FileFunction,Soldermask,Top*
G04 #@! TF.FilePolarity,Negative*
%FSLAX46Y46*%
G04 Gerber Fmt 4.6, Leading zero omitted, Abs format (unit mm)*
G04 Created by KiCad (PCBNEW (5.1.12)-1) date 2023-02-16 22:18:36*
%MOMM*%
%LPD*%
G01*
G04 APERTURE LIST*
%ADD10O,1.800000X1.800000*%
G04 APERTURE END LIST*
G36*
G01*
X105040000Y-124880000D02*
X105040000Y-126580000D01*
G75*
G02*
X104990000Y-126630000I-50000J0D01*
G01*
X103290000Y-126630000D01*
G75*
G02*
X103240000Y-126580000I0J50000D01*
G01*
X103240000Y-124880000D01*
G75*
G02*
X103290000Y-124830000I50000J0D01*
G01*
X104990000Y-124830000D01*
G75*
G02*
X105040000Y-124880000I0J-50000D01*
G01*
G37*
D10*
X104140000Y-128270000D03*
X104140000Y-130810000D03*
G36*
G01*
X105040000Y-132500000D02*
X105040000Y-134200000D01*
G75*
G02*
X104990000Y-134250000I-50000J0D01*
G01*
X103290000Y-134250000D01*
G75*
G02*
X103240000Y-134200000I0J50000D01*
G01*
X103240000Y-132500000D01*
G75*
G02*
X103290000Y-132450000I50000J0D01*
G01*
X104990000Y-132450000D01*
G75*
G02*
X105040000Y-132500000I0J-50000D01*
G01*
G37*
G36*
G01*
X122345000Y-131745000D02*
X122795000Y-131745000D01*
G75*
G02*
X122820000Y-131770000I0J-25000D01*
G01*
X122820000Y-133010000D01*
G75*
G02*
X122795000Y-133035000I-25000J0D01*
G01*
X122345000Y-133035000D01*
G75*
G02*
X122320000Y-133010000I0J25000D01*
G01*
X122320000Y-131770000D01*
G75*
G02*
X122345000Y-131745000I25000J0D01*
G01*
G37*
G36*
G01*
X121695000Y-131745000D02*
X122145000Y-131745000D01*
G75*
G02*
X122170000Y-131770000I0J-25000D01*
G01*
X122170000Y-133010000D01*
G75*
G02*
X122145000Y-133035000I-25000J0D01*
G01*
X121695000Y-133035000D01*
G75*
G02*
X121670000Y-133010000I0J25000D01*
G01*
X121670000Y-131770000D01*
G75*
G02*
X121695000Y-131745000I25000J0D01*
G01*
G37*
G36*
G01*
X121045000Y-131745000D02*
X121495000Y-131745000D01*
G75*
G02*
X121520000Y-131770000I0J-25000D01*
G01*
X121520000Y-133010000D01*
G75*
G02*
X121495000Y-133035000I-25000J0D01*
G01*
X121045000Y-133035000D01*
G75*
G02*
X121020000Y-133010000I0J25000D01*
G01*
X121020000Y-131770000D01*
G75*
G02*
X121045000Y-131745000I25000J0D01*
G01*
G37*
G36*
G01*
X121045000Y-133665000D02*
X121495000Y-133665000D01*
G75*
G02*
X121520000Y-133690000I0J-25000D01*
G01*
X121520000Y-134930000D01*
G75*
G02*
X121495000Y-134955000I-25000J0D01*
G01*
X121045000Y-134955000D01*
G75*
G02*
X121020000Y-134930000I0J25000D01*
G01*
X121020000Y-133690000D01*
G75*
G02*
X121045000Y-133665000I25000J0D01*
G01*
G37*
G36*
G01*
X122345000Y-133665000D02*
X122795000Y-133665000D01*
G75*
G02*
X122820000Y-133690000I0J-25000D01*
G01*
X122820000Y-134930000D01*
G75*
G02*
X122795000Y-134955000I-25000J0D01*
G01*
X122345000Y-134955000D01*
G75*
G02*
X122320000Y-134930000I0J25000D01*
G01*
X122320000Y-133690000D01*
G75*
G02*
X122345000Y-133665000I25000J0D01*
G01*
G37*
G36*
G01*
X112530000Y-126600000D02*
X112530000Y-127400000D01*
G75*
G02*
X112480000Y-127450000I-50000J0D01*
G01*
X111580000Y-127450000D01*
G75*
G02*
X111530000Y-127400000I0J50000D01*
G01*
X111530000Y-126600000D01*
G75*
G02*
X111580000Y-126550000I50000J0D01*
G01*
X112480000Y-126550000D01*
G75*
G02*
X112530000Y-126600000I0J-50000D01*
G01*
G37*
G36*
G01*
X114530000Y-125650000D02*
X114530000Y-126450000D01*
G75*
G02*
X114480000Y-126500000I-50000J0D01*
G01*
X113580000Y-126500000D01*
G75*
G02*
X113530000Y-126450000I0J50000D01*
G01*
X113530000Y-125650000D01*
G75*
G02*
X113580000Y-125600000I50000J0D01*
G01*
X114480000Y-125600000D01*
G75*
G02*
X114530000Y-125650000I0J-50000D01*
G01*
G37*
G36*
G01*
X114530000Y-127550000D02*
X114530000Y-128350000D01*
G75*
G02*
X114480000Y-128400000I-50000J0D01*
G01*
X113580000Y-128400000D01*
G75*
G02*
X113530000Y-128350000I0J50000D01*
G01*
X113530000Y-127550000D01*
G75*
G02*
X113580000Y-127500000I50000J0D01*
G01*
X114480000Y-127500000D01*
G75*
G02*
X114530000Y-127550000I0J-50000D01*
G01*
G37*
G36*
G01*
X119510000Y-125505000D02*
X119510000Y-125955000D01*
G75*
G02*
X119460000Y-126005000I-50000J0D01*
G01*
X118860000Y-126005000D01*
G75*
G02*
X118810000Y-125955000I0J50000D01*
G01*
X118810000Y-125505000D01*
G75*
G02*
X118860000Y-125455000I50000J0D01*
G01*
X119460000Y-125455000D01*
G75*
G02*
X119510000Y-125505000I0J-50000D01*
G01*
G37*
G36*
G01*
X117410000Y-125505000D02*
X117410000Y-125955000D01*
G75*
G02*
X117360000Y-126005000I-50000J0D01*
G01*
X116760000Y-126005000D01*
G75*
G02*
X116710000Y-125955000I0J50000D01*
G01*
X116710000Y-125505000D01*
G75*
G02*
X116760000Y-125455000I50000J0D01*
G01*
X117360000Y-125455000D01*
G75*
G02*
X117410000Y-125505000I0J-50000D01*
G01*
G37*
G36*
G01*
X114530000Y-133900000D02*
X114530000Y-134700000D01*
G75*
G02*
X114480000Y-134750000I-50000J0D01*
G01*
X113580000Y-134750000D01*
G75*
G02*
X113530000Y-134700000I0J50000D01*
G01*
X113530000Y-133900000D01*
G75*
G02*
X113580000Y-133850000I50000J0D01*
G01*
X114480000Y-133850000D01*
G75*
G02*
X114530000Y-133900000I0J-50000D01*
G01*
G37*
G36*
G01*
X114530000Y-132000000D02*
X114530000Y-132800000D01*
G75*
G02*
X114480000Y-132850000I-50000J0D01*
G01*
X113580000Y-132850000D01*
G75*
G02*
X113530000Y-132800000I0J50000D01*
G01*
X113530000Y-132000000D01*
G75*
G02*
X113580000Y-131950000I50000J0D01*
G01*
X114480000Y-131950000D01*
G75*
G02*
X114530000Y-132000000I0J-50000D01*
G01*
G37*
G36*
G01*
X112530000Y-132950000D02*
X112530000Y-133750000D01*
G75*
G02*
X112480000Y-133800000I-50000J0D01*
G01*
X111580000Y-133800000D01*
G75*
G02*
X111530000Y-133750000I0J50000D01*
G01*
X111530000Y-132950000D01*
G75*
G02*
X111580000Y-132900000I50000J0D01*
G01*
X112480000Y-132900000D01*
G75*
G02*
X112530000Y-132950000I0J-50000D01*
G01*
G37*
G36*
G01*
X116660000Y-128770000D02*
X116660000Y-127770000D01*
G75*
G02*
X116710000Y-127720000I50000J0D01*
G01*
X117810000Y-127720000D01*
G75*
G02*
X117860000Y-127770000I0J-50000D01*
G01*
X117860000Y-128770000D01*
G75*
G02*
X117810000Y-128820000I-50000J0D01*
G01*
X116710000Y-128820000D01*
G75*
G02*
X116660000Y-128770000I0J50000D01*
G01*
G37*
G36*
G01*
X118360000Y-128770000D02*
X118360000Y-127770000D01*
G75*
G02*
X118410000Y-127720000I50000J0D01*
G01*
X119510000Y-127720000D01*
G75*
G02*
X119560000Y-127770000I0J-50000D01*
G01*
X119560000Y-128770000D01*
G75*
G02*
X119510000Y-128820000I-50000J0D01*
G01*
X118410000Y-128820000D01*
G75*
G02*
X118360000Y-128770000I0J50000D01*
G01*
G37*
G36*
G01*
X134990000Y-126580000D02*
X134990000Y-124880000D01*
G75*
G02*
X135040000Y-124830000I50000J0D01*
G01*
X136740000Y-124830000D01*
G75*
G02*
X136790000Y-124880000I0J-50000D01*
G01*
X136790000Y-126580000D01*
G75*
G02*
X136740000Y-126630000I-50000J0D01*
G01*
X135040000Y-126630000D01*
G75*
G02*
X134990000Y-126580000I0J50000D01*
G01*
G37*
X135890000Y-128270000D03*
X135890000Y-130810000D03*
X135890000Y-133350000D03*
G36*
G01*
X122399168Y-126650000D02*
X121440832Y-126650000D01*
G75*
G02*
X121170000Y-126379168I0J270832D01*
G01*
X121170000Y-125620832D01*
G75*
G02*
X121440832Y-125350000I270832J0D01*
G01*
X122399168Y-125350000D01*
G75*
G02*
X122670000Y-125620832I0J-270832D01*
G01*
X122670000Y-126379168D01*
G75*
G02*
X122399168Y-126650000I-270832J0D01*
G01*
G37*
G36*
G01*
X122399168Y-128650000D02*
X121440832Y-128650000D01*
G75*
G02*
X121170000Y-128379168I0J270832D01*
G01*
X121170000Y-127620832D01*
G75*
G02*
X121440832Y-127350000I270832J0D01*
G01*
X122399168Y-127350000D01*
G75*
G02*
X122670000Y-127620832I0J-270832D01*
G01*
X122670000Y-128379168D01*
G75*
G02*
X122399168Y-128650000I-270832J0D01*
G01*
G37*
G36*
G01*
X108740832Y-125350000D02*
X109699168Y-125350000D01*
G75*
G02*
X109970000Y-125620832I0J-270832D01*
G01*
X109970000Y-126379168D01*
G75*
G02*
X109699168Y-126650000I-270832J0D01*
G01*
X108740832Y-126650000D01*
G75*
G02*
X108470000Y-126379168I0J270832D01*
G01*
X108470000Y-125620832D01*
G75*
G02*
X108740832Y-125350000I270832J0D01*
G01*
G37*
G36*
G01*
X108740832Y-127350000D02*
X109699168Y-127350000D01*
G75*
G02*
X109970000Y-127620832I0J-270832D01*
G01*
X109970000Y-128379168D01*
G75*
G02*
X109699168Y-128650000I-270832J0D01*
G01*
X108740832Y-128650000D01*
G75*
G02*
X108470000Y-128379168I0J270832D01*
G01*
X108470000Y-127620832D01*
G75*
G02*
X108740832Y-127350000I270832J0D01*
G01*
G37*
G36*
G01*
X109699168Y-132730000D02*
X108740832Y-132730000D01*
G75*
G02*
X108470000Y-132459168I0J270832D01*
G01*
X108470000Y-131700832D01*
G75*
G02*
X108740832Y-131430000I270832J0D01*
G01*
X109699168Y-131430000D01*
G75*
G02*
X109970000Y-131700832I0J-270832D01*
G01*
X109970000Y-132459168D01*
G75*
G02*
X109699168Y-132730000I-270832J0D01*
G01*
G37*
G36*
G01*
X109699168Y-134730000D02*
X108740832Y-134730000D01*
G75*
G02*
X108470000Y-134459168I0J270832D01*
G01*
X108470000Y-133700832D01*
G75*
G02*
X108740832Y-133430000I270832J0D01*
G01*
X109699168Y-133430000D01*
G75*
G02*
X109970000Y-133700832I0J-270832D01*
G01*
X109970000Y-134459168D01*
G75*
G02*
X109699168Y-134730000I-270832J0D01*
G01*
G37*
G36*
G01*
X117630832Y-131700000D02*
X118589168Y-131700000D01*
G75*
G02*
X118860000Y-131970832I0J-270832D01*
G01*
X118860000Y-132729168D01*
G75*
G02*
X118589168Y-133000000I-270832J0D01*
G01*
X117630832Y-133000000D01*
G75*
G02*
X117360000Y-132729168I0J270832D01*
G01*
X117360000Y-131970832D01*
G75*
G02*
X117630832Y-131700000I270832J0D01*
G01*
G37*
G36*
G01*
X117630832Y-133700000D02*
X118589168Y-133700000D01*
G75*
G02*
X118860000Y-133970832I0J-270832D01*
G01*
X118860000Y-134729168D01*
G75*
G02*
X118589168Y-135000000I-270832J0D01*
G01*
X117630832Y-135000000D01*
G75*
G02*
X117360000Y-134729168I0J270832D01*
G01*
X117360000Y-133970832D01*
G75*
G02*
X117630832Y-133700000I270832J0D01*
G01*
G37*
G36*
G01*
X129650000Y-134140832D02*
X129650000Y-135099168D01*
G75*
G02*
X129379168Y-135370000I-270832J0D01*
G01*
X128620832Y-135370000D01*
G75*
G02*
X128350000Y-135099168I0J270832D01*
G01*
X128350000Y-134140832D01*
G75*
G02*
X128620832Y-133870000I270832J0D01*
G01*
X129379168Y-133870000D01*
G75*
G02*
X129650000Y-134140832I0J-270832D01*
G01*
G37*
G36*
G01*
X127650000Y-134140832D02*
X127650000Y-135099168D01*
G75*
G02*
X127379168Y-135370000I-270832J0D01*
G01*
X126620832Y-135370000D01*
G75*
G02*
X126350000Y-135099168I0J270832D01*
G01*
X126350000Y-134140832D01*
G75*
G02*
X126620832Y-133870000I270832J0D01*
G01*
X127379168Y-133870000D01*
G75*
G02*
X127650000Y-134140832I0J-270832D01*
G01*
G37*
G36*
G01*
X125445000Y-132605000D02*
X125445000Y-130455000D01*
G75*
G02*
X125495000Y-130405000I50000J0D01*
G01*
X126445000Y-130405000D01*
G75*
G02*
X126495000Y-130455000I0J-50000D01*
G01*
X126495000Y-132605000D01*
G75*
G02*
X126445000Y-132655000I-50000J0D01*
G01*
X125495000Y-132655000D01*
G75*
G02*
X125445000Y-132605000I0J50000D01*
G01*
G37*
G36*
G01*
X127745000Y-132605000D02*
X127745000Y-130455000D01*
G75*
G02*
X127795000Y-130405000I50000J0D01*
G01*
X128745000Y-130405000D01*
G75*
G02*
X128795000Y-130455000I0J-50000D01*
G01*
X128795000Y-132605000D01*
G75*
G02*
X128745000Y-132655000I-50000J0D01*
G01*
X127795000Y-132655000D01*
G75*
G02*
X127745000Y-132605000I0J50000D01*
G01*
G37*
G36*
G01*
X130045000Y-132605000D02*
X130045000Y-130455000D01*
G75*
G02*
X130095000Y-130405000I50000J0D01*
G01*
X131045000Y-130405000D01*
G75*
G02*
X131095000Y-130455000I0J-50000D01*
G01*
X131095000Y-132605000D01*
G75*
G02*
X131045000Y-132655000I-50000J0D01*
G01*
X130095000Y-132655000D01*
G75*
G02*
X130045000Y-132605000I0J50000D01*
G01*
G37*
G36*
G01*
X126595000Y-126805000D02*
X126595000Y-124655000D01*
G75*
G02*
X126645000Y-124605000I50000J0D01*
G01*
X129895000Y-124605000D01*
G75*
G02*
X129945000Y-124655000I0J-50000D01*
G01*
X129945000Y-126805000D01*
G75*
G02*
X129895000Y-126855000I-50000J0D01*
G01*
X126645000Y-126855000D01*
G75*
G02*
X126595000Y-126805000I0J50000D01*
G01*
G37*
M02*
