M48
; DRILL file {KiCad (6.0.9)} date Wed Feb  1 14:52:12 2023
; FORMAT={-:-/ absolute / metric / decimal}
; #@! TF.CreationDate,2023-02-01T14:52:12+00:00
; #@! TF.GenerationSoftware,Kicad,Pcbnew,(6.0.9)
; #@! TF.FileFunction,Plated,1,2,PTH
FMAT,2
METRIC
; #@! TA.AperFunction,Plated,PTH,ViaDrill
T1C0.250
; #@! TA.AperFunction,Plated,PTH,ComponentDrill
T2C0.400
; #@! TA.AperFunction,Plated,PTH,ComponentDrill
T3C0.800
; #@! TA.AperFunction,Plated,PTH,ComponentDrill
T4C1.000
; #@! TA.AperFunction,Plated,PTH,ComponentDrill
T5C2.200
%
G90
G05
T1
X122.33Y-73.68
X122.7Y-89.31
X123.04Y-91.6
X123.1Y-70.99
X125.9Y-68.91
X126.65Y-89.36
X126.725Y-73.985
X127.15Y-87.01
X129.31Y-51.46
X129.94Y-76.36
X130.65Y-80.835
X132.57Y-72.01
X133.45Y-51.49
X134.05Y-49.07
X134.68Y-47.8
X135.93Y-77.05
X136.25Y-70.81
X137.5Y-65.8
X137.51Y-51.46
X137.55Y-72.61
X138.8Y-63.2
X140.25Y-88.01
X140.3Y-75.65
X140.81Y-50.23
X140.87Y-47.81
X141.53Y-71.5
X143.42Y-53.15
X143.5Y-63.2
X144.93Y-78.03
X148.0Y-57.4
X148.05Y-87.56
X148.12Y-49.82
X148.37Y-50.95
X150.1Y-47.83
X152.05Y-88.81
X153.3Y-80.51
X154.4Y-69.71
X154.4Y-80.21
X155.1Y-66.91
X155.67Y-50.95
X156.54Y-76.89
X158.15Y-86.08
X158.6Y-73.81
X159.34Y-50.63
X160.18Y-72.46
X160.42Y-47.79
X160.7Y-74.51
X161.77Y-68.17
X161.95Y-52.91
X162.2Y-80.39
X163.03Y-67.26
X163.89Y-66.26
X164.29Y-86.14
X165.07Y-76.02
X165.39Y-70.86
X165.7Y-92.26
X166.06Y-66.11
X166.11Y-90.1
X166.27Y-69.71
X166.62Y-74.54
X166.844Y-71.005
X166.89Y-64.28
X167.01Y-77.03
X167.87Y-78.01
X167.95Y-64.95
X168.05Y-57.53
X168.86Y-74.11
X169.22Y-75.91
X169.65Y-80.01
X169.66Y-57.5
X169.85Y-78.61
X170.55Y-90.26
X170.61Y-73.91
X170.65Y-69.36
X172.36Y-80.2
X172.66Y-86.07
X173.22Y-57.48
X173.34Y-79.64
X173.48Y-81.03
X173.79Y-70.26
X174.09Y-74.91
X174.16Y-79.21
X174.25Y-87.23
X174.35Y-67.133
X174.77Y-81.21
X174.94Y-57.44
X175.28Y-88.13
X175.33Y-75.85
X176.39Y-81.09
X176.58Y-76.48
X176.59Y-89.21
X177.39Y-69.11
X177.67Y-81.17
X178.09Y-69.44
X178.46Y-66.61
X178.56Y-59.9
X178.72Y-81.16
X179.11Y-61.98
X179.12Y-86.67
X179.44Y-66.83
X179.5Y-76.71
X179.54Y-64.58
X180.5Y-71.71
X180.5Y-76.01
X180.7Y-74.41
X180.81Y-49.585
X180.9Y-72.41
X180.9Y-73.11
X181.17Y-59.67
X181.2Y-75.21
X181.39Y-89.61
X181.6Y-73.81
X181.74Y-78.28
X182.45Y-52.13
X182.6Y-77.81
X183.0Y-77.01
X183.56Y-76.28
X183.75Y-65.0
X184.28Y-71.07
X184.3Y-73.21
X184.3Y-74.37
X184.42Y-72.0
X184.88Y-64.98
X185.77Y-61.91
X185.97Y-65.03
X186.98Y-61.95
X188.17Y-61.95
X189.15Y-54.26
X190.8Y-54.16
X191.81Y-84.285
T2
X123.95Y-47.61
X123.95Y-103.61
X124.433Y-46.443
X124.433Y-48.777
X124.433Y-102.443
X124.433Y-104.777
X125.6Y-45.96
X125.6Y-49.26
X125.6Y-101.96
X125.6Y-105.26
X126.767Y-46.443
X126.767Y-48.777
X126.767Y-102.443
X126.767Y-104.777
X127.25Y-47.61
X127.25Y-103.61
X187.95Y-47.61
X187.95Y-103.61
X188.433Y-46.443
X188.433Y-48.777
X188.433Y-102.443
X188.433Y-104.777
X189.6Y-45.96
X189.6Y-49.26
X189.6Y-101.96
X189.6Y-105.26
X190.767Y-46.443
X190.767Y-48.777
X190.767Y-102.443
X190.767Y-104.777
X191.25Y-47.61
X191.25Y-103.61
T3
X142.67Y-69.08
X142.67Y-73.96
T4
X123.97Y-54.175
X123.97Y-56.715
X123.97Y-59.255
X127.82Y-54.195
X127.82Y-56.735
X127.82Y-59.275
X131.7Y-54.21
X131.7Y-56.75
X131.7Y-59.29
X131.7Y-61.83
X131.7Y-64.37
X131.7Y-66.91
X136.43Y-54.21
X136.43Y-56.75
X136.43Y-59.29
X136.43Y-61.83
X141.08Y-54.21
X141.08Y-56.75
X141.08Y-59.29
X141.08Y-61.83
X145.73Y-54.21
X145.73Y-56.75
X145.73Y-59.29
X145.73Y-61.83
X150.38Y-54.21
X150.38Y-56.75
X150.38Y-59.29
X150.38Y-61.83
X151.53Y-95.61
X154.07Y-95.61
X154.9Y-54.21
X154.9Y-56.75
X154.9Y-59.29
X154.9Y-61.83
X154.9Y-64.37
X156.61Y-95.61
X159.15Y-95.61
X160.05Y-54.21
X160.05Y-56.75
X160.05Y-59.29
X160.05Y-61.83
X160.05Y-64.37
X161.69Y-95.61
X164.23Y-95.61
X165.25Y-54.21
X165.25Y-56.75
X165.25Y-59.29
X170.025Y-95.54
X172.565Y-95.54
X190.8Y-62.055
X190.8Y-64.595
X190.8Y-67.135
T5
X125.6Y-47.61
X125.6Y-103.61
X189.6Y-47.61
X189.6Y-103.61
T0
M30
