G04 #@! TF.GenerationSoftware,KiCad,Pcbnew,(6.0.9)*
G04 #@! TF.CreationDate,2023-02-01T14:52:06+00:00*
G04 #@! TF.ProjectId,GroupProjectCustom,47726f75-7050-4726-9f6a-656374437573,rev?*
G04 #@! TF.SameCoordinates,Original*
G04 #@! TF.FileFunction,Profile,NP*
%FSLAX46Y46*%
G04 Gerber Fmt 4.6, Leading zero omitted, Abs format (unit mm)*
G04 Created by KiCad (PCBNEW (6.0.9)) date 2023-02-01 14:52:06*
%MOMM*%
%LPD*%
G01*
G04 APERTURE LIST*
G04 #@! TA.AperFunction,Profile*
%ADD10C,0.100000*%
G04 #@! TD*
G04 APERTURE END LIST*
D10*
X129600000Y-43810000D02*
G75*
G03*
X129100000Y-43310000I-500000J0D01*
G01*
X134600000Y-100110000D02*
X130002843Y-100112843D01*
X121600000Y-56110000D02*
X121600000Y-54610000D01*
X193100000Y-43310000D02*
X186100000Y-43310000D01*
X193600000Y-50810000D02*
X193600000Y-51110000D01*
X121600000Y-107410000D02*
G75*
G03*
X122100000Y-107910000I500000J0D01*
G01*
X185600000Y-100510000D02*
G75*
G03*
X185200000Y-100110000I-400000J0D01*
G01*
X121600000Y-50810000D02*
X121600000Y-51110000D01*
X121600000Y-50810000D02*
X121600000Y-43810000D01*
X129100000Y-107910000D02*
G75*
G03*
X129600000Y-107410000I0J500000D01*
G01*
X193600000Y-95110000D02*
X193600000Y-54610000D01*
X121600000Y-96610000D02*
X121600000Y-100110000D01*
X121600000Y-54610000D02*
X121600000Y-51110000D01*
X185600000Y-45817157D02*
X185600000Y-43810000D01*
X193600000Y-43810000D02*
G75*
G03*
X193100000Y-43310000I-500000J0D01*
G01*
X193600000Y-95110000D02*
X193600000Y-96610000D01*
X129600000Y-45800000D02*
G75*
G03*
X130000000Y-46200000I400000J0D01*
G01*
X185600000Y-107410000D02*
G75*
G03*
X186100000Y-107910000I500000J0D01*
G01*
X186100000Y-107910000D02*
X193100000Y-107910000D01*
X193600000Y-100410000D02*
X193600000Y-107410000D01*
X193600000Y-54610000D02*
X193600000Y-51110000D01*
X134600000Y-100110000D02*
X185200000Y-100110000D01*
X121600000Y-56110000D02*
X121600000Y-96610000D01*
X130000000Y-46200000D02*
X130600000Y-46200000D01*
X129600000Y-43810000D02*
X129600000Y-45800000D01*
X193100000Y-107910000D02*
G75*
G03*
X193600000Y-107410000I0J500000D01*
G01*
X129602843Y-100512843D02*
X129600000Y-107410000D01*
X185600000Y-107410000D02*
X185600000Y-100510000D01*
X185200000Y-46200000D02*
X130600000Y-46200000D01*
X121600000Y-107410000D02*
X121600000Y-100410000D01*
X193600000Y-43810000D02*
X193600000Y-50810000D01*
X129100000Y-43310000D02*
X122100000Y-43310000D01*
X193600000Y-96610000D02*
X193600000Y-100110000D01*
X186100000Y-43310000D02*
G75*
G03*
X185600000Y-43810000I0J-500000D01*
G01*
X185199999Y-46200031D02*
G75*
G03*
X185600000Y-45817157I16801J382831D01*
G01*
X122100000Y-43310000D02*
G75*
G03*
X121600000Y-43810000I0J-500000D01*
G01*
X121600000Y-100410000D02*
X121600000Y-100110000D01*
X122100000Y-107910000D02*
X129100000Y-107910000D01*
X193600000Y-100410000D02*
X193600000Y-100110000D01*
X130002843Y-100112843D02*
G75*
G03*
X129602843Y-100512843I-43J-399957D01*
G01*
M02*
