%TF.GenerationSoftware,KiCad,Pcbnew,(6.0.9)*%
%TF.CreationDate,2023-02-01T14:52:12+00:00*%
%TF.ProjectId,GroupProjectCustom,47726f75-7050-4726-9f6a-656374437573,rev?*%
%TF.SameCoordinates,Original*%
%TF.FileFunction,Drillmap*%
%TF.FilePolarity,Positive*%
%FSLAX45Y45*%
G04 Gerber Fmt 4.5, Leading zero omitted, Abs format (unit mm)*
G04 Created by KiCad (PCBNEW (6.0.9)) date 2023-02-01 14:52:12*
%MOMM*%
%LPD*%
G01*
G04 APERTURE LIST*
%ADD10C,0.100000*%
%ADD11C,0.200000*%
G04 APERTURE END LIST*
D10*
X12960000Y-4381000D02*
G75*
G03*
X12910000Y-4331000I-50000J0D01*
G01*
X13460000Y-10011000D02*
X13000284Y-10011284D01*
X12160000Y-5611000D02*
X12160000Y-5461000D01*
X19310000Y-4331000D02*
X18610000Y-4331000D01*
X19360000Y-5081000D02*
X19360000Y-5111000D01*
X12160000Y-10741000D02*
G75*
G03*
X12210000Y-10791000I50000J0D01*
G01*
X18560000Y-10051000D02*
G75*
G03*
X18520000Y-10011000I-40000J0D01*
G01*
X12160000Y-5081000D02*
X12160000Y-5111000D01*
X12160000Y-5081000D02*
X12160000Y-4381000D01*
X12910000Y-10791000D02*
G75*
G03*
X12960000Y-10741000I0J50000D01*
G01*
X19360000Y-9511000D02*
X19360000Y-5461000D01*
X12160000Y-9661000D02*
X12160000Y-10011000D01*
X12160000Y-5461000D02*
X12160000Y-5111000D01*
X18560000Y-4581716D02*
X18560000Y-4381000D01*
X19360000Y-4381000D02*
G75*
G03*
X19310000Y-4331000I-50000J0D01*
G01*
X19360000Y-9511000D02*
X19360000Y-9661000D01*
X12960000Y-4580000D02*
G75*
G03*
X13000000Y-4620000I40000J0D01*
G01*
X18560000Y-10741000D02*
G75*
G03*
X18610000Y-10791000I50000J0D01*
G01*
X18610000Y-10791000D02*
X19310000Y-10791000D01*
X19360000Y-10041000D02*
X19360000Y-10741000D01*
X19360000Y-5461000D02*
X19360000Y-5111000D01*
X13460000Y-10011000D02*
X18520000Y-10011000D01*
X12160000Y-5611000D02*
X12160000Y-9661000D01*
X13000000Y-4620000D02*
X13060000Y-4620000D01*
X12960000Y-4381000D02*
X12960000Y-4580000D01*
X19310000Y-10791000D02*
G75*
G03*
X19360000Y-10741000I0J50000D01*
G01*
X12960284Y-10051284D02*
X12960000Y-10741000D01*
X18560000Y-10741000D02*
X18560000Y-10051000D01*
X18520000Y-4620000D02*
X13060000Y-4620000D01*
X12160000Y-10741000D02*
X12160000Y-10041000D01*
X19360000Y-4381000D02*
X19360000Y-5081000D01*
X12910000Y-4331000D02*
X12210000Y-4331000D01*
X19360000Y-9661000D02*
X19360000Y-10011000D01*
X18610000Y-4331000D02*
G75*
G03*
X18560000Y-4381000I0J-50000D01*
G01*
X18520000Y-4620003D02*
G75*
G03*
X18560000Y-4581716I1680J38283D01*
G01*
X12210000Y-4331000D02*
G75*
G03*
X12160000Y-4381000I0J-50000D01*
G01*
X12160000Y-10041000D02*
X12160000Y-10011000D01*
X12210000Y-10791000D02*
X12910000Y-10791000D01*
X19360000Y-10041000D02*
X19360000Y-10011000D01*
X13000284Y-10011284D02*
G75*
G03*
X12960284Y-10051284I-4J-39996D01*
G01*
D11*
X12412619Y-11106476D02*
X12412619Y-10906476D01*
X12460238Y-10906476D01*
X12488809Y-10916000D01*
X12507857Y-10935048D01*
X12517381Y-10954095D01*
X12526905Y-10992190D01*
X12526905Y-11020762D01*
X12517381Y-11058857D01*
X12507857Y-11077905D01*
X12488809Y-11096952D01*
X12460238Y-11106476D01*
X12412619Y-11106476D01*
X12612619Y-11106476D02*
X12612619Y-10973143D01*
X12612619Y-11011238D02*
X12622143Y-10992190D01*
X12631667Y-10982667D01*
X12650714Y-10973143D01*
X12669762Y-10973143D01*
X12736428Y-11106476D02*
X12736428Y-10973143D01*
X12736428Y-10906476D02*
X12726905Y-10916000D01*
X12736428Y-10925524D01*
X12745952Y-10916000D01*
X12736428Y-10906476D01*
X12736428Y-10925524D01*
X12860238Y-11106476D02*
X12841190Y-11096952D01*
X12831667Y-11077905D01*
X12831667Y-10906476D01*
X12965000Y-11106476D02*
X12945952Y-11096952D01*
X12936428Y-11077905D01*
X12936428Y-10906476D01*
X13193571Y-11106476D02*
X13193571Y-10906476D01*
X13260238Y-11049333D01*
X13326905Y-10906476D01*
X13326905Y-11106476D01*
X13507857Y-11106476D02*
X13507857Y-11001714D01*
X13498333Y-10982667D01*
X13479286Y-10973143D01*
X13441190Y-10973143D01*
X13422143Y-10982667D01*
X13507857Y-11096952D02*
X13488809Y-11106476D01*
X13441190Y-11106476D01*
X13422143Y-11096952D01*
X13412619Y-11077905D01*
X13412619Y-11058857D01*
X13422143Y-11039810D01*
X13441190Y-11030286D01*
X13488809Y-11030286D01*
X13507857Y-11020762D01*
X13603095Y-10973143D02*
X13603095Y-11173143D01*
X13603095Y-10982667D02*
X13622143Y-10973143D01*
X13660238Y-10973143D01*
X13679286Y-10982667D01*
X13688809Y-10992190D01*
X13698333Y-11011238D01*
X13698333Y-11068381D01*
X13688809Y-11087429D01*
X13679286Y-11096952D01*
X13660238Y-11106476D01*
X13622143Y-11106476D01*
X13603095Y-11096952D01*
X13784048Y-11087429D02*
X13793571Y-11096952D01*
X13784048Y-11106476D01*
X13774524Y-11096952D01*
X13784048Y-11087429D01*
X13784048Y-11106476D01*
X13784048Y-10982667D02*
X13793571Y-10992190D01*
X13784048Y-11001714D01*
X13774524Y-10992190D01*
X13784048Y-10982667D01*
X13784048Y-11001714D01*
M02*
