%TF.GenerationSoftware,KiCad,Pcbnew,(6.0.9)*%
%TF.CreationDate,2023-02-01T14:52:12+00:00*%
%TF.ProjectId,GroupProjectCustom,47726f75-7050-4726-9f6a-656374437573,rev?*%
%TF.SameCoordinates,Original*%
%TF.FileFunction,Drillmap*%
%TF.FilePolarity,Positive*%
%FSLAX45Y45*%
G04 Gerber Fmt 4.5, Leading zero omitted, Abs format (unit mm)*
G04 Created by KiCad (PCBNEW (6.0.9)) date 2023-02-01 14:52:12*
%MOMM*%
%LPD*%
G01*
G04 APERTURE LIST*
%ADD10C,0.100000*%
%ADD11C,0.200000*%
%ADD12C,0.025000*%
%ADD13C,0.040000*%
%ADD14C,0.080000*%
%ADD15C,0.220000*%
G04 APERTURE END LIST*
D10*
X12960000Y-4381000D02*
G75*
G03*
X12910000Y-4331000I-50000J0D01*
G01*
X13460000Y-10011000D02*
X13000284Y-10011284D01*
X12160000Y-5611000D02*
X12160000Y-5461000D01*
X19310000Y-4331000D02*
X18610000Y-4331000D01*
X19360000Y-5081000D02*
X19360000Y-5111000D01*
X12160000Y-10741000D02*
G75*
G03*
X12210000Y-10791000I50000J0D01*
G01*
X18560000Y-10051000D02*
G75*
G03*
X18520000Y-10011000I-40000J0D01*
G01*
X12160000Y-5081000D02*
X12160000Y-5111000D01*
X12160000Y-5081000D02*
X12160000Y-4381000D01*
X12910000Y-10791000D02*
G75*
G03*
X12960000Y-10741000I0J50000D01*
G01*
X19360000Y-9511000D02*
X19360000Y-5461000D01*
X12160000Y-9661000D02*
X12160000Y-10011000D01*
X12160000Y-5461000D02*
X12160000Y-5111000D01*
X18560000Y-4581716D02*
X18560000Y-4381000D01*
X19360000Y-4381000D02*
G75*
G03*
X19310000Y-4331000I-50000J0D01*
G01*
X19360000Y-9511000D02*
X19360000Y-9661000D01*
X12960000Y-4580000D02*
G75*
G03*
X13000000Y-4620000I40000J0D01*
G01*
X18560000Y-10741000D02*
G75*
G03*
X18610000Y-10791000I50000J0D01*
G01*
X18610000Y-10791000D02*
X19310000Y-10791000D01*
X19360000Y-10041000D02*
X19360000Y-10741000D01*
X19360000Y-5461000D02*
X19360000Y-5111000D01*
X13460000Y-10011000D02*
X18520000Y-10011000D01*
X12160000Y-5611000D02*
X12160000Y-9661000D01*
X13000000Y-4620000D02*
X13060000Y-4620000D01*
X12960000Y-4381000D02*
X12960000Y-4580000D01*
X19310000Y-10791000D02*
G75*
G03*
X19360000Y-10741000I0J50000D01*
G01*
X12960284Y-10051284D02*
X12960000Y-10741000D01*
X18560000Y-10741000D02*
X18560000Y-10051000D01*
X18520000Y-4620000D02*
X13060000Y-4620000D01*
X12160000Y-10741000D02*
X12160000Y-10041000D01*
X19360000Y-4381000D02*
X19360000Y-5081000D01*
X12910000Y-4331000D02*
X12210000Y-4331000D01*
X19360000Y-9661000D02*
X19360000Y-10011000D01*
X18610000Y-4331000D02*
G75*
G03*
X18560000Y-4381000I0J-50000D01*
G01*
X18520000Y-4620003D02*
G75*
G03*
X18560000Y-4581716I1680J38283D01*
G01*
X12210000Y-4331000D02*
G75*
G03*
X12160000Y-4381000I0J-50000D01*
G01*
X12160000Y-10041000D02*
X12160000Y-10011000D01*
X12210000Y-10791000D02*
X12910000Y-10791000D01*
X19360000Y-10041000D02*
X19360000Y-10011000D01*
X13000284Y-10011284D02*
G75*
G03*
X12960284Y-10051284I-4J-39996D01*
G01*
D11*
D12*
X12220500Y-7355500D02*
X12245500Y-7380500D01*
X12245500Y-7355500D02*
X12220500Y-7380500D01*
X12257500Y-8918500D02*
X12282500Y-8943500D01*
X12282500Y-8918500D02*
X12257500Y-8943500D01*
X12291500Y-9147500D02*
X12316500Y-9172500D01*
X12316500Y-9147500D02*
X12291500Y-9172500D01*
X12297500Y-7086500D02*
X12322500Y-7111500D01*
X12322500Y-7086500D02*
X12297500Y-7111500D01*
X12577500Y-6878500D02*
X12602500Y-6903500D01*
X12602500Y-6878500D02*
X12577500Y-6903500D01*
X12652500Y-8923500D02*
X12677500Y-8948500D01*
X12677500Y-8923500D02*
X12652500Y-8948500D01*
X12660000Y-7386000D02*
X12685000Y-7411000D01*
X12685000Y-7386000D02*
X12660000Y-7411000D01*
X12702500Y-8688500D02*
X12727500Y-8713500D01*
X12727500Y-8688500D02*
X12702500Y-8713500D01*
X12918500Y-5133500D02*
X12943500Y-5158500D01*
X12943500Y-5133500D02*
X12918500Y-5158500D01*
X12981500Y-7623500D02*
X13006500Y-7648500D01*
X13006500Y-7623500D02*
X12981500Y-7648500D01*
X13052500Y-8071000D02*
X13077500Y-8096000D01*
X13077500Y-8071000D02*
X13052500Y-8096000D01*
X13244500Y-7188500D02*
X13269500Y-7213500D01*
X13269500Y-7188500D02*
X13244500Y-7213500D01*
X13332500Y-5136500D02*
X13357500Y-5161500D01*
X13357500Y-5136500D02*
X13332500Y-5161500D01*
X13392500Y-4894500D02*
X13417500Y-4919500D01*
X13417500Y-4894500D02*
X13392500Y-4919500D01*
X13455500Y-4767500D02*
X13480500Y-4792500D01*
X13480500Y-4767500D02*
X13455500Y-4792500D01*
X13580500Y-7692500D02*
X13605500Y-7717500D01*
X13605500Y-7692500D02*
X13580500Y-7717500D01*
X13612500Y-7068500D02*
X13637500Y-7093500D01*
X13637500Y-7068500D02*
X13612500Y-7093500D01*
X13737500Y-6567500D02*
X13762500Y-6592500D01*
X13762500Y-6567500D02*
X13737500Y-6592500D01*
X13738500Y-5133500D02*
X13763500Y-5158500D01*
X13763500Y-5133500D02*
X13738500Y-5158500D01*
X13742500Y-7248500D02*
X13767500Y-7273500D01*
X13767500Y-7248500D02*
X13742500Y-7273500D01*
X13867500Y-6307500D02*
X13892500Y-6332500D01*
X13892500Y-6307500D02*
X13867500Y-6332500D01*
X14012500Y-8788500D02*
X14037500Y-8813500D01*
X14037500Y-8788500D02*
X14012500Y-8813500D01*
X14017500Y-7552500D02*
X14042500Y-7577500D01*
X14042500Y-7552500D02*
X14017500Y-7577500D01*
X14068500Y-5010500D02*
X14093500Y-5035500D01*
X14093500Y-5010500D02*
X14068500Y-5035500D01*
X14074500Y-4768500D02*
X14099500Y-4793500D01*
X14099500Y-4768500D02*
X14074500Y-4793500D01*
X14140500Y-7137500D02*
X14165500Y-7162500D01*
X14165500Y-7137500D02*
X14140500Y-7162500D01*
X14329500Y-5302500D02*
X14354500Y-5327500D01*
X14354500Y-5302500D02*
X14329500Y-5327500D01*
X14337500Y-6307500D02*
X14362500Y-6332500D01*
X14362500Y-6307500D02*
X14337500Y-6332500D01*
X14480500Y-7790500D02*
X14505500Y-7815500D01*
X14505500Y-7790500D02*
X14480500Y-7815500D01*
X14787500Y-5727500D02*
X14812500Y-5752500D01*
X14812500Y-5727500D02*
X14787500Y-5752500D01*
X14792500Y-8743500D02*
X14817500Y-8768500D01*
X14817500Y-8743500D02*
X14792500Y-8768500D01*
X14799500Y-4969500D02*
X14824500Y-4994500D01*
X14824500Y-4969500D02*
X14799500Y-4994500D01*
X14824500Y-5082500D02*
X14849500Y-5107500D01*
X14849500Y-5082500D02*
X14824500Y-5107500D01*
X14997500Y-4770500D02*
X15022500Y-4795500D01*
X15022500Y-4770500D02*
X14997500Y-4795500D01*
X15192500Y-8868500D02*
X15217500Y-8893500D01*
X15217500Y-8868500D02*
X15192500Y-8893500D01*
X15317500Y-8038500D02*
X15342500Y-8063500D01*
X15342500Y-8038500D02*
X15317500Y-8063500D01*
X15427500Y-6958500D02*
X15452500Y-6983500D01*
X15452500Y-6958500D02*
X15427500Y-6983500D01*
X15427500Y-8008500D02*
X15452500Y-8033500D01*
X15452500Y-8008500D02*
X15427500Y-8033500D01*
X15497500Y-6678500D02*
X15522500Y-6703500D01*
X15522500Y-6678500D02*
X15497500Y-6703500D01*
X15554500Y-5082500D02*
X15579500Y-5107500D01*
X15579500Y-5082500D02*
X15554500Y-5107500D01*
X15641500Y-7676500D02*
X15666500Y-7701500D01*
X15666500Y-7676500D02*
X15641500Y-7701500D01*
X15802500Y-8595500D02*
X15827500Y-8620500D01*
X15827500Y-8595500D02*
X15802500Y-8620500D01*
X15847500Y-7368500D02*
X15872500Y-7393500D01*
X15872500Y-7368500D02*
X15847500Y-7393500D01*
X15921500Y-5050500D02*
X15946500Y-5075500D01*
X15946500Y-5050500D02*
X15921500Y-5075500D01*
X16005500Y-7233500D02*
X16030500Y-7258500D01*
X16030500Y-7233500D02*
X16005500Y-7258500D01*
X16029500Y-4766500D02*
X16054500Y-4791500D01*
X16054500Y-4766500D02*
X16029500Y-4791500D01*
X16057500Y-7438500D02*
X16082500Y-7463500D01*
X16082500Y-7438500D02*
X16057500Y-7463500D01*
X16164500Y-6804500D02*
X16189500Y-6829500D01*
X16189500Y-6804500D02*
X16164500Y-6829500D01*
X16182500Y-5278500D02*
X16207500Y-5303500D01*
X16207500Y-5278500D02*
X16182500Y-5303500D01*
X16207500Y-8026500D02*
X16232500Y-8051500D01*
X16232500Y-8026500D02*
X16207500Y-8051500D01*
X16290500Y-6713500D02*
X16315500Y-6738500D01*
X16315500Y-6713500D02*
X16290500Y-6738500D01*
X16376500Y-6613500D02*
X16401500Y-6638500D01*
X16401500Y-6613500D02*
X16376500Y-6638500D01*
X16416500Y-8601500D02*
X16441500Y-8626500D01*
X16441500Y-8601500D02*
X16416500Y-8626500D01*
X16494500Y-7589500D02*
X16519500Y-7614500D01*
X16519500Y-7589500D02*
X16494500Y-7614500D01*
X16526500Y-7073500D02*
X16551500Y-7098500D01*
X16551500Y-7073500D02*
X16526500Y-7098500D01*
X16557500Y-9213500D02*
X16582500Y-9238500D01*
X16582500Y-9213500D02*
X16557500Y-9238500D01*
X16593500Y-6598500D02*
X16618500Y-6623500D01*
X16618500Y-6598500D02*
X16593500Y-6623500D01*
X16598500Y-8997500D02*
X16623500Y-9022500D01*
X16623500Y-8997500D02*
X16598500Y-9022500D01*
X16614500Y-6958500D02*
X16639500Y-6983500D01*
X16639500Y-6958500D02*
X16614500Y-6983500D01*
X16649500Y-7441500D02*
X16674500Y-7466500D01*
X16674500Y-7441500D02*
X16649500Y-7466500D01*
X16671893Y-7087992D02*
X16696893Y-7112992D01*
X16696893Y-7087992D02*
X16671893Y-7112992D01*
X16676500Y-6415500D02*
X16701500Y-6440500D01*
X16701500Y-6415500D02*
X16676500Y-6440500D01*
X16688500Y-7690500D02*
X16713500Y-7715500D01*
X16713500Y-7690500D02*
X16688500Y-7715500D01*
X16774500Y-7788500D02*
X16799500Y-7813500D01*
X16799500Y-7788500D02*
X16774500Y-7813500D01*
X16782500Y-6482500D02*
X16807500Y-6507500D01*
X16807500Y-6482500D02*
X16782500Y-6507500D01*
X16792500Y-5740500D02*
X16817500Y-5765500D01*
X16817500Y-5740500D02*
X16792500Y-5765500D01*
X16873500Y-7398500D02*
X16898500Y-7423500D01*
X16898500Y-7398500D02*
X16873500Y-7423500D01*
X16909500Y-7578500D02*
X16934500Y-7603500D01*
X16934500Y-7578500D02*
X16909500Y-7603500D01*
X16952500Y-7988500D02*
X16977500Y-8013500D01*
X16977500Y-7988500D02*
X16952500Y-8013500D01*
X16953500Y-5737500D02*
X16978500Y-5762500D01*
X16978500Y-5737500D02*
X16953500Y-5762500D01*
X16972500Y-7848500D02*
X16997500Y-7873500D01*
X16997500Y-7848500D02*
X16972500Y-7873500D01*
X17042500Y-9013500D02*
X17067500Y-9038500D01*
X17067500Y-9013500D02*
X17042500Y-9038500D01*
X17048500Y-7378500D02*
X17073500Y-7403500D01*
X17073500Y-7378500D02*
X17048500Y-7403500D01*
X17052500Y-6923500D02*
X17077500Y-6948500D01*
X17077500Y-6923500D02*
X17052500Y-6948500D01*
X17223500Y-8007500D02*
X17248500Y-8032500D01*
X17248500Y-8007500D02*
X17223500Y-8032500D01*
X17253500Y-8594500D02*
X17278500Y-8619500D01*
X17278500Y-8594500D02*
X17253500Y-8619500D01*
X17309500Y-5735500D02*
X17334500Y-5760500D01*
X17334500Y-5735500D02*
X17309500Y-5760500D01*
X17321500Y-7951500D02*
X17346500Y-7976500D01*
X17346500Y-7951500D02*
X17321500Y-7976500D01*
X17335500Y-8090500D02*
X17360500Y-8115500D01*
X17360500Y-8090500D02*
X17335500Y-8115500D01*
X17366500Y-7013500D02*
X17391500Y-7038500D01*
X17391500Y-7013500D02*
X17366500Y-7038500D01*
X17396500Y-7478500D02*
X17421500Y-7503500D01*
X17421500Y-7478500D02*
X17396500Y-7503500D01*
X17403500Y-7908500D02*
X17428500Y-7933500D01*
X17428500Y-7908500D02*
X17403500Y-7933500D01*
X17412500Y-8710500D02*
X17437500Y-8735500D01*
X17437500Y-8710500D02*
X17412500Y-8735500D01*
X17422500Y-6700850D02*
X17447500Y-6725850D01*
X17447500Y-6700850D02*
X17422500Y-6725850D01*
X17464500Y-8108500D02*
X17489500Y-8133500D01*
X17489500Y-8108500D02*
X17464500Y-8133500D01*
X17481500Y-5731500D02*
X17506500Y-5756500D01*
X17506500Y-5731500D02*
X17481500Y-5756500D01*
X17515500Y-8800500D02*
X17540500Y-8825500D01*
X17540500Y-8800500D02*
X17515500Y-8825500D01*
X17520500Y-7572500D02*
X17545500Y-7597500D01*
X17545500Y-7572500D02*
X17520500Y-7597500D01*
X17626500Y-8096500D02*
X17651500Y-8121500D01*
X17651500Y-8096500D02*
X17626500Y-8121500D01*
X17645500Y-7635500D02*
X17670500Y-7660500D01*
X17670500Y-7635500D02*
X17645500Y-7660500D01*
X17646500Y-8908500D02*
X17671500Y-8933500D01*
X17671500Y-8908500D02*
X17646500Y-8933500D01*
X17726500Y-6898500D02*
X17751500Y-6923500D01*
X17751500Y-6898500D02*
X17726500Y-6923500D01*
X17754500Y-8104500D02*
X17779500Y-8129500D01*
X17779500Y-8104500D02*
X17754500Y-8129500D01*
X17796500Y-6931500D02*
X17821500Y-6956500D01*
X17821500Y-6931500D02*
X17796500Y-6956500D01*
X17833500Y-6648500D02*
X17858500Y-6673500D01*
X17858500Y-6648500D02*
X17833500Y-6673500D01*
X17843500Y-5977500D02*
X17868500Y-6002500D01*
X17868500Y-5977500D02*
X17843500Y-6002500D01*
X17859500Y-8103500D02*
X17884500Y-8128500D01*
X17884500Y-8103500D02*
X17859500Y-8128500D01*
X17898500Y-6185500D02*
X17923500Y-6210500D01*
X17923500Y-6185500D02*
X17898500Y-6210500D01*
X17899500Y-8654500D02*
X17924500Y-8679500D01*
X17924500Y-8654500D02*
X17899500Y-8679500D01*
X17931500Y-6670500D02*
X17956500Y-6695500D01*
X17956500Y-6670500D02*
X17931500Y-6695500D01*
X17937500Y-7658500D02*
X17962500Y-7683500D01*
X17962500Y-7658500D02*
X17937500Y-7683500D01*
X17941500Y-6445500D02*
X17966500Y-6470500D01*
X17966500Y-6445500D02*
X17941500Y-6470500D01*
X18037500Y-7158500D02*
X18062500Y-7183500D01*
X18062500Y-7158500D02*
X18037500Y-7183500D01*
X18037500Y-7588500D02*
X18062500Y-7613500D01*
X18062500Y-7588500D02*
X18037500Y-7613500D01*
X18057500Y-7428500D02*
X18082500Y-7453500D01*
X18082500Y-7428500D02*
X18057500Y-7453500D01*
X18068500Y-4946000D02*
X18093500Y-4971000D01*
X18093500Y-4946000D02*
X18068500Y-4971000D01*
X18077500Y-7228500D02*
X18102500Y-7253500D01*
X18102500Y-7228500D02*
X18077500Y-7253500D01*
X18077500Y-7298500D02*
X18102500Y-7323500D01*
X18102500Y-7298500D02*
X18077500Y-7323500D01*
X18104500Y-5954500D02*
X18129500Y-5979500D01*
X18129500Y-5954500D02*
X18104500Y-5979500D01*
X18107500Y-7508500D02*
X18132500Y-7533500D01*
X18132500Y-7508500D02*
X18107500Y-7533500D01*
X18126500Y-8948500D02*
X18151500Y-8973500D01*
X18151500Y-8948500D02*
X18126500Y-8973500D01*
X18147500Y-7368500D02*
X18172500Y-7393500D01*
X18172500Y-7368500D02*
X18147500Y-7393500D01*
X18161500Y-7815500D02*
X18186500Y-7840500D01*
X18186500Y-7815500D02*
X18161500Y-7840500D01*
X18232500Y-5200500D02*
X18257500Y-5225500D01*
X18257500Y-5200500D02*
X18232500Y-5225500D01*
X18247500Y-7768500D02*
X18272500Y-7793500D01*
X18272500Y-7768500D02*
X18247500Y-7793500D01*
X18287500Y-7688500D02*
X18312500Y-7713500D01*
X18312500Y-7688500D02*
X18287500Y-7713500D01*
X18343500Y-7615500D02*
X18368500Y-7640500D01*
X18368500Y-7615500D02*
X18343500Y-7640500D01*
X18362500Y-6487500D02*
X18387500Y-6512500D01*
X18387500Y-6487500D02*
X18362500Y-6512500D01*
X18415500Y-7094500D02*
X18440500Y-7119500D01*
X18440500Y-7094500D02*
X18415500Y-7119500D01*
X18417500Y-7308500D02*
X18442500Y-7333500D01*
X18442500Y-7308500D02*
X18417500Y-7333500D01*
X18417500Y-7424500D02*
X18442500Y-7449500D01*
X18442500Y-7424500D02*
X18417500Y-7449500D01*
X18429500Y-7187500D02*
X18454500Y-7212500D01*
X18454500Y-7187500D02*
X18429500Y-7212500D01*
X18475500Y-6485500D02*
X18500500Y-6510500D01*
X18500500Y-6485500D02*
X18475500Y-6510500D01*
X18564500Y-6178500D02*
X18589500Y-6203500D01*
X18589500Y-6178500D02*
X18564500Y-6203500D01*
X18584500Y-6490500D02*
X18609500Y-6515500D01*
X18609500Y-6490500D02*
X18584500Y-6515500D01*
X18685500Y-6182500D02*
X18710500Y-6207500D01*
X18710500Y-6182500D02*
X18685500Y-6207500D01*
X18804500Y-6182500D02*
X18829500Y-6207500D01*
X18829500Y-6182500D02*
X18804500Y-6207500D01*
X18902500Y-5413500D02*
X18927500Y-5438500D01*
X18927500Y-5413500D02*
X18902500Y-5438500D01*
X19067500Y-5403500D02*
X19092500Y-5428500D01*
X19092500Y-5403500D02*
X19067500Y-5428500D01*
X19168500Y-8416000D02*
X19193500Y-8441000D01*
X19193500Y-8416000D02*
X19168500Y-8441000D01*
D13*
X12415000Y-4761000D02*
G75*
G03*
X12415000Y-4761000I-20000J0D01*
G01*
X12415000Y-10361000D02*
G75*
G03*
X12415000Y-10361000I-20000J0D01*
G01*
X12463327Y-4644327D02*
G75*
G03*
X12463327Y-4644327I-20000J0D01*
G01*
X12463327Y-4877673D02*
G75*
G03*
X12463327Y-4877673I-20000J0D01*
G01*
X12463327Y-10244327D02*
G75*
G03*
X12463327Y-10244327I-20000J0D01*
G01*
X12463327Y-10477673D02*
G75*
G03*
X12463327Y-10477673I-20000J0D01*
G01*
X12580000Y-4596000D02*
G75*
G03*
X12580000Y-4596000I-20000J0D01*
G01*
X12580000Y-4926000D02*
G75*
G03*
X12580000Y-4926000I-20000J0D01*
G01*
X12580000Y-10196000D02*
G75*
G03*
X12580000Y-10196000I-20000J0D01*
G01*
X12580000Y-10526000D02*
G75*
G03*
X12580000Y-10526000I-20000J0D01*
G01*
X12696673Y-4644327D02*
G75*
G03*
X12696673Y-4644327I-20000J0D01*
G01*
X12696673Y-4877673D02*
G75*
G03*
X12696673Y-4877673I-20000J0D01*
G01*
X12696673Y-10244327D02*
G75*
G03*
X12696673Y-10244327I-20000J0D01*
G01*
X12696673Y-10477673D02*
G75*
G03*
X12696673Y-10477673I-20000J0D01*
G01*
X12745000Y-4761000D02*
G75*
G03*
X12745000Y-4761000I-20000J0D01*
G01*
X12745000Y-10361000D02*
G75*
G03*
X12745000Y-10361000I-20000J0D01*
G01*
X18815000Y-4761000D02*
G75*
G03*
X18815000Y-4761000I-20000J0D01*
G01*
X18815000Y-10361000D02*
G75*
G03*
X18815000Y-10361000I-20000J0D01*
G01*
X18863327Y-4644327D02*
G75*
G03*
X18863327Y-4644327I-20000J0D01*
G01*
X18863327Y-4877673D02*
G75*
G03*
X18863327Y-4877673I-20000J0D01*
G01*
X18863327Y-10244327D02*
G75*
G03*
X18863327Y-10244327I-20000J0D01*
G01*
X18863327Y-10477673D02*
G75*
G03*
X18863327Y-10477673I-20000J0D01*
G01*
X18980000Y-4596000D02*
G75*
G03*
X18980000Y-4596000I-20000J0D01*
G01*
X18980000Y-4926000D02*
G75*
G03*
X18980000Y-4926000I-20000J0D01*
G01*
X18980000Y-10196000D02*
G75*
G03*
X18980000Y-10196000I-20000J0D01*
G01*
X18980000Y-10526000D02*
G75*
G03*
X18980000Y-10526000I-20000J0D01*
G01*
X19096673Y-4644327D02*
G75*
G03*
X19096673Y-4644327I-20000J0D01*
G01*
X19096673Y-4877673D02*
G75*
G03*
X19096673Y-4877673I-20000J0D01*
G01*
X19096673Y-10244327D02*
G75*
G03*
X19096673Y-10244327I-20000J0D01*
G01*
X19096673Y-10477673D02*
G75*
G03*
X19096673Y-10477673I-20000J0D01*
G01*
X19145000Y-4761000D02*
G75*
G03*
X19145000Y-4761000I-20000J0D01*
G01*
X19145000Y-10361000D02*
G75*
G03*
X19145000Y-10361000I-20000J0D01*
G01*
D14*
X14267000Y-6868000D02*
X14267000Y-6948000D01*
X14227000Y-6908000D02*
X14307000Y-6908000D01*
X14267000Y-7356000D02*
X14267000Y-7436000D01*
X14227000Y-7396000D02*
X14307000Y-7396000D01*
D10*
X12432356Y-5452856D02*
X12432356Y-5382144D01*
X12361644Y-5382144D01*
X12361644Y-5452856D01*
X12432356Y-5452856D01*
X12432356Y-5706856D02*
X12432356Y-5636144D01*
X12361644Y-5636144D01*
X12361644Y-5706856D01*
X12432356Y-5706856D01*
X12432356Y-5960856D02*
X12432356Y-5890144D01*
X12361644Y-5890144D01*
X12361644Y-5960856D01*
X12432356Y-5960856D01*
X12817356Y-5454856D02*
X12817356Y-5384144D01*
X12746644Y-5384144D01*
X12746644Y-5454856D01*
X12817356Y-5454856D01*
X12817356Y-5708856D02*
X12817356Y-5638144D01*
X12746644Y-5638144D01*
X12746644Y-5708856D01*
X12817356Y-5708856D01*
X12817356Y-5962856D02*
X12817356Y-5892144D01*
X12746644Y-5892144D01*
X12746644Y-5962856D01*
X12817356Y-5962856D01*
X13205356Y-5456356D02*
X13205356Y-5385644D01*
X13134644Y-5385644D01*
X13134644Y-5456356D01*
X13205356Y-5456356D01*
X13205356Y-5710356D02*
X13205356Y-5639644D01*
X13134644Y-5639644D01*
X13134644Y-5710356D01*
X13205356Y-5710356D01*
X13205356Y-5964356D02*
X13205356Y-5893644D01*
X13134644Y-5893644D01*
X13134644Y-5964356D01*
X13205356Y-5964356D01*
X13205356Y-6218356D02*
X13205356Y-6147644D01*
X13134644Y-6147644D01*
X13134644Y-6218356D01*
X13205356Y-6218356D01*
X13205356Y-6472356D02*
X13205356Y-6401644D01*
X13134644Y-6401644D01*
X13134644Y-6472356D01*
X13205356Y-6472356D01*
X13205356Y-6726356D02*
X13205356Y-6655644D01*
X13134644Y-6655644D01*
X13134644Y-6726356D01*
X13205356Y-6726356D01*
X13678356Y-5456356D02*
X13678356Y-5385644D01*
X13607644Y-5385644D01*
X13607644Y-5456356D01*
X13678356Y-5456356D01*
X13678356Y-5710356D02*
X13678356Y-5639644D01*
X13607644Y-5639644D01*
X13607644Y-5710356D01*
X13678356Y-5710356D01*
X13678356Y-5964356D02*
X13678356Y-5893644D01*
X13607644Y-5893644D01*
X13607644Y-5964356D01*
X13678356Y-5964356D01*
X13678356Y-6218356D02*
X13678356Y-6147644D01*
X13607644Y-6147644D01*
X13607644Y-6218356D01*
X13678356Y-6218356D01*
X14143356Y-5456356D02*
X14143356Y-5385644D01*
X14072644Y-5385644D01*
X14072644Y-5456356D01*
X14143356Y-5456356D01*
X14143356Y-5710356D02*
X14143356Y-5639644D01*
X14072644Y-5639644D01*
X14072644Y-5710356D01*
X14143356Y-5710356D01*
X14143356Y-5964356D02*
X14143356Y-5893644D01*
X14072644Y-5893644D01*
X14072644Y-5964356D01*
X14143356Y-5964356D01*
X14143356Y-6218356D02*
X14143356Y-6147644D01*
X14072644Y-6147644D01*
X14072644Y-6218356D01*
X14143356Y-6218356D01*
X14608356Y-5456356D02*
X14608356Y-5385644D01*
X14537644Y-5385644D01*
X14537644Y-5456356D01*
X14608356Y-5456356D01*
X14608356Y-5710356D02*
X14608356Y-5639644D01*
X14537644Y-5639644D01*
X14537644Y-5710356D01*
X14608356Y-5710356D01*
X14608356Y-5964356D02*
X14608356Y-5893644D01*
X14537644Y-5893644D01*
X14537644Y-5964356D01*
X14608356Y-5964356D01*
X14608356Y-6218356D02*
X14608356Y-6147644D01*
X14537644Y-6147644D01*
X14537644Y-6218356D01*
X14608356Y-6218356D01*
X15073356Y-5456356D02*
X15073356Y-5385644D01*
X15002644Y-5385644D01*
X15002644Y-5456356D01*
X15073356Y-5456356D01*
X15073356Y-5710356D02*
X15073356Y-5639644D01*
X15002644Y-5639644D01*
X15002644Y-5710356D01*
X15073356Y-5710356D01*
X15073356Y-5964356D02*
X15073356Y-5893644D01*
X15002644Y-5893644D01*
X15002644Y-5964356D01*
X15073356Y-5964356D01*
X15073356Y-6218356D02*
X15073356Y-6147644D01*
X15002644Y-6147644D01*
X15002644Y-6218356D01*
X15073356Y-6218356D01*
X15188356Y-9596356D02*
X15188356Y-9525644D01*
X15117644Y-9525644D01*
X15117644Y-9596356D01*
X15188356Y-9596356D01*
X15442356Y-9596356D02*
X15442356Y-9525644D01*
X15371644Y-9525644D01*
X15371644Y-9596356D01*
X15442356Y-9596356D01*
X15525356Y-5456356D02*
X15525356Y-5385644D01*
X15454644Y-5385644D01*
X15454644Y-5456356D01*
X15525356Y-5456356D01*
X15525356Y-5710356D02*
X15525356Y-5639644D01*
X15454644Y-5639644D01*
X15454644Y-5710356D01*
X15525356Y-5710356D01*
X15525356Y-5964356D02*
X15525356Y-5893644D01*
X15454644Y-5893644D01*
X15454644Y-5964356D01*
X15525356Y-5964356D01*
X15525356Y-6218356D02*
X15525356Y-6147644D01*
X15454644Y-6147644D01*
X15454644Y-6218356D01*
X15525356Y-6218356D01*
X15525356Y-6472356D02*
X15525356Y-6401644D01*
X15454644Y-6401644D01*
X15454644Y-6472356D01*
X15525356Y-6472356D01*
X15696356Y-9596356D02*
X15696356Y-9525644D01*
X15625644Y-9525644D01*
X15625644Y-9596356D01*
X15696356Y-9596356D01*
X15950356Y-9596356D02*
X15950356Y-9525644D01*
X15879644Y-9525644D01*
X15879644Y-9596356D01*
X15950356Y-9596356D01*
X16040356Y-5456356D02*
X16040356Y-5385644D01*
X15969644Y-5385644D01*
X15969644Y-5456356D01*
X16040356Y-5456356D01*
X16040356Y-5710356D02*
X16040356Y-5639644D01*
X15969644Y-5639644D01*
X15969644Y-5710356D01*
X16040356Y-5710356D01*
X16040356Y-5964356D02*
X16040356Y-5893644D01*
X15969644Y-5893644D01*
X15969644Y-5964356D01*
X16040356Y-5964356D01*
X16040356Y-6218356D02*
X16040356Y-6147644D01*
X15969644Y-6147644D01*
X15969644Y-6218356D01*
X16040356Y-6218356D01*
X16040356Y-6472356D02*
X16040356Y-6401644D01*
X15969644Y-6401644D01*
X15969644Y-6472356D01*
X16040356Y-6472356D01*
X16204356Y-9596356D02*
X16204356Y-9525644D01*
X16133644Y-9525644D01*
X16133644Y-9596356D01*
X16204356Y-9596356D01*
X16458356Y-9596356D02*
X16458356Y-9525644D01*
X16387644Y-9525644D01*
X16387644Y-9596356D01*
X16458356Y-9596356D01*
X16560356Y-5456356D02*
X16560356Y-5385644D01*
X16489644Y-5385644D01*
X16489644Y-5456356D01*
X16560356Y-5456356D01*
X16560356Y-5710356D02*
X16560356Y-5639644D01*
X16489644Y-5639644D01*
X16489644Y-5710356D01*
X16560356Y-5710356D01*
X16560356Y-5964356D02*
X16560356Y-5893644D01*
X16489644Y-5893644D01*
X16489644Y-5964356D01*
X16560356Y-5964356D01*
X17037856Y-9589356D02*
X17037856Y-9518644D01*
X16967144Y-9518644D01*
X16967144Y-9589356D01*
X17037856Y-9589356D01*
X17291856Y-9589356D02*
X17291856Y-9518644D01*
X17221144Y-9518644D01*
X17221144Y-9589356D01*
X17291856Y-9589356D01*
X19115356Y-6240856D02*
X19115356Y-6170144D01*
X19044644Y-6170144D01*
X19044644Y-6240856D01*
X19115356Y-6240856D01*
X19115356Y-6494856D02*
X19115356Y-6424144D01*
X19044644Y-6424144D01*
X19044644Y-6494856D01*
X19115356Y-6494856D01*
X19115356Y-6748856D02*
X19115356Y-6678144D01*
X19044644Y-6678144D01*
X19044644Y-6748856D01*
X19115356Y-6748856D01*
D15*
X12560000Y-4871000D02*
X12670000Y-4761000D01*
X12560000Y-4651000D01*
X12450000Y-4761000D01*
X12560000Y-4871000D01*
X12560000Y-10471000D02*
X12670000Y-10361000D01*
X12560000Y-10251000D01*
X12450000Y-10361000D01*
X12560000Y-10471000D01*
X18960000Y-4871000D02*
X19070000Y-4761000D01*
X18960000Y-4651000D01*
X18850000Y-4761000D01*
X18960000Y-4871000D01*
X18960000Y-10471000D02*
X19070000Y-10361000D01*
X18960000Y-10251000D01*
X18850000Y-10361000D01*
X18960000Y-10471000D01*
D11*
X12412619Y-11106476D02*
X12412619Y-10906476D01*
X12460238Y-10906476D01*
X12488809Y-10916000D01*
X12507857Y-10935048D01*
X12517381Y-10954095D01*
X12526905Y-10992190D01*
X12526905Y-11020762D01*
X12517381Y-11058857D01*
X12507857Y-11077905D01*
X12488809Y-11096952D01*
X12460238Y-11106476D01*
X12412619Y-11106476D01*
X12612619Y-11106476D02*
X12612619Y-10973143D01*
X12612619Y-11011238D02*
X12622143Y-10992190D01*
X12631667Y-10982667D01*
X12650714Y-10973143D01*
X12669762Y-10973143D01*
X12736428Y-11106476D02*
X12736428Y-10973143D01*
X12736428Y-10906476D02*
X12726905Y-10916000D01*
X12736428Y-10925524D01*
X12745952Y-10916000D01*
X12736428Y-10906476D01*
X12736428Y-10925524D01*
X12860238Y-11106476D02*
X12841190Y-11096952D01*
X12831667Y-11077905D01*
X12831667Y-10906476D01*
X12965000Y-11106476D02*
X12945952Y-11096952D01*
X12936428Y-11077905D01*
X12936428Y-10906476D01*
X13193571Y-11106476D02*
X13193571Y-10906476D01*
X13260238Y-11049333D01*
X13326905Y-10906476D01*
X13326905Y-11106476D01*
X13507857Y-11106476D02*
X13507857Y-11001714D01*
X13498333Y-10982667D01*
X13479286Y-10973143D01*
X13441190Y-10973143D01*
X13422143Y-10982667D01*
X13507857Y-11096952D02*
X13488809Y-11106476D01*
X13441190Y-11106476D01*
X13422143Y-11096952D01*
X13412619Y-11077905D01*
X13412619Y-11058857D01*
X13422143Y-11039810D01*
X13441190Y-11030286D01*
X13488809Y-11030286D01*
X13507857Y-11020762D01*
X13603095Y-10973143D02*
X13603095Y-11173143D01*
X13603095Y-10982667D02*
X13622143Y-10973143D01*
X13660238Y-10973143D01*
X13679286Y-10982667D01*
X13688809Y-10992190D01*
X13698333Y-11011238D01*
X13698333Y-11068381D01*
X13688809Y-11087429D01*
X13679286Y-11096952D01*
X13660238Y-11106476D01*
X13622143Y-11106476D01*
X13603095Y-11096952D01*
X13784048Y-11087429D02*
X13793571Y-11096952D01*
X13784048Y-11106476D01*
X13774524Y-11096952D01*
X13784048Y-11087429D01*
X13784048Y-11106476D01*
X13784048Y-10982667D02*
X13793571Y-10992190D01*
X13784048Y-11001714D01*
X13774524Y-10992190D01*
X13784048Y-10982667D01*
X13784048Y-11001714D01*
D12*
X12130000Y-11423500D02*
X12155000Y-11448500D01*
X12155000Y-11423500D02*
X12130000Y-11448500D01*
D11*
X12450714Y-11326476D02*
X12469762Y-11326476D01*
X12488809Y-11336000D01*
X12498333Y-11345524D01*
X12507857Y-11364571D01*
X12517381Y-11402667D01*
X12517381Y-11450286D01*
X12507857Y-11488381D01*
X12498333Y-11507428D01*
X12488809Y-11516952D01*
X12469762Y-11526476D01*
X12450714Y-11526476D01*
X12431667Y-11516952D01*
X12422143Y-11507428D01*
X12412619Y-11488381D01*
X12403095Y-11450286D01*
X12403095Y-11402667D01*
X12412619Y-11364571D01*
X12422143Y-11345524D01*
X12431667Y-11336000D01*
X12450714Y-11326476D01*
X12603095Y-11507428D02*
X12612619Y-11516952D01*
X12603095Y-11526476D01*
X12593571Y-11516952D01*
X12603095Y-11507428D01*
X12603095Y-11526476D01*
X12688809Y-11345524D02*
X12698333Y-11336000D01*
X12717381Y-11326476D01*
X12765000Y-11326476D01*
X12784048Y-11336000D01*
X12793571Y-11345524D01*
X12803095Y-11364571D01*
X12803095Y-11383619D01*
X12793571Y-11412190D01*
X12679286Y-11526476D01*
X12803095Y-11526476D01*
X12984048Y-11326476D02*
X12888809Y-11326476D01*
X12879286Y-11421714D01*
X12888809Y-11412190D01*
X12907857Y-11402667D01*
X12955476Y-11402667D01*
X12974524Y-11412190D01*
X12984048Y-11421714D01*
X12993571Y-11440762D01*
X12993571Y-11488381D01*
X12984048Y-11507428D01*
X12974524Y-11516952D01*
X12955476Y-11526476D01*
X12907857Y-11526476D01*
X12888809Y-11516952D01*
X12879286Y-11507428D01*
X13117381Y-11326476D02*
X13136428Y-11326476D01*
X13155476Y-11336000D01*
X13165000Y-11345524D01*
X13174524Y-11364571D01*
X13184048Y-11402667D01*
X13184048Y-11450286D01*
X13174524Y-11488381D01*
X13165000Y-11507428D01*
X13155476Y-11516952D01*
X13136428Y-11526476D01*
X13117381Y-11526476D01*
X13098333Y-11516952D01*
X13088809Y-11507428D01*
X13079286Y-11488381D01*
X13069762Y-11450286D01*
X13069762Y-11402667D01*
X13079286Y-11364571D01*
X13088809Y-11345524D01*
X13098333Y-11336000D01*
X13117381Y-11326476D01*
X13269762Y-11526476D02*
X13269762Y-11393143D01*
X13269762Y-11412190D02*
X13279286Y-11402667D01*
X13298333Y-11393143D01*
X13326905Y-11393143D01*
X13345952Y-11402667D01*
X13355476Y-11421714D01*
X13355476Y-11526476D01*
X13355476Y-11421714D02*
X13365000Y-11402667D01*
X13384048Y-11393143D01*
X13412619Y-11393143D01*
X13431667Y-11402667D01*
X13441190Y-11421714D01*
X13441190Y-11526476D01*
X13536428Y-11526476D02*
X13536428Y-11393143D01*
X13536428Y-11412190D02*
X13545952Y-11402667D01*
X13565000Y-11393143D01*
X13593571Y-11393143D01*
X13612619Y-11402667D01*
X13622143Y-11421714D01*
X13622143Y-11526476D01*
X13622143Y-11421714D02*
X13631667Y-11402667D01*
X13650714Y-11393143D01*
X13679286Y-11393143D01*
X13698333Y-11402667D01*
X13707857Y-11421714D01*
X13707857Y-11526476D01*
X14098333Y-11316952D02*
X13926905Y-11574095D01*
X14355476Y-11326476D02*
X14374524Y-11326476D01*
X14393571Y-11336000D01*
X14403095Y-11345524D01*
X14412619Y-11364571D01*
X14422143Y-11402667D01*
X14422143Y-11450286D01*
X14412619Y-11488381D01*
X14403095Y-11507428D01*
X14393571Y-11516952D01*
X14374524Y-11526476D01*
X14355476Y-11526476D01*
X14336428Y-11516952D01*
X14326905Y-11507428D01*
X14317381Y-11488381D01*
X14307857Y-11450286D01*
X14307857Y-11402667D01*
X14317381Y-11364571D01*
X14326905Y-11345524D01*
X14336428Y-11336000D01*
X14355476Y-11326476D01*
X14507857Y-11507428D02*
X14517381Y-11516952D01*
X14507857Y-11526476D01*
X14498333Y-11516952D01*
X14507857Y-11507428D01*
X14507857Y-11526476D01*
X14641190Y-11326476D02*
X14660238Y-11326476D01*
X14679286Y-11336000D01*
X14688809Y-11345524D01*
X14698333Y-11364571D01*
X14707857Y-11402667D01*
X14707857Y-11450286D01*
X14698333Y-11488381D01*
X14688809Y-11507428D01*
X14679286Y-11516952D01*
X14660238Y-11526476D01*
X14641190Y-11526476D01*
X14622143Y-11516952D01*
X14612619Y-11507428D01*
X14603095Y-11488381D01*
X14593571Y-11450286D01*
X14593571Y-11402667D01*
X14603095Y-11364571D01*
X14612619Y-11345524D01*
X14622143Y-11336000D01*
X14641190Y-11326476D01*
X14831667Y-11326476D02*
X14850714Y-11326476D01*
X14869762Y-11336000D01*
X14879286Y-11345524D01*
X14888809Y-11364571D01*
X14898333Y-11402667D01*
X14898333Y-11450286D01*
X14888809Y-11488381D01*
X14879286Y-11507428D01*
X14869762Y-11516952D01*
X14850714Y-11526476D01*
X14831667Y-11526476D01*
X14812619Y-11516952D01*
X14803095Y-11507428D01*
X14793571Y-11488381D01*
X14784048Y-11450286D01*
X14784048Y-11402667D01*
X14793571Y-11364571D01*
X14803095Y-11345524D01*
X14812619Y-11336000D01*
X14831667Y-11326476D01*
X14993571Y-11526476D02*
X15031667Y-11526476D01*
X15050714Y-11516952D01*
X15060238Y-11507428D01*
X15079286Y-11478857D01*
X15088809Y-11440762D01*
X15088809Y-11364571D01*
X15079286Y-11345524D01*
X15069762Y-11336000D01*
X15050714Y-11326476D01*
X15012619Y-11326476D01*
X14993571Y-11336000D01*
X14984048Y-11345524D01*
X14974524Y-11364571D01*
X14974524Y-11412190D01*
X14984048Y-11431238D01*
X14993571Y-11440762D01*
X15012619Y-11450286D01*
X15050714Y-11450286D01*
X15069762Y-11440762D01*
X15079286Y-11431238D01*
X15088809Y-11412190D01*
X15203095Y-11412190D02*
X15184048Y-11402667D01*
X15174524Y-11393143D01*
X15165000Y-11374095D01*
X15165000Y-11364571D01*
X15174524Y-11345524D01*
X15184048Y-11336000D01*
X15203095Y-11326476D01*
X15241190Y-11326476D01*
X15260238Y-11336000D01*
X15269762Y-11345524D01*
X15279286Y-11364571D01*
X15279286Y-11374095D01*
X15269762Y-11393143D01*
X15260238Y-11402667D01*
X15241190Y-11412190D01*
X15203095Y-11412190D01*
X15184048Y-11421714D01*
X15174524Y-11431238D01*
X15165000Y-11450286D01*
X15165000Y-11488381D01*
X15174524Y-11507428D01*
X15184048Y-11516952D01*
X15203095Y-11526476D01*
X15241190Y-11526476D01*
X15260238Y-11516952D01*
X15269762Y-11507428D01*
X15279286Y-11488381D01*
X15279286Y-11450286D01*
X15269762Y-11431238D01*
X15260238Y-11421714D01*
X15241190Y-11412190D01*
X15355476Y-11326476D02*
X15355476Y-11364571D01*
X15431667Y-11326476D02*
X15431667Y-11364571D01*
X15726905Y-11602667D02*
X15717381Y-11593143D01*
X15698333Y-11564571D01*
X15688809Y-11545524D01*
X15679286Y-11516952D01*
X15669762Y-11469333D01*
X15669762Y-11431238D01*
X15679286Y-11383619D01*
X15688809Y-11355048D01*
X15698333Y-11336000D01*
X15717381Y-11307428D01*
X15726905Y-11297905D01*
X15907857Y-11526476D02*
X15793571Y-11526476D01*
X15850714Y-11526476D02*
X15850714Y-11326476D01*
X15831667Y-11355048D01*
X15812619Y-11374095D01*
X15793571Y-11383619D01*
X15974524Y-11326476D02*
X16098333Y-11326476D01*
X16031667Y-11402667D01*
X16060238Y-11402667D01*
X16079286Y-11412190D01*
X16088809Y-11421714D01*
X16098333Y-11440762D01*
X16098333Y-11488381D01*
X16088809Y-11507428D01*
X16079286Y-11516952D01*
X16060238Y-11526476D01*
X16003095Y-11526476D01*
X15984048Y-11516952D01*
X15974524Y-11507428D01*
X16222143Y-11326476D02*
X16241190Y-11326476D01*
X16260238Y-11336000D01*
X16269762Y-11345524D01*
X16279286Y-11364571D01*
X16288809Y-11402667D01*
X16288809Y-11450286D01*
X16279286Y-11488381D01*
X16269762Y-11507428D01*
X16260238Y-11516952D01*
X16241190Y-11526476D01*
X16222143Y-11526476D01*
X16203095Y-11516952D01*
X16193571Y-11507428D01*
X16184048Y-11488381D01*
X16174524Y-11450286D01*
X16174524Y-11402667D01*
X16184048Y-11364571D01*
X16193571Y-11345524D01*
X16203095Y-11336000D01*
X16222143Y-11326476D01*
X16526905Y-11526476D02*
X16526905Y-11326476D01*
X16612619Y-11526476D02*
X16612619Y-11421714D01*
X16603095Y-11402667D01*
X16584048Y-11393143D01*
X16555476Y-11393143D01*
X16536428Y-11402667D01*
X16526905Y-11412190D01*
X16736428Y-11526476D02*
X16717381Y-11516952D01*
X16707857Y-11507428D01*
X16698333Y-11488381D01*
X16698333Y-11431238D01*
X16707857Y-11412190D01*
X16717381Y-11402667D01*
X16736428Y-11393143D01*
X16765000Y-11393143D01*
X16784048Y-11402667D01*
X16793571Y-11412190D01*
X16803095Y-11431238D01*
X16803095Y-11488381D01*
X16793571Y-11507428D01*
X16784048Y-11516952D01*
X16765000Y-11526476D01*
X16736428Y-11526476D01*
X16917381Y-11526476D02*
X16898333Y-11516952D01*
X16888810Y-11497905D01*
X16888810Y-11326476D01*
X17069762Y-11516952D02*
X17050714Y-11526476D01*
X17012619Y-11526476D01*
X16993571Y-11516952D01*
X16984048Y-11497905D01*
X16984048Y-11421714D01*
X16993571Y-11402667D01*
X17012619Y-11393143D01*
X17050714Y-11393143D01*
X17069762Y-11402667D01*
X17079286Y-11421714D01*
X17079286Y-11440762D01*
X16984048Y-11459809D01*
X17155476Y-11516952D02*
X17174524Y-11526476D01*
X17212619Y-11526476D01*
X17231667Y-11516952D01*
X17241190Y-11497905D01*
X17241190Y-11488381D01*
X17231667Y-11469333D01*
X17212619Y-11459809D01*
X17184048Y-11459809D01*
X17165000Y-11450286D01*
X17155476Y-11431238D01*
X17155476Y-11421714D01*
X17165000Y-11402667D01*
X17184048Y-11393143D01*
X17212619Y-11393143D01*
X17231667Y-11402667D01*
X17307857Y-11602667D02*
X17317381Y-11593143D01*
X17336429Y-11564571D01*
X17345952Y-11545524D01*
X17355476Y-11516952D01*
X17365000Y-11469333D01*
X17365000Y-11431238D01*
X17355476Y-11383619D01*
X17345952Y-11355048D01*
X17336429Y-11336000D01*
X17317381Y-11307428D01*
X17307857Y-11297905D01*
D13*
X12155000Y-11700000D02*
G75*
G03*
X12155000Y-11700000I-20000J0D01*
G01*
D11*
X12450714Y-11590476D02*
X12469762Y-11590476D01*
X12488809Y-11600000D01*
X12498333Y-11609524D01*
X12507857Y-11628571D01*
X12517381Y-11666667D01*
X12517381Y-11714286D01*
X12507857Y-11752381D01*
X12498333Y-11771428D01*
X12488809Y-11780952D01*
X12469762Y-11790476D01*
X12450714Y-11790476D01*
X12431667Y-11780952D01*
X12422143Y-11771428D01*
X12412619Y-11752381D01*
X12403095Y-11714286D01*
X12403095Y-11666667D01*
X12412619Y-11628571D01*
X12422143Y-11609524D01*
X12431667Y-11600000D01*
X12450714Y-11590476D01*
X12603095Y-11771428D02*
X12612619Y-11780952D01*
X12603095Y-11790476D01*
X12593571Y-11780952D01*
X12603095Y-11771428D01*
X12603095Y-11790476D01*
X12784048Y-11657143D02*
X12784048Y-11790476D01*
X12736428Y-11580952D02*
X12688809Y-11723809D01*
X12812619Y-11723809D01*
X12926905Y-11590476D02*
X12945952Y-11590476D01*
X12965000Y-11600000D01*
X12974524Y-11609524D01*
X12984048Y-11628571D01*
X12993571Y-11666667D01*
X12993571Y-11714286D01*
X12984048Y-11752381D01*
X12974524Y-11771428D01*
X12965000Y-11780952D01*
X12945952Y-11790476D01*
X12926905Y-11790476D01*
X12907857Y-11780952D01*
X12898333Y-11771428D01*
X12888809Y-11752381D01*
X12879286Y-11714286D01*
X12879286Y-11666667D01*
X12888809Y-11628571D01*
X12898333Y-11609524D01*
X12907857Y-11600000D01*
X12926905Y-11590476D01*
X13117381Y-11590476D02*
X13136428Y-11590476D01*
X13155476Y-11600000D01*
X13165000Y-11609524D01*
X13174524Y-11628571D01*
X13184048Y-11666667D01*
X13184048Y-11714286D01*
X13174524Y-11752381D01*
X13165000Y-11771428D01*
X13155476Y-11780952D01*
X13136428Y-11790476D01*
X13117381Y-11790476D01*
X13098333Y-11780952D01*
X13088809Y-11771428D01*
X13079286Y-11752381D01*
X13069762Y-11714286D01*
X13069762Y-11666667D01*
X13079286Y-11628571D01*
X13088809Y-11609524D01*
X13098333Y-11600000D01*
X13117381Y-11590476D01*
X13269762Y-11790476D02*
X13269762Y-11657143D01*
X13269762Y-11676190D02*
X13279286Y-11666667D01*
X13298333Y-11657143D01*
X13326905Y-11657143D01*
X13345952Y-11666667D01*
X13355476Y-11685714D01*
X13355476Y-11790476D01*
X13355476Y-11685714D02*
X13365000Y-11666667D01*
X13384048Y-11657143D01*
X13412619Y-11657143D01*
X13431667Y-11666667D01*
X13441190Y-11685714D01*
X13441190Y-11790476D01*
X13536428Y-11790476D02*
X13536428Y-11657143D01*
X13536428Y-11676190D02*
X13545952Y-11666667D01*
X13565000Y-11657143D01*
X13593571Y-11657143D01*
X13612619Y-11666667D01*
X13622143Y-11685714D01*
X13622143Y-11790476D01*
X13622143Y-11685714D02*
X13631667Y-11666667D01*
X13650714Y-11657143D01*
X13679286Y-11657143D01*
X13698333Y-11666667D01*
X13707857Y-11685714D01*
X13707857Y-11790476D01*
X14098333Y-11580952D02*
X13926905Y-11838095D01*
X14355476Y-11590476D02*
X14374524Y-11590476D01*
X14393571Y-11600000D01*
X14403095Y-11609524D01*
X14412619Y-11628571D01*
X14422143Y-11666667D01*
X14422143Y-11714286D01*
X14412619Y-11752381D01*
X14403095Y-11771428D01*
X14393571Y-11780952D01*
X14374524Y-11790476D01*
X14355476Y-11790476D01*
X14336428Y-11780952D01*
X14326905Y-11771428D01*
X14317381Y-11752381D01*
X14307857Y-11714286D01*
X14307857Y-11666667D01*
X14317381Y-11628571D01*
X14326905Y-11609524D01*
X14336428Y-11600000D01*
X14355476Y-11590476D01*
X14507857Y-11771428D02*
X14517381Y-11780952D01*
X14507857Y-11790476D01*
X14498333Y-11780952D01*
X14507857Y-11771428D01*
X14507857Y-11790476D01*
X14641190Y-11590476D02*
X14660238Y-11590476D01*
X14679286Y-11600000D01*
X14688809Y-11609524D01*
X14698333Y-11628571D01*
X14707857Y-11666667D01*
X14707857Y-11714286D01*
X14698333Y-11752381D01*
X14688809Y-11771428D01*
X14679286Y-11780952D01*
X14660238Y-11790476D01*
X14641190Y-11790476D01*
X14622143Y-11780952D01*
X14612619Y-11771428D01*
X14603095Y-11752381D01*
X14593571Y-11714286D01*
X14593571Y-11666667D01*
X14603095Y-11628571D01*
X14612619Y-11609524D01*
X14622143Y-11600000D01*
X14641190Y-11590476D01*
X14898333Y-11790476D02*
X14784048Y-11790476D01*
X14841190Y-11790476D02*
X14841190Y-11590476D01*
X14822143Y-11619048D01*
X14803095Y-11638095D01*
X14784048Y-11647619D01*
X15079286Y-11590476D02*
X14984048Y-11590476D01*
X14974524Y-11685714D01*
X14984048Y-11676190D01*
X15003095Y-11666667D01*
X15050714Y-11666667D01*
X15069762Y-11676190D01*
X15079286Y-11685714D01*
X15088809Y-11704762D01*
X15088809Y-11752381D01*
X15079286Y-11771428D01*
X15069762Y-11780952D01*
X15050714Y-11790476D01*
X15003095Y-11790476D01*
X14984048Y-11780952D01*
X14974524Y-11771428D01*
X15155476Y-11590476D02*
X15288809Y-11590476D01*
X15203095Y-11790476D01*
X15355476Y-11590476D02*
X15355476Y-11628571D01*
X15431667Y-11590476D02*
X15431667Y-11628571D01*
X15726905Y-11866667D02*
X15717381Y-11857143D01*
X15698333Y-11828571D01*
X15688809Y-11809524D01*
X15679286Y-11780952D01*
X15669762Y-11733333D01*
X15669762Y-11695238D01*
X15679286Y-11647619D01*
X15688809Y-11619048D01*
X15698333Y-11600000D01*
X15717381Y-11571428D01*
X15726905Y-11561905D01*
X15784048Y-11590476D02*
X15907857Y-11590476D01*
X15841190Y-11666667D01*
X15869762Y-11666667D01*
X15888809Y-11676190D01*
X15898333Y-11685714D01*
X15907857Y-11704762D01*
X15907857Y-11752381D01*
X15898333Y-11771428D01*
X15888809Y-11780952D01*
X15869762Y-11790476D01*
X15812619Y-11790476D01*
X15793571Y-11780952D01*
X15784048Y-11771428D01*
X15984048Y-11609524D02*
X15993571Y-11600000D01*
X16012619Y-11590476D01*
X16060238Y-11590476D01*
X16079286Y-11600000D01*
X16088809Y-11609524D01*
X16098333Y-11628571D01*
X16098333Y-11647619D01*
X16088809Y-11676190D01*
X15974524Y-11790476D01*
X16098333Y-11790476D01*
X16336428Y-11790476D02*
X16336428Y-11590476D01*
X16422143Y-11790476D02*
X16422143Y-11685714D01*
X16412619Y-11666667D01*
X16393571Y-11657143D01*
X16365000Y-11657143D01*
X16345952Y-11666667D01*
X16336428Y-11676190D01*
X16545952Y-11790476D02*
X16526905Y-11780952D01*
X16517381Y-11771428D01*
X16507857Y-11752381D01*
X16507857Y-11695238D01*
X16517381Y-11676190D01*
X16526905Y-11666667D01*
X16545952Y-11657143D01*
X16574524Y-11657143D01*
X16593571Y-11666667D01*
X16603095Y-11676190D01*
X16612619Y-11695238D01*
X16612619Y-11752381D01*
X16603095Y-11771428D01*
X16593571Y-11780952D01*
X16574524Y-11790476D01*
X16545952Y-11790476D01*
X16726905Y-11790476D02*
X16707857Y-11780952D01*
X16698333Y-11761905D01*
X16698333Y-11590476D01*
X16879286Y-11780952D02*
X16860238Y-11790476D01*
X16822143Y-11790476D01*
X16803095Y-11780952D01*
X16793571Y-11761905D01*
X16793571Y-11685714D01*
X16803095Y-11666667D01*
X16822143Y-11657143D01*
X16860238Y-11657143D01*
X16879286Y-11666667D01*
X16888810Y-11685714D01*
X16888810Y-11704762D01*
X16793571Y-11723809D01*
X16965000Y-11780952D02*
X16984048Y-11790476D01*
X17022143Y-11790476D01*
X17041190Y-11780952D01*
X17050714Y-11761905D01*
X17050714Y-11752381D01*
X17041190Y-11733333D01*
X17022143Y-11723809D01*
X16993571Y-11723809D01*
X16974524Y-11714286D01*
X16965000Y-11695238D01*
X16965000Y-11685714D01*
X16974524Y-11666667D01*
X16993571Y-11657143D01*
X17022143Y-11657143D01*
X17041190Y-11666667D01*
X17117381Y-11866667D02*
X17126905Y-11857143D01*
X17145952Y-11828571D01*
X17155476Y-11809524D01*
X17165000Y-11780952D01*
X17174524Y-11733333D01*
X17174524Y-11695238D01*
X17165000Y-11647619D01*
X17155476Y-11619048D01*
X17145952Y-11600000D01*
X17126905Y-11571428D01*
X17117381Y-11561905D01*
D14*
X12115000Y-11924000D02*
X12115000Y-12004000D01*
X12075000Y-11964000D02*
X12155000Y-11964000D01*
D11*
X12450714Y-11854476D02*
X12469762Y-11854476D01*
X12488809Y-11864000D01*
X12498333Y-11873524D01*
X12507857Y-11892571D01*
X12517381Y-11930667D01*
X12517381Y-11978286D01*
X12507857Y-12016381D01*
X12498333Y-12035428D01*
X12488809Y-12044952D01*
X12469762Y-12054476D01*
X12450714Y-12054476D01*
X12431667Y-12044952D01*
X12422143Y-12035428D01*
X12412619Y-12016381D01*
X12403095Y-11978286D01*
X12403095Y-11930667D01*
X12412619Y-11892571D01*
X12422143Y-11873524D01*
X12431667Y-11864000D01*
X12450714Y-11854476D01*
X12603095Y-12035428D02*
X12612619Y-12044952D01*
X12603095Y-12054476D01*
X12593571Y-12044952D01*
X12603095Y-12035428D01*
X12603095Y-12054476D01*
X12726905Y-11940190D02*
X12707857Y-11930667D01*
X12698333Y-11921143D01*
X12688809Y-11902095D01*
X12688809Y-11892571D01*
X12698333Y-11873524D01*
X12707857Y-11864000D01*
X12726905Y-11854476D01*
X12765000Y-11854476D01*
X12784048Y-11864000D01*
X12793571Y-11873524D01*
X12803095Y-11892571D01*
X12803095Y-11902095D01*
X12793571Y-11921143D01*
X12784048Y-11930667D01*
X12765000Y-11940190D01*
X12726905Y-11940190D01*
X12707857Y-11949714D01*
X12698333Y-11959238D01*
X12688809Y-11978286D01*
X12688809Y-12016381D01*
X12698333Y-12035428D01*
X12707857Y-12044952D01*
X12726905Y-12054476D01*
X12765000Y-12054476D01*
X12784048Y-12044952D01*
X12793571Y-12035428D01*
X12803095Y-12016381D01*
X12803095Y-11978286D01*
X12793571Y-11959238D01*
X12784048Y-11949714D01*
X12765000Y-11940190D01*
X12926905Y-11854476D02*
X12945952Y-11854476D01*
X12965000Y-11864000D01*
X12974524Y-11873524D01*
X12984048Y-11892571D01*
X12993571Y-11930667D01*
X12993571Y-11978286D01*
X12984048Y-12016381D01*
X12974524Y-12035428D01*
X12965000Y-12044952D01*
X12945952Y-12054476D01*
X12926905Y-12054476D01*
X12907857Y-12044952D01*
X12898333Y-12035428D01*
X12888809Y-12016381D01*
X12879286Y-11978286D01*
X12879286Y-11930667D01*
X12888809Y-11892571D01*
X12898333Y-11873524D01*
X12907857Y-11864000D01*
X12926905Y-11854476D01*
X13117381Y-11854476D02*
X13136428Y-11854476D01*
X13155476Y-11864000D01*
X13165000Y-11873524D01*
X13174524Y-11892571D01*
X13184048Y-11930667D01*
X13184048Y-11978286D01*
X13174524Y-12016381D01*
X13165000Y-12035428D01*
X13155476Y-12044952D01*
X13136428Y-12054476D01*
X13117381Y-12054476D01*
X13098333Y-12044952D01*
X13088809Y-12035428D01*
X13079286Y-12016381D01*
X13069762Y-11978286D01*
X13069762Y-11930667D01*
X13079286Y-11892571D01*
X13088809Y-11873524D01*
X13098333Y-11864000D01*
X13117381Y-11854476D01*
X13269762Y-12054476D02*
X13269762Y-11921143D01*
X13269762Y-11940190D02*
X13279286Y-11930667D01*
X13298333Y-11921143D01*
X13326905Y-11921143D01*
X13345952Y-11930667D01*
X13355476Y-11949714D01*
X13355476Y-12054476D01*
X13355476Y-11949714D02*
X13365000Y-11930667D01*
X13384048Y-11921143D01*
X13412619Y-11921143D01*
X13431667Y-11930667D01*
X13441190Y-11949714D01*
X13441190Y-12054476D01*
X13536428Y-12054476D02*
X13536428Y-11921143D01*
X13536428Y-11940190D02*
X13545952Y-11930667D01*
X13565000Y-11921143D01*
X13593571Y-11921143D01*
X13612619Y-11930667D01*
X13622143Y-11949714D01*
X13622143Y-12054476D01*
X13622143Y-11949714D02*
X13631667Y-11930667D01*
X13650714Y-11921143D01*
X13679286Y-11921143D01*
X13698333Y-11930667D01*
X13707857Y-11949714D01*
X13707857Y-12054476D01*
X14098333Y-11844952D02*
X13926905Y-12102095D01*
X14355476Y-11854476D02*
X14374524Y-11854476D01*
X14393571Y-11864000D01*
X14403095Y-11873524D01*
X14412619Y-11892571D01*
X14422143Y-11930667D01*
X14422143Y-11978286D01*
X14412619Y-12016381D01*
X14403095Y-12035428D01*
X14393571Y-12044952D01*
X14374524Y-12054476D01*
X14355476Y-12054476D01*
X14336428Y-12044952D01*
X14326905Y-12035428D01*
X14317381Y-12016381D01*
X14307857Y-11978286D01*
X14307857Y-11930667D01*
X14317381Y-11892571D01*
X14326905Y-11873524D01*
X14336428Y-11864000D01*
X14355476Y-11854476D01*
X14507857Y-12035428D02*
X14517381Y-12044952D01*
X14507857Y-12054476D01*
X14498333Y-12044952D01*
X14507857Y-12035428D01*
X14507857Y-12054476D01*
X14641190Y-11854476D02*
X14660238Y-11854476D01*
X14679286Y-11864000D01*
X14688809Y-11873524D01*
X14698333Y-11892571D01*
X14707857Y-11930667D01*
X14707857Y-11978286D01*
X14698333Y-12016381D01*
X14688809Y-12035428D01*
X14679286Y-12044952D01*
X14660238Y-12054476D01*
X14641190Y-12054476D01*
X14622143Y-12044952D01*
X14612619Y-12035428D01*
X14603095Y-12016381D01*
X14593571Y-11978286D01*
X14593571Y-11930667D01*
X14603095Y-11892571D01*
X14612619Y-11873524D01*
X14622143Y-11864000D01*
X14641190Y-11854476D01*
X14774524Y-11854476D02*
X14898333Y-11854476D01*
X14831667Y-11930667D01*
X14860238Y-11930667D01*
X14879286Y-11940190D01*
X14888809Y-11949714D01*
X14898333Y-11968762D01*
X14898333Y-12016381D01*
X14888809Y-12035428D01*
X14879286Y-12044952D01*
X14860238Y-12054476D01*
X14803095Y-12054476D01*
X14784048Y-12044952D01*
X14774524Y-12035428D01*
X15088809Y-12054476D02*
X14974524Y-12054476D01*
X15031667Y-12054476D02*
X15031667Y-11854476D01*
X15012619Y-11883048D01*
X14993571Y-11902095D01*
X14974524Y-11911619D01*
X15269762Y-11854476D02*
X15174524Y-11854476D01*
X15165000Y-11949714D01*
X15174524Y-11940190D01*
X15193571Y-11930667D01*
X15241190Y-11930667D01*
X15260238Y-11940190D01*
X15269762Y-11949714D01*
X15279286Y-11968762D01*
X15279286Y-12016381D01*
X15269762Y-12035428D01*
X15260238Y-12044952D01*
X15241190Y-12054476D01*
X15193571Y-12054476D01*
X15174524Y-12044952D01*
X15165000Y-12035428D01*
X15355476Y-11854476D02*
X15355476Y-11892571D01*
X15431667Y-11854476D02*
X15431667Y-11892571D01*
X15726905Y-12130667D02*
X15717381Y-12121143D01*
X15698333Y-12092571D01*
X15688809Y-12073524D01*
X15679286Y-12044952D01*
X15669762Y-11997333D01*
X15669762Y-11959238D01*
X15679286Y-11911619D01*
X15688809Y-11883048D01*
X15698333Y-11864000D01*
X15717381Y-11835428D01*
X15726905Y-11825905D01*
X15793571Y-11873524D02*
X15803095Y-11864000D01*
X15822143Y-11854476D01*
X15869762Y-11854476D01*
X15888809Y-11864000D01*
X15898333Y-11873524D01*
X15907857Y-11892571D01*
X15907857Y-11911619D01*
X15898333Y-11940190D01*
X15784048Y-12054476D01*
X15907857Y-12054476D01*
X16145952Y-12054476D02*
X16145952Y-11854476D01*
X16231667Y-12054476D02*
X16231667Y-11949714D01*
X16222143Y-11930667D01*
X16203095Y-11921143D01*
X16174524Y-11921143D01*
X16155476Y-11930667D01*
X16145952Y-11940190D01*
X16355476Y-12054476D02*
X16336428Y-12044952D01*
X16326905Y-12035428D01*
X16317381Y-12016381D01*
X16317381Y-11959238D01*
X16326905Y-11940190D01*
X16336428Y-11930667D01*
X16355476Y-11921143D01*
X16384048Y-11921143D01*
X16403095Y-11930667D01*
X16412619Y-11940190D01*
X16422143Y-11959238D01*
X16422143Y-12016381D01*
X16412619Y-12035428D01*
X16403095Y-12044952D01*
X16384048Y-12054476D01*
X16355476Y-12054476D01*
X16536428Y-12054476D02*
X16517381Y-12044952D01*
X16507857Y-12025905D01*
X16507857Y-11854476D01*
X16688809Y-12044952D02*
X16669762Y-12054476D01*
X16631667Y-12054476D01*
X16612619Y-12044952D01*
X16603095Y-12025905D01*
X16603095Y-11949714D01*
X16612619Y-11930667D01*
X16631667Y-11921143D01*
X16669762Y-11921143D01*
X16688809Y-11930667D01*
X16698333Y-11949714D01*
X16698333Y-11968762D01*
X16603095Y-11987809D01*
X16774524Y-12044952D02*
X16793571Y-12054476D01*
X16831667Y-12054476D01*
X16850714Y-12044952D01*
X16860238Y-12025905D01*
X16860238Y-12016381D01*
X16850714Y-11997333D01*
X16831667Y-11987809D01*
X16803095Y-11987809D01*
X16784048Y-11978286D01*
X16774524Y-11959238D01*
X16774524Y-11949714D01*
X16784048Y-11930667D01*
X16803095Y-11921143D01*
X16831667Y-11921143D01*
X16850714Y-11930667D01*
X16926905Y-12130667D02*
X16936429Y-12121143D01*
X16955476Y-12092571D01*
X16965000Y-12073524D01*
X16974524Y-12044952D01*
X16984048Y-11997333D01*
X16984048Y-11959238D01*
X16974524Y-11911619D01*
X16965000Y-11883048D01*
X16955476Y-11864000D01*
X16936429Y-11835428D01*
X16926905Y-11825905D01*
D10*
X12140356Y-12263356D02*
X12140356Y-12192644D01*
X12069644Y-12192644D01*
X12069644Y-12263356D01*
X12140356Y-12263356D01*
D11*
X12517381Y-12318476D02*
X12403095Y-12318476D01*
X12460238Y-12318476D02*
X12460238Y-12118476D01*
X12441190Y-12147048D01*
X12422143Y-12166095D01*
X12403095Y-12175619D01*
X12603095Y-12299428D02*
X12612619Y-12308952D01*
X12603095Y-12318476D01*
X12593571Y-12308952D01*
X12603095Y-12299428D01*
X12603095Y-12318476D01*
X12736428Y-12118476D02*
X12755476Y-12118476D01*
X12774524Y-12128000D01*
X12784048Y-12137524D01*
X12793571Y-12156571D01*
X12803095Y-12194667D01*
X12803095Y-12242286D01*
X12793571Y-12280381D01*
X12784048Y-12299428D01*
X12774524Y-12308952D01*
X12755476Y-12318476D01*
X12736428Y-12318476D01*
X12717381Y-12308952D01*
X12707857Y-12299428D01*
X12698333Y-12280381D01*
X12688809Y-12242286D01*
X12688809Y-12194667D01*
X12698333Y-12156571D01*
X12707857Y-12137524D01*
X12717381Y-12128000D01*
X12736428Y-12118476D01*
X12926905Y-12118476D02*
X12945952Y-12118476D01*
X12965000Y-12128000D01*
X12974524Y-12137524D01*
X12984048Y-12156571D01*
X12993571Y-12194667D01*
X12993571Y-12242286D01*
X12984048Y-12280381D01*
X12974524Y-12299428D01*
X12965000Y-12308952D01*
X12945952Y-12318476D01*
X12926905Y-12318476D01*
X12907857Y-12308952D01*
X12898333Y-12299428D01*
X12888809Y-12280381D01*
X12879286Y-12242286D01*
X12879286Y-12194667D01*
X12888809Y-12156571D01*
X12898333Y-12137524D01*
X12907857Y-12128000D01*
X12926905Y-12118476D01*
X13117381Y-12118476D02*
X13136428Y-12118476D01*
X13155476Y-12128000D01*
X13165000Y-12137524D01*
X13174524Y-12156571D01*
X13184048Y-12194667D01*
X13184048Y-12242286D01*
X13174524Y-12280381D01*
X13165000Y-12299428D01*
X13155476Y-12308952D01*
X13136428Y-12318476D01*
X13117381Y-12318476D01*
X13098333Y-12308952D01*
X13088809Y-12299428D01*
X13079286Y-12280381D01*
X13069762Y-12242286D01*
X13069762Y-12194667D01*
X13079286Y-12156571D01*
X13088809Y-12137524D01*
X13098333Y-12128000D01*
X13117381Y-12118476D01*
X13269762Y-12318476D02*
X13269762Y-12185143D01*
X13269762Y-12204190D02*
X13279286Y-12194667D01*
X13298333Y-12185143D01*
X13326905Y-12185143D01*
X13345952Y-12194667D01*
X13355476Y-12213714D01*
X13355476Y-12318476D01*
X13355476Y-12213714D02*
X13365000Y-12194667D01*
X13384048Y-12185143D01*
X13412619Y-12185143D01*
X13431667Y-12194667D01*
X13441190Y-12213714D01*
X13441190Y-12318476D01*
X13536428Y-12318476D02*
X13536428Y-12185143D01*
X13536428Y-12204190D02*
X13545952Y-12194667D01*
X13565000Y-12185143D01*
X13593571Y-12185143D01*
X13612619Y-12194667D01*
X13622143Y-12213714D01*
X13622143Y-12318476D01*
X13622143Y-12213714D02*
X13631667Y-12194667D01*
X13650714Y-12185143D01*
X13679286Y-12185143D01*
X13698333Y-12194667D01*
X13707857Y-12213714D01*
X13707857Y-12318476D01*
X14098333Y-12108952D02*
X13926905Y-12366095D01*
X14355476Y-12118476D02*
X14374524Y-12118476D01*
X14393571Y-12128000D01*
X14403095Y-12137524D01*
X14412619Y-12156571D01*
X14422143Y-12194667D01*
X14422143Y-12242286D01*
X14412619Y-12280381D01*
X14403095Y-12299428D01*
X14393571Y-12308952D01*
X14374524Y-12318476D01*
X14355476Y-12318476D01*
X14336428Y-12308952D01*
X14326905Y-12299428D01*
X14317381Y-12280381D01*
X14307857Y-12242286D01*
X14307857Y-12194667D01*
X14317381Y-12156571D01*
X14326905Y-12137524D01*
X14336428Y-12128000D01*
X14355476Y-12118476D01*
X14507857Y-12299428D02*
X14517381Y-12308952D01*
X14507857Y-12318476D01*
X14498333Y-12308952D01*
X14507857Y-12299428D01*
X14507857Y-12318476D01*
X14641190Y-12118476D02*
X14660238Y-12118476D01*
X14679286Y-12128000D01*
X14688809Y-12137524D01*
X14698333Y-12156571D01*
X14707857Y-12194667D01*
X14707857Y-12242286D01*
X14698333Y-12280381D01*
X14688809Y-12299428D01*
X14679286Y-12308952D01*
X14660238Y-12318476D01*
X14641190Y-12318476D01*
X14622143Y-12308952D01*
X14612619Y-12299428D01*
X14603095Y-12280381D01*
X14593571Y-12242286D01*
X14593571Y-12194667D01*
X14603095Y-12156571D01*
X14612619Y-12137524D01*
X14622143Y-12128000D01*
X14641190Y-12118476D01*
X14774524Y-12118476D02*
X14898333Y-12118476D01*
X14831667Y-12194667D01*
X14860238Y-12194667D01*
X14879286Y-12204190D01*
X14888809Y-12213714D01*
X14898333Y-12232762D01*
X14898333Y-12280381D01*
X14888809Y-12299428D01*
X14879286Y-12308952D01*
X14860238Y-12318476D01*
X14803095Y-12318476D01*
X14784048Y-12308952D01*
X14774524Y-12299428D01*
X14993571Y-12318476D02*
X15031667Y-12318476D01*
X15050714Y-12308952D01*
X15060238Y-12299428D01*
X15079286Y-12270857D01*
X15088809Y-12232762D01*
X15088809Y-12156571D01*
X15079286Y-12137524D01*
X15069762Y-12128000D01*
X15050714Y-12118476D01*
X15012619Y-12118476D01*
X14993571Y-12128000D01*
X14984048Y-12137524D01*
X14974524Y-12156571D01*
X14974524Y-12204190D01*
X14984048Y-12223238D01*
X14993571Y-12232762D01*
X15012619Y-12242286D01*
X15050714Y-12242286D01*
X15069762Y-12232762D01*
X15079286Y-12223238D01*
X15088809Y-12204190D01*
X15260238Y-12185143D02*
X15260238Y-12318476D01*
X15212619Y-12108952D02*
X15165000Y-12251809D01*
X15288809Y-12251809D01*
X15355476Y-12118476D02*
X15355476Y-12156571D01*
X15431667Y-12118476D02*
X15431667Y-12156571D01*
X15726905Y-12394667D02*
X15717381Y-12385143D01*
X15698333Y-12356571D01*
X15688809Y-12337524D01*
X15679286Y-12308952D01*
X15669762Y-12261333D01*
X15669762Y-12223238D01*
X15679286Y-12175619D01*
X15688809Y-12147048D01*
X15698333Y-12128000D01*
X15717381Y-12099428D01*
X15726905Y-12089905D01*
X15898333Y-12118476D02*
X15803095Y-12118476D01*
X15793571Y-12213714D01*
X15803095Y-12204190D01*
X15822143Y-12194667D01*
X15869762Y-12194667D01*
X15888809Y-12204190D01*
X15898333Y-12213714D01*
X15907857Y-12232762D01*
X15907857Y-12280381D01*
X15898333Y-12299428D01*
X15888809Y-12308952D01*
X15869762Y-12318476D01*
X15822143Y-12318476D01*
X15803095Y-12308952D01*
X15793571Y-12299428D01*
X15984048Y-12137524D02*
X15993571Y-12128000D01*
X16012619Y-12118476D01*
X16060238Y-12118476D01*
X16079286Y-12128000D01*
X16088809Y-12137524D01*
X16098333Y-12156571D01*
X16098333Y-12175619D01*
X16088809Y-12204190D01*
X15974524Y-12318476D01*
X16098333Y-12318476D01*
X16336428Y-12318476D02*
X16336428Y-12118476D01*
X16422143Y-12318476D02*
X16422143Y-12213714D01*
X16412619Y-12194667D01*
X16393571Y-12185143D01*
X16365000Y-12185143D01*
X16345952Y-12194667D01*
X16336428Y-12204190D01*
X16545952Y-12318476D02*
X16526905Y-12308952D01*
X16517381Y-12299428D01*
X16507857Y-12280381D01*
X16507857Y-12223238D01*
X16517381Y-12204190D01*
X16526905Y-12194667D01*
X16545952Y-12185143D01*
X16574524Y-12185143D01*
X16593571Y-12194667D01*
X16603095Y-12204190D01*
X16612619Y-12223238D01*
X16612619Y-12280381D01*
X16603095Y-12299428D01*
X16593571Y-12308952D01*
X16574524Y-12318476D01*
X16545952Y-12318476D01*
X16726905Y-12318476D02*
X16707857Y-12308952D01*
X16698333Y-12289905D01*
X16698333Y-12118476D01*
X16879286Y-12308952D02*
X16860238Y-12318476D01*
X16822143Y-12318476D01*
X16803095Y-12308952D01*
X16793571Y-12289905D01*
X16793571Y-12213714D01*
X16803095Y-12194667D01*
X16822143Y-12185143D01*
X16860238Y-12185143D01*
X16879286Y-12194667D01*
X16888810Y-12213714D01*
X16888810Y-12232762D01*
X16793571Y-12251809D01*
X16965000Y-12308952D02*
X16984048Y-12318476D01*
X17022143Y-12318476D01*
X17041190Y-12308952D01*
X17050714Y-12289905D01*
X17050714Y-12280381D01*
X17041190Y-12261333D01*
X17022143Y-12251809D01*
X16993571Y-12251809D01*
X16974524Y-12242286D01*
X16965000Y-12223238D01*
X16965000Y-12213714D01*
X16974524Y-12194667D01*
X16993571Y-12185143D01*
X17022143Y-12185143D01*
X17041190Y-12194667D01*
X17117381Y-12394667D02*
X17126905Y-12385143D01*
X17145952Y-12356571D01*
X17155476Y-12337524D01*
X17165000Y-12308952D01*
X17174524Y-12261333D01*
X17174524Y-12223238D01*
X17165000Y-12175619D01*
X17155476Y-12147048D01*
X17145952Y-12128000D01*
X17126905Y-12099428D01*
X17117381Y-12089905D01*
X12055000Y-12592000D02*
X12155000Y-12492000D01*
X12055000Y-12392000D01*
X11955000Y-12492000D01*
X12055000Y-12592000D01*
X12403095Y-12401524D02*
X12412619Y-12392000D01*
X12431667Y-12382476D01*
X12479286Y-12382476D01*
X12498333Y-12392000D01*
X12507857Y-12401524D01*
X12517381Y-12420571D01*
X12517381Y-12439619D01*
X12507857Y-12468190D01*
X12393571Y-12582476D01*
X12517381Y-12582476D01*
X12603095Y-12563428D02*
X12612619Y-12572952D01*
X12603095Y-12582476D01*
X12593571Y-12572952D01*
X12603095Y-12563428D01*
X12603095Y-12582476D01*
X12688809Y-12401524D02*
X12698333Y-12392000D01*
X12717381Y-12382476D01*
X12765000Y-12382476D01*
X12784048Y-12392000D01*
X12793571Y-12401524D01*
X12803095Y-12420571D01*
X12803095Y-12439619D01*
X12793571Y-12468190D01*
X12679286Y-12582476D01*
X12803095Y-12582476D01*
X12926905Y-12382476D02*
X12945952Y-12382476D01*
X12965000Y-12392000D01*
X12974524Y-12401524D01*
X12984048Y-12420571D01*
X12993571Y-12458667D01*
X12993571Y-12506286D01*
X12984048Y-12544381D01*
X12974524Y-12563428D01*
X12965000Y-12572952D01*
X12945952Y-12582476D01*
X12926905Y-12582476D01*
X12907857Y-12572952D01*
X12898333Y-12563428D01*
X12888809Y-12544381D01*
X12879286Y-12506286D01*
X12879286Y-12458667D01*
X12888809Y-12420571D01*
X12898333Y-12401524D01*
X12907857Y-12392000D01*
X12926905Y-12382476D01*
X13117381Y-12382476D02*
X13136428Y-12382476D01*
X13155476Y-12392000D01*
X13165000Y-12401524D01*
X13174524Y-12420571D01*
X13184048Y-12458667D01*
X13184048Y-12506286D01*
X13174524Y-12544381D01*
X13165000Y-12563428D01*
X13155476Y-12572952D01*
X13136428Y-12582476D01*
X13117381Y-12582476D01*
X13098333Y-12572952D01*
X13088809Y-12563428D01*
X13079286Y-12544381D01*
X13069762Y-12506286D01*
X13069762Y-12458667D01*
X13079286Y-12420571D01*
X13088809Y-12401524D01*
X13098333Y-12392000D01*
X13117381Y-12382476D01*
X13269762Y-12582476D02*
X13269762Y-12449143D01*
X13269762Y-12468190D02*
X13279286Y-12458667D01*
X13298333Y-12449143D01*
X13326905Y-12449143D01*
X13345952Y-12458667D01*
X13355476Y-12477714D01*
X13355476Y-12582476D01*
X13355476Y-12477714D02*
X13365000Y-12458667D01*
X13384048Y-12449143D01*
X13412619Y-12449143D01*
X13431667Y-12458667D01*
X13441190Y-12477714D01*
X13441190Y-12582476D01*
X13536428Y-12582476D02*
X13536428Y-12449143D01*
X13536428Y-12468190D02*
X13545952Y-12458667D01*
X13565000Y-12449143D01*
X13593571Y-12449143D01*
X13612619Y-12458667D01*
X13622143Y-12477714D01*
X13622143Y-12582476D01*
X13622143Y-12477714D02*
X13631667Y-12458667D01*
X13650714Y-12449143D01*
X13679286Y-12449143D01*
X13698333Y-12458667D01*
X13707857Y-12477714D01*
X13707857Y-12582476D01*
X14098333Y-12372952D02*
X13926905Y-12630095D01*
X14355476Y-12382476D02*
X14374524Y-12382476D01*
X14393571Y-12392000D01*
X14403095Y-12401524D01*
X14412619Y-12420571D01*
X14422143Y-12458667D01*
X14422143Y-12506286D01*
X14412619Y-12544381D01*
X14403095Y-12563428D01*
X14393571Y-12572952D01*
X14374524Y-12582476D01*
X14355476Y-12582476D01*
X14336428Y-12572952D01*
X14326905Y-12563428D01*
X14317381Y-12544381D01*
X14307857Y-12506286D01*
X14307857Y-12458667D01*
X14317381Y-12420571D01*
X14326905Y-12401524D01*
X14336428Y-12392000D01*
X14355476Y-12382476D01*
X14507857Y-12563428D02*
X14517381Y-12572952D01*
X14507857Y-12582476D01*
X14498333Y-12572952D01*
X14507857Y-12563428D01*
X14507857Y-12582476D01*
X14641190Y-12382476D02*
X14660238Y-12382476D01*
X14679286Y-12392000D01*
X14688809Y-12401524D01*
X14698333Y-12420571D01*
X14707857Y-12458667D01*
X14707857Y-12506286D01*
X14698333Y-12544381D01*
X14688809Y-12563428D01*
X14679286Y-12572952D01*
X14660238Y-12582476D01*
X14641190Y-12582476D01*
X14622143Y-12572952D01*
X14612619Y-12563428D01*
X14603095Y-12544381D01*
X14593571Y-12506286D01*
X14593571Y-12458667D01*
X14603095Y-12420571D01*
X14612619Y-12401524D01*
X14622143Y-12392000D01*
X14641190Y-12382476D01*
X14822143Y-12468190D02*
X14803095Y-12458667D01*
X14793571Y-12449143D01*
X14784048Y-12430095D01*
X14784048Y-12420571D01*
X14793571Y-12401524D01*
X14803095Y-12392000D01*
X14822143Y-12382476D01*
X14860238Y-12382476D01*
X14879286Y-12392000D01*
X14888809Y-12401524D01*
X14898333Y-12420571D01*
X14898333Y-12430095D01*
X14888809Y-12449143D01*
X14879286Y-12458667D01*
X14860238Y-12468190D01*
X14822143Y-12468190D01*
X14803095Y-12477714D01*
X14793571Y-12487238D01*
X14784048Y-12506286D01*
X14784048Y-12544381D01*
X14793571Y-12563428D01*
X14803095Y-12572952D01*
X14822143Y-12582476D01*
X14860238Y-12582476D01*
X14879286Y-12572952D01*
X14888809Y-12563428D01*
X14898333Y-12544381D01*
X14898333Y-12506286D01*
X14888809Y-12487238D01*
X14879286Y-12477714D01*
X14860238Y-12468190D01*
X15069762Y-12382476D02*
X15031667Y-12382476D01*
X15012619Y-12392000D01*
X15003095Y-12401524D01*
X14984048Y-12430095D01*
X14974524Y-12468190D01*
X14974524Y-12544381D01*
X14984048Y-12563428D01*
X14993571Y-12572952D01*
X15012619Y-12582476D01*
X15050714Y-12582476D01*
X15069762Y-12572952D01*
X15079286Y-12563428D01*
X15088809Y-12544381D01*
X15088809Y-12496762D01*
X15079286Y-12477714D01*
X15069762Y-12468190D01*
X15050714Y-12458667D01*
X15012619Y-12458667D01*
X14993571Y-12468190D01*
X14984048Y-12477714D01*
X14974524Y-12496762D01*
X15260238Y-12382476D02*
X15222143Y-12382476D01*
X15203095Y-12392000D01*
X15193571Y-12401524D01*
X15174524Y-12430095D01*
X15165000Y-12468190D01*
X15165000Y-12544381D01*
X15174524Y-12563428D01*
X15184048Y-12572952D01*
X15203095Y-12582476D01*
X15241190Y-12582476D01*
X15260238Y-12572952D01*
X15269762Y-12563428D01*
X15279286Y-12544381D01*
X15279286Y-12496762D01*
X15269762Y-12477714D01*
X15260238Y-12468190D01*
X15241190Y-12458667D01*
X15203095Y-12458667D01*
X15184048Y-12468190D01*
X15174524Y-12477714D01*
X15165000Y-12496762D01*
X15355476Y-12382476D02*
X15355476Y-12420571D01*
X15431667Y-12382476D02*
X15431667Y-12420571D01*
X15726905Y-12658667D02*
X15717381Y-12649143D01*
X15698333Y-12620571D01*
X15688809Y-12601524D01*
X15679286Y-12572952D01*
X15669762Y-12525333D01*
X15669762Y-12487238D01*
X15679286Y-12439619D01*
X15688809Y-12411048D01*
X15698333Y-12392000D01*
X15717381Y-12363428D01*
X15726905Y-12353905D01*
X15888809Y-12449143D02*
X15888809Y-12582476D01*
X15841190Y-12372952D02*
X15793571Y-12515809D01*
X15917381Y-12515809D01*
X16145952Y-12582476D02*
X16145952Y-12382476D01*
X16231667Y-12582476D02*
X16231667Y-12477714D01*
X16222143Y-12458667D01*
X16203095Y-12449143D01*
X16174524Y-12449143D01*
X16155476Y-12458667D01*
X16145952Y-12468190D01*
X16355476Y-12582476D02*
X16336428Y-12572952D01*
X16326905Y-12563428D01*
X16317381Y-12544381D01*
X16317381Y-12487238D01*
X16326905Y-12468190D01*
X16336428Y-12458667D01*
X16355476Y-12449143D01*
X16384048Y-12449143D01*
X16403095Y-12458667D01*
X16412619Y-12468190D01*
X16422143Y-12487238D01*
X16422143Y-12544381D01*
X16412619Y-12563428D01*
X16403095Y-12572952D01*
X16384048Y-12582476D01*
X16355476Y-12582476D01*
X16536428Y-12582476D02*
X16517381Y-12572952D01*
X16507857Y-12553905D01*
X16507857Y-12382476D01*
X16688809Y-12572952D02*
X16669762Y-12582476D01*
X16631667Y-12582476D01*
X16612619Y-12572952D01*
X16603095Y-12553905D01*
X16603095Y-12477714D01*
X16612619Y-12458667D01*
X16631667Y-12449143D01*
X16669762Y-12449143D01*
X16688809Y-12458667D01*
X16698333Y-12477714D01*
X16698333Y-12496762D01*
X16603095Y-12515809D01*
X16774524Y-12572952D02*
X16793571Y-12582476D01*
X16831667Y-12582476D01*
X16850714Y-12572952D01*
X16860238Y-12553905D01*
X16860238Y-12544381D01*
X16850714Y-12525333D01*
X16831667Y-12515809D01*
X16803095Y-12515809D01*
X16784048Y-12506286D01*
X16774524Y-12487238D01*
X16774524Y-12477714D01*
X16784048Y-12458667D01*
X16803095Y-12449143D01*
X16831667Y-12449143D01*
X16850714Y-12458667D01*
X16926905Y-12658667D02*
X16936429Y-12649143D01*
X16955476Y-12620571D01*
X16965000Y-12601524D01*
X16974524Y-12572952D01*
X16984048Y-12525333D01*
X16984048Y-12487238D01*
X16974524Y-12439619D01*
X16965000Y-12411048D01*
X16955476Y-12392000D01*
X16936429Y-12363428D01*
X16926905Y-12353905D01*
M02*
