G04 #@! TF.GenerationSoftware,KiCad,Pcbnew,(6.0.9)*
G04 #@! TF.CreationDate,2023-02-01T14:52:05+00:00*
G04 #@! TF.ProjectId,GroupProjectCustom,47726f75-7050-4726-9f6a-656374437573,rev?*
G04 #@! TF.SameCoordinates,Original*
G04 #@! TF.FileFunction,Soldermask,Bot*
G04 #@! TF.FilePolarity,Negative*
%FSLAX46Y46*%
G04 Gerber Fmt 4.6, Leading zero omitted, Abs format (unit mm)*
G04 Created by KiCad (PCBNEW (6.0.9)) date 2023-02-01 14:52:05*
%MOMM*%
%LPD*%
G01*
G04 APERTURE LIST*
G04 Aperture macros list*
%AMRoundRect*
0 Rectangle with rounded corners*
0 $1 Rounding radius*
0 $2 $3 $4 $5 $6 $7 $8 $9 X,Y pos of 4 corners*
0 Add a 4 corners polygon primitive as box body*
4,1,4,$2,$3,$4,$5,$6,$7,$8,$9,$2,$3,0*
0 Add four circle primitives for the rounded corners*
1,1,$1+$1,$2,$3*
1,1,$1+$1,$4,$5*
1,1,$1+$1,$6,$7*
1,1,$1+$1,$8,$9*
0 Add four rect primitives between the rounded corners*
20,1,$1+$1,$2,$3,$4,$5,0*
20,1,$1+$1,$4,$5,$6,$7,0*
20,1,$1+$1,$6,$7,$8,$9,0*
20,1,$1+$1,$8,$9,$2,$3,0*%
%AMFreePoly0*
4,1,6,1.000000,0.000000,0.500000,-0.750000,-0.500000,-0.750000,-0.500000,0.750000,0.500000,0.750000,1.000000,0.000000,1.000000,0.000000,$1*%
%AMFreePoly1*
4,1,6,0.500000,-0.750000,-0.650000,-0.750000,-0.150000,0.000000,-0.650000,0.750000,0.500000,0.750000,0.500000,-0.750000,0.500000,-0.750000,$1*%
G04 Aperture macros list end*
%ADD10RoundRect,0.200000X0.275000X-0.200000X0.275000X0.200000X-0.275000X0.200000X-0.275000X-0.200000X0*%
%ADD11R,1.700000X1.700000*%
%ADD12O,1.700000X1.700000*%
%ADD13C,0.700000*%
%ADD14C,4.400000*%
%ADD15C,1.500000*%
%ADD16RoundRect,0.237500X-0.300000X-0.237500X0.300000X-0.237500X0.300000X0.237500X-0.300000X0.237500X0*%
%ADD17R,1.560000X0.650000*%
%ADD18FreePoly0,0.000000*%
%ADD19FreePoly1,0.000000*%
%ADD20RoundRect,0.237500X-0.250000X-0.237500X0.250000X-0.237500X0.250000X0.237500X-0.250000X0.237500X0*%
%ADD21RoundRect,0.237500X0.300000X0.237500X-0.300000X0.237500X-0.300000X-0.237500X0.300000X-0.237500X0*%
%ADD22RoundRect,0.200000X-0.200000X-0.275000X0.200000X-0.275000X0.200000X0.275000X-0.200000X0.275000X0*%
G04 APERTURE END LIST*
D10*
X138800000Y-65925000D03*
X138800000Y-64275000D03*
X143400000Y-65925000D03*
X143400000Y-64275000D03*
D11*
X164230000Y-95610000D03*
D12*
X161690000Y-95610000D03*
X159150000Y-95610000D03*
X156610000Y-95610000D03*
X154070000Y-95610000D03*
X151530000Y-95610000D03*
D11*
X127820000Y-54195000D03*
D12*
X127820000Y-56735000D03*
X127820000Y-59275000D03*
D11*
X141080000Y-54210000D03*
D12*
X141080000Y-56750000D03*
X141080000Y-59290000D03*
X141080000Y-61830000D03*
D11*
X131700000Y-54210000D03*
D12*
X131700000Y-56750000D03*
X131700000Y-59290000D03*
X131700000Y-61830000D03*
X131700000Y-64370000D03*
X131700000Y-66910000D03*
D11*
X170025000Y-95540000D03*
D12*
X172565000Y-95540000D03*
D11*
X160050000Y-54210000D03*
D12*
X160050000Y-56750000D03*
X160050000Y-59290000D03*
X160050000Y-61830000D03*
X160050000Y-64370000D03*
D13*
X187950000Y-47610000D03*
X191250000Y-47610000D03*
D14*
X189600000Y-47610000D03*
D13*
X189600000Y-45960000D03*
X188433274Y-48776726D03*
X190766726Y-48776726D03*
X190766726Y-46443274D03*
X189600000Y-49260000D03*
X188433274Y-46443274D03*
D15*
X142670000Y-73960000D03*
X142670000Y-69080000D03*
D11*
X123970000Y-54175000D03*
D12*
X123970000Y-56715000D03*
X123970000Y-59255000D03*
D11*
X136430000Y-54210000D03*
D12*
X136430000Y-56750000D03*
X136430000Y-59290000D03*
X136430000Y-61830000D03*
D13*
X189600000Y-101960000D03*
X188433274Y-104776726D03*
X189600000Y-105260000D03*
X191250000Y-103610000D03*
X188433274Y-102443274D03*
X187950000Y-103610000D03*
X190766726Y-102443274D03*
X190766726Y-104776726D03*
D14*
X189600000Y-103610000D03*
D13*
X124433274Y-46443274D03*
D14*
X125600000Y-47610000D03*
D13*
X126766726Y-46443274D03*
X125600000Y-45960000D03*
X126766726Y-48776726D03*
X125600000Y-49260000D03*
X123950000Y-47610000D03*
X127250000Y-47610000D03*
X124433274Y-48776726D03*
D11*
X165250000Y-54210000D03*
D12*
X165250000Y-56750000D03*
X165250000Y-59290000D03*
D13*
X123950000Y-103610000D03*
X127250000Y-103610000D03*
D14*
X125600000Y-103610000D03*
D13*
X124433274Y-102443274D03*
X125600000Y-105260000D03*
X126766726Y-102443274D03*
X126766726Y-104776726D03*
X125600000Y-101960000D03*
X124433274Y-104776726D03*
D11*
X190800000Y-67135000D03*
D12*
X190800000Y-64595000D03*
X190800000Y-62055000D03*
D11*
X154900000Y-54210000D03*
D12*
X154900000Y-56750000D03*
X154900000Y-59290000D03*
X154900000Y-61830000D03*
X154900000Y-64370000D03*
D11*
X150380000Y-54210000D03*
D12*
X150380000Y-56750000D03*
X150380000Y-59290000D03*
X150380000Y-61830000D03*
D11*
X145730000Y-54210000D03*
D12*
X145730000Y-56750000D03*
X145730000Y-59290000D03*
X145730000Y-61830000D03*
D16*
X169777500Y-74660000D03*
X171502500Y-74660000D03*
X169777500Y-73160000D03*
X171502500Y-73160000D03*
X175115000Y-73310000D03*
X176840000Y-73310000D03*
D17*
X140300000Y-91760000D03*
X140300000Y-92710000D03*
X140300000Y-93660000D03*
X137600000Y-93660000D03*
X137600000Y-92710000D03*
X137600000Y-91760000D03*
D18*
X170555000Y-92160000D03*
D19*
X172005000Y-92160000D03*
D20*
X169727500Y-71660000D03*
X171552500Y-71660000D03*
D21*
X135712500Y-91810000D03*
X133987500Y-91810000D03*
D22*
X152425000Y-84310000D03*
X154075000Y-84310000D03*
X133825000Y-94010000D03*
X135475000Y-94010000D03*
D16*
X175115000Y-74810000D03*
X176840000Y-74810000D03*
X175127500Y-71810000D03*
X176852500Y-71810000D03*
X175127500Y-70310000D03*
X176852500Y-70310000D03*
M02*
